<ttFont>
    <TTGlyph name=".notdef" xMin="72" yMin="-220" xMax="831" yMax="1030">
      <contour>
        <pt x="72" y="1030" on="1"/>
        <pt x="831" y="1030" on="1"/>
        <pt x="831" y="-220" on="1"/>
        <pt x="72" y="-220" on="1"/>
      </contour>
      <contour>
        <pt x="650" y="-52" on="1"/>
        <pt x="650" y="862" on="1"/>
        <pt x="254" y="862" on="1"/>
        <pt x="254" y="-52" on="1"/>
      </contour>
    </TTGlyph>
    <TTGlyph name="A" xMin="-5" yMin="0" xMax="830" yMax="740">
      <contour>
        <pt x="-5" y="12" on="1"/>
        <pt x="240" y="740" on="1"/>
        <pt x="585" y="740" on="1"/>
        <pt x="830" y="12" on="1"/>
        <pt x="830" y="0" on="1"/>
        <pt x="602" y="0" on="1"/>
        <pt x="555" y="148" on="1"/>
        <pt x="269" y="148" on="1"/>
        <pt x="223" y="0" on="1"/>
        <pt x="-5" y="0" on="1"/>
      </contour>
      <contour>
        <pt x="501" y="324" on="1"/>
        <pt x="473" y="412" on="1"/>
        <pt x="422" y="583" on="1"/>
        <pt x="402" y="583" on="1"/>
        <pt x="351" y="410" on="1"/>
        <pt x="324" y="324" on="1"/>
      </contour>
    </TTGlyph>
    <TTGlyph name="A.sc" xMin="-4" yMin="0" xMax="767" yMax="577">
      <contour>
        <pt x="-4" y="11" on="1"/>
        <pt x="218" y="577" on="1"/>
        <pt x="545" y="577" on="1"/>
        <pt x="767" y="11" on="1"/>
        <pt x="767" y="0" on="1"/>
        <pt x="550" y="0" on="1"/>
        <pt x="512" y="90" on="1"/>
        <pt x="250" y="90" on="1"/>
        <pt x="213" y="0" on="1"/>
        <pt x="-4" y="0" on="1"/>
      </contour>
      <contour>
        <pt x="468" y="235" on="1"/>
        <pt x="438" y="313" on="1"/>
        <pt x="390" y="429" on="1"/>
        <pt x="371" y="429" on="1"/>
        <pt x="324" y="311" on="1"/>
        <pt x="294" y="235" on="1"/>
      </contour>
    </TTGlyph>
    <TTGlyph name="AE" xMin="-13" yMin="0" xMax="1081" yMax="740">
      <contour>
        <pt x="-13" y="12" on="1"/>
        <pt x="312" y="740" on="1"/>
        <pt x="1061" y="740" on="1"/>
        <pt x="1061" y="564" on="1"/>
        <pt x="730" y="564" on="1"/>
        <pt x="738" y="458" on="1"/>
        <pt x="1051" y="458" on="1"/>
        <pt x="1051" y="282" on="1"/>
        <pt x="751" y="282" on="1"/>
        <pt x="760" y="176" on="1"/>
        <pt x="1081" y="176" on="1"/>
        <pt x="1081" y="0" on="1"/>
        <pt x="525" y="0" on="1"/>
        <pt x="519" y="142" on="1"/>
        <pt x="278" y="142" on="1"/>
        <pt x="215" y="0" on="1"/>
        <pt x="-13" y="0" on="1"/>
      </contour>
      <contour>
        <pt x="360" y="328" on="1"/>
        <pt x="512" y="328" on="1"/>
        <pt x="501" y="583" on="1"/>
        <pt x="474" y="583" on="1"/>
      </contour>
    </TTGlyph>
    <TTGlyph name="AE.sc" xMin="-12" yMin="0" xMax="1003" yMax="577">
      <contour>
        <pt x="-12" y="11" on="1"/>
        <pt x="288" y="577" on="1"/>
        <pt x="984" y="577" on="1"/>
        <pt x="984" y="418" on="1"/>
        <pt x="681" y="418" on="1"/>
        <pt x="686" y="356" on="1"/>
        <pt x="976" y="356" on="1"/>
        <pt x="976" y="222" on="1"/>
        <pt x="701" y="222" on="1"/>
        <pt x="709" y="160" on="1"/>
        <pt x="1003" y="160" on="1"/>
        <pt x="1003" y="0" on="1"/>
        <pt x="485" y="0" on="1"/>
        <pt x="481" y="90" on="1"/>
        <pt x="253" y="90" on="1"/>
        <pt x="204" y="0" on="1"/>
        <pt x="-12" y="0" on="1"/>
      </contour>
      <contour>
        <pt x="330" y="230" on="1"/>
        <pt x="472" y="230" on="1"/>
        <pt x="465" y="431" on="1"/>
        <pt x="440" y="431" on="1"/>
      </contour>
    </TTGlyph>
    <TTGlyph name="AEacute" xMin="-13" yMin="0" xMax="1081" yMax="1008">
      <contour>
        <pt x="498" y="817" on="1"/>
        <pt x="560" y="1008" on="1"/>
        <pt x="795" y="1008" on="1"/>
        <pt x="663" y="807" on="1"/>
      </contour>
      <contour>
        <pt x="-13" y="12" on="1"/>
        <pt x="312" y="740" on="1"/>
        <pt x="1061" y="740" on="1"/>
        <pt x="1061" y="564" on="1"/>
        <pt x="730" y="564" on="1"/>
        <pt x="738" y="458" on="1"/>
        <pt x="1051" y="458" on="1"/>
        <pt x="1051" y="282" on="1"/>
        <pt x="751" y="282" on="1"/>
        <pt x="760" y="176" on="1"/>
        <pt x="1081" y="176" on="1"/>
        <pt x="1081" y="0" on="1"/>
        <pt x="525" y="0" on="1"/>
        <pt x="519" y="142" on="1"/>
        <pt x="278" y="142" on="1"/>
        <pt x="215" y="0" on="1"/>
        <pt x="-13" y="0" on="1"/>
      </contour>
      <contour>
        <pt x="360" y="328" on="1"/>
        <pt x="512" y="328" on="1"/>
        <pt x="501" y="583" on="1"/>
        <pt x="474" y="583" on="1"/>
      </contour>
    </TTGlyph>
    <TTGlyph name="AEacute.sc" xMin="-12" yMin="0" xMax="1003" yMax="802">
      <contour>
        <pt x="-12" y="11" on="1"/>
        <pt x="288" y="577" on="1"/>
        <pt x="984" y="577" on="1"/>
        <pt x="984" y="418" on="1"/>
        <pt x="681" y="418" on="1"/>
        <pt x="686" y="356" on="1"/>
        <pt x="976" y="356" on="1"/>
        <pt x="976" y="222" on="1"/>
        <pt x="701" y="222" on="1"/>
        <pt x="709" y="160" on="1"/>
        <pt x="1003" y="160" on="1"/>
        <pt x="1003" y="0" on="1"/>
        <pt x="485" y="0" on="1"/>
        <pt x="481" y="90" on="1"/>
        <pt x="253" y="90" on="1"/>
        <pt x="204" y="0" on="1"/>
        <pt x="-12" y="0" on="1"/>
      </contour>
      <contour>
        <pt x="472" y="230" on="1"/>
        <pt x="465" y="431" on="1"/>
        <pt x="440" y="431" on="1"/>
        <pt x="330" y="230" on="1"/>
      </contour>
      <contour>
        <pt x="454" y="640" on="1"/>
        <pt x="509" y="802" on="1"/>
        <pt x="732" y="802" on="1"/>
        <pt x="611" y="631" on="1"/>
      </contour>
    </TTGlyph>
    <TTGlyph name="Aacute" xMin="-5" yMin="0" xMax="830" yMax="1008">
      <contour>
        <pt x="-5" y="12" on="1"/>
        <pt x="240" y="740" on="1"/>
        <pt x="585" y="740" on="1"/>
        <pt x="830" y="12" on="1"/>
        <pt x="830" y="0" on="1"/>
        <pt x="602" y="0" on="1"/>
        <pt x="555" y="148" on="1"/>
        <pt x="269" y="148" on="1"/>
        <pt x="223" y="0" on="1"/>
        <pt x="-5" y="0" on="1"/>
      </contour>
      <contour>
        <pt x="501" y="324" on="1"/>
        <pt x="473" y="412" on="1"/>
        <pt x="422" y="583" on="1"/>
        <pt x="402" y="583" on="1"/>
        <pt x="351" y="410" on="1"/>
        <pt x="324" y="324" on="1"/>
      </contour>
      <contour>
        <pt x="324" y="817" on="1"/>
        <pt x="386" y="1008" on="1"/>
        <pt x="621" y="1008" on="1"/>
        <pt x="489" y="807" on="1"/>
      </contour>
    </TTGlyph>
    <TTGlyph name="Aacute.sc" xMin="-4" yMin="0" xMax="767" yMax="802">
      <contour>
        <pt x="-4" y="11" on="1"/>
        <pt x="218" y="577" on="1"/>
        <pt x="545" y="577" on="1"/>
        <pt x="767" y="11" on="1"/>
        <pt x="767" y="0" on="1"/>
        <pt x="550" y="0" on="1"/>
        <pt x="512" y="90" on="1"/>
        <pt x="250" y="90" on="1"/>
        <pt x="213" y="0" on="1"/>
        <pt x="-4" y="0" on="1"/>
      </contour>
      <contour>
        <pt x="466" y="245" on="1"/>
        <pt x="438" y="313" on="1"/>
        <pt x="390" y="429" on="1"/>
        <pt x="371" y="429" on="1"/>
        <pt x="324" y="311" on="1"/>
        <pt x="296" y="245" on="1"/>
      </contour>
      <contour>
        <pt x="299" y="640" on="1"/>
        <pt x="354" y="802" on="1"/>
        <pt x="577" y="802" on="1"/>
        <pt x="455" y="631" on="1"/>
      </contour>
    </TTGlyph>
    <TTGlyph name="Abreve" xMin="-5" yMin="0" xMax="830" yMax="1006">
      <contour>
        <pt x="-5" y="12" on="1"/>
        <pt x="240" y="740" on="1"/>
        <pt x="585" y="740" on="1"/>
        <pt x="830" y="12" on="1"/>
        <pt x="830" y="0" on="1"/>
        <pt x="602" y="0" on="1"/>
        <pt x="555" y="148" on="1"/>
        <pt x="269" y="148" on="1"/>
        <pt x="223" y="0" on="1"/>
        <pt x="-5" y="0" on="1"/>
      </contour>
      <contour>
        <pt x="501" y="324" on="1"/>
        <pt x="473" y="412" on="1"/>
        <pt x="422" y="583" on="1"/>
        <pt x="402" y="583" on="1"/>
        <pt x="351" y="410" on="1"/>
        <pt x="324" y="324" on="1"/>
      </contour>
      <contour>
        <pt x="412" y="811" on="1"/>
        <pt x="337" y="811" on="0"/>
        <pt x="239" y="842" on="0"/>
        <pt x="180" y="895" on="0"/>
        <pt x="156" y="966" on="0"/>
        <pt x="156" y="1006" on="1"/>
        <pt x="305" y="1006" on="1"/>
        <pt x="305" y="985" on="0"/>
        <pt x="314" y="951" on="0"/>
        <pt x="338" y="928" on="0"/>
        <pt x="380" y="916" on="0"/>
        <pt x="412" y="916" on="1"/>
        <pt x="445" y="916" on="0"/>
        <pt x="486" y="928" on="0"/>
        <pt x="510" y="951" on="0"/>
        <pt x="519" y="985" on="0"/>
        <pt x="519" y="1006" on="1"/>
        <pt x="668" y="1006" on="1"/>
        <pt x="668" y="964" on="0"/>
        <pt x="644" y="893" on="0"/>
        <pt x="585" y="841" on="0"/>
        <pt x="486" y="811" on="0"/>
      </contour>
    </TTGlyph>
    <TTGlyph name="Abreve.sc" xMin="-4" yMin="0" xMax="767" yMax="797">
      <contour>
        <pt x="381" y="633" on="1"/>
        <pt x="310" y="633" on="0"/>
        <pt x="218" y="660" on="0"/>
        <pt x="164" y="705" on="0"/>
        <pt x="142" y="764" on="0"/>
        <pt x="142" y="797" on="1"/>
        <pt x="283" y="797" on="1"/>
        <pt x="283" y="781" on="0"/>
        <pt x="291" y="756" on="0"/>
        <pt x="313" y="738" on="0"/>
        <pt x="351" y="729" on="0"/>
        <pt x="381" y="729" on="1"/>
        <pt x="411" y="729" on="0"/>
        <pt x="450" y="738" on="0"/>
        <pt x="471" y="756" on="0"/>
        <pt x="479" y="781" on="0"/>
        <pt x="479" y="797" on="1"/>
        <pt x="619" y="797" on="1"/>
        <pt x="619" y="763" on="0"/>
        <pt x="597" y="703" on="0"/>
        <pt x="543" y="659" on="0"/>
        <pt x="451" y="633" on="0"/>
      </contour>
      <contour>
        <pt x="-4" y="11" on="1"/>
        <pt x="218" y="577" on="1"/>
        <pt x="545" y="577" on="1"/>
        <pt x="767" y="11" on="1"/>
        <pt x="767" y="0" on="1"/>
        <pt x="550" y="0" on="1"/>
        <pt x="512" y="90" on="1"/>
        <pt x="250" y="90" on="1"/>
        <pt x="213" y="0" on="1"/>
        <pt x="-4" y="0" on="1"/>
      </contour>
      <contour>
        <pt x="466" y="245" on="1"/>
        <pt x="438" y="313" on="1"/>
        <pt x="390" y="429" on="1"/>
        <pt x="371" y="429" on="1"/>
        <pt x="324" y="311" on="1"/>
        <pt x="296" y="245" on="1"/>
      </contour>
    </TTGlyph>
    <TTGlyph name="Acircumflex" xMin="-5" yMin="0" xMax="830" yMax="1027">
      <contour>
        <pt x="-5" y="12" on="1"/>
        <pt x="240" y="740" on="1"/>
        <pt x="585" y="740" on="1"/>
        <pt x="830" y="12" on="1"/>
        <pt x="830" y="0" on="1"/>
        <pt x="602" y="0" on="1"/>
        <pt x="555" y="148" on="1"/>
        <pt x="269" y="148" on="1"/>
        <pt x="223" y="0" on="1"/>
        <pt x="-5" y="0" on="1"/>
      </contour>
      <contour>
        <pt x="501" y="324" on="1"/>
        <pt x="473" y="412" on="1"/>
        <pt x="422" y="583" on="1"/>
        <pt x="402" y="583" on="1"/>
        <pt x="351" y="410" on="1"/>
        <pt x="324" y="324" on="1"/>
      </contour>
      <contour>
        <pt x="179" y="945" on="1"/>
        <pt x="411" y="1027" on="1"/>
        <pt x="649" y="945" on="1"/>
        <pt x="649" y="797" on="1"/>
        <pt x="414" y="878" on="1"/>
        <pt x="179" y="797" on="1"/>
      </contour>
    </TTGlyph>
    <TTGlyph name="Acircumflex.sc" xMin="-4" yMin="0" xMax="767" yMax="822">
      <contour>
        <pt x="-4" y="11" on="1"/>
        <pt x="218" y="577" on="1"/>
        <pt x="545" y="577" on="1"/>
        <pt x="767" y="11" on="1"/>
        <pt x="767" y="0" on="1"/>
        <pt x="550" y="0" on="1"/>
        <pt x="512" y="90" on="1"/>
        <pt x="250" y="90" on="1"/>
        <pt x="213" y="0" on="1"/>
        <pt x="-4" y="0" on="1"/>
      </contour>
      <contour>
        <pt x="466" y="245" on="1"/>
        <pt x="438" y="313" on="1"/>
        <pt x="390" y="429" on="1"/>
        <pt x="371" y="429" on="1"/>
        <pt x="324" y="311" on="1"/>
        <pt x="296" y="245" on="1"/>
      </contour>
      <contour>
        <pt x="163" y="755" on="1"/>
        <pt x="380" y="822" on="1"/>
        <pt x="602" y="755" on="1"/>
        <pt x="602" y="618" on="1"/>
        <pt x="383" y="684" on="1"/>
        <pt x="163" y="618" on="1"/>
      </contour>
    </TTGlyph>
    <TTGlyph name="Adblgrave" xMin="-5" yMin="0" xMax="830" yMax="1008">
      <contour>
        <pt x="-5" y="12" on="1"/>
        <pt x="240" y="740" on="1"/>
        <pt x="585" y="740" on="1"/>
        <pt x="830" y="12" on="1"/>
        <pt x="830" y="0" on="1"/>
        <pt x="602" y="0" on="1"/>
        <pt x="555" y="148" on="1"/>
        <pt x="269" y="148" on="1"/>
        <pt x="223" y="0" on="1"/>
        <pt x="-5" y="0" on="1"/>
      </contour>
      <contour>
        <pt x="501" y="324" on="1"/>
        <pt x="473" y="412" on="1"/>
        <pt x="422" y="583" on="1"/>
        <pt x="402" y="583" on="1"/>
        <pt x="351" y="410" on="1"/>
        <pt x="324" y="324" on="1"/>
      </contour>
      <contour>
        <pt x="188" y="807" on="1"/>
        <pt x="55" y="1008" on="1"/>
        <pt x="286" y="1008" on="1"/>
        <pt x="347" y="817" on="1"/>
      </contour>
      <contour>
        <pt x="440" y="807" on="1"/>
        <pt x="307" y="1008" on="1"/>
        <pt x="538" y="1008" on="1"/>
        <pt x="600" y="817" on="1"/>
      </contour>
    </TTGlyph>
    <TTGlyph name="Adblgrave.sc" xMin="-4" yMin="0" xMax="767" yMax="804">
      <contour>
        <pt x="-4" y="11" on="1"/>
        <pt x="218" y="577" on="1"/>
        <pt x="545" y="577" on="1"/>
        <pt x="767" y="11" on="1"/>
        <pt x="767" y="0" on="1"/>
        <pt x="550" y="0" on="1"/>
        <pt x="512" y="90" on="1"/>
        <pt x="250" y="90" on="1"/>
        <pt x="213" y="0" on="1"/>
        <pt x="-4" y="0" on="1"/>
      </contour>
      <contour>
        <pt x="466" y="245" on="1"/>
        <pt x="438" y="313" on="1"/>
        <pt x="390" y="429" on="1"/>
        <pt x="371" y="429" on="1"/>
        <pt x="324" y="311" on="1"/>
        <pt x="296" y="245" on="1"/>
      </contour>
      <contour>
        <pt x="45" y="804" on="1"/>
        <pt x="266" y="804" on="1"/>
        <pt x="320" y="640" on="1"/>
        <pt x="167" y="633" on="1"/>
      </contour>
      <contour>
        <pt x="280" y="804" on="1"/>
        <pt x="502" y="804" on="1"/>
        <pt x="556" y="640" on="1"/>
        <pt x="403" y="633" on="1"/>
      </contour>
    </TTGlyph>
    <TTGlyph name="Adieresis" xMin="-5" yMin="0" xMax="830" yMax="1030">
      <contour>
        <pt x="-5" y="12" on="1"/>
        <pt x="240" y="740" on="1"/>
        <pt x="585" y="740" on="1"/>
        <pt x="830" y="12" on="1"/>
        <pt x="830" y="0" on="1"/>
        <pt x="602" y="0" on="1"/>
        <pt x="555" y="148" on="1"/>
        <pt x="269" y="148" on="1"/>
        <pt x="223" y="0" on="1"/>
        <pt x="-5" y="0" on="1"/>
      </contour>
      <contour>
        <pt x="501" y="324" on="1"/>
        <pt x="473" y="412" on="1"/>
        <pt x="422" y="583" on="1"/>
        <pt x="402" y="583" on="1"/>
        <pt x="351" y="410" on="1"/>
        <pt x="324" y="324" on="1"/>
      </contour>
      <contour>
        <pt x="251" y="794" on="1"/>
        <pt x="185" y="794" on="0"/>
        <pt x="129" y="849" on="0"/>
        <pt x="129" y="912" on="1"/>
        <pt x="129" y="974" on="0"/>
        <pt x="185" y="1030" on="0"/>
        <pt x="251" y="1030" on="1"/>
        <pt x="319" y="1030" on="0"/>
        <pt x="372" y="972" on="0"/>
        <pt x="372" y="912" on="1"/>
        <pt x="372" y="852" on="0"/>
        <pt x="319" y="794" on="0"/>
      </contour>
      <contour>
        <pt x="572" y="794" on="1"/>
        <pt x="506" y="794" on="0"/>
        <pt x="451" y="849" on="0"/>
        <pt x="451" y="912" on="1"/>
        <pt x="451" y="974" on="0"/>
        <pt x="506" y="1030" on="0"/>
        <pt x="572" y="1030" on="1"/>
        <pt x="640" y="1030" on="0"/>
        <pt x="693" y="972" on="0"/>
        <pt x="693" y="912" on="1"/>
        <pt x="693" y="852" on="0"/>
        <pt x="640" y="794" on="0"/>
      </contour>
    </TTGlyph>
    <TTGlyph name="Adieresis.sc" xMin="-4" yMin="0" xMax="767" yMax="830">
      <contour>
        <pt x="233" y="612" on="1"/>
        <pt x="170" y="612" on="0"/>
        <pt x="118" y="663" on="0"/>
        <pt x="118" y="721" on="1"/>
        <pt x="118" y="778" on="0"/>
        <pt x="170" y="830" on="0"/>
        <pt x="233" y="830" on="1"/>
        <pt x="297" y="830" on="0"/>
        <pt x="347" y="775" on="0"/>
        <pt x="347" y="721" on="1"/>
        <pt x="347" y="666" on="0"/>
        <pt x="297" y="612" on="0"/>
      </contour>
      <contour>
        <pt x="528" y="612" on="1"/>
        <pt x="465" y="612" on="0"/>
        <pt x="414" y="663" on="0"/>
        <pt x="414" y="721" on="1"/>
        <pt x="414" y="778" on="0"/>
        <pt x="465" y="830" on="0"/>
        <pt x="528" y="830" on="1"/>
        <pt x="592" y="830" on="0"/>
        <pt x="642" y="775" on="0"/>
        <pt x="642" y="721" on="1"/>
        <pt x="642" y="666" on="0"/>
        <pt x="592" y="612" on="0"/>
      </contour>
      <contour>
        <pt x="-4" y="11" on="1"/>
        <pt x="218" y="577" on="1"/>
        <pt x="545" y="577" on="1"/>
        <pt x="767" y="11" on="1"/>
        <pt x="767" y="0" on="1"/>
        <pt x="550" y="0" on="1"/>
        <pt x="512" y="90" on="1"/>
        <pt x="250" y="90" on="1"/>
        <pt x="213" y="0" on="1"/>
        <pt x="-4" y="0" on="1"/>
      </contour>
      <contour>
        <pt x="466" y="245" on="1"/>
        <pt x="438" y="313" on="1"/>
        <pt x="390" y="429" on="1"/>
        <pt x="371" y="429" on="1"/>
        <pt x="324" y="311" on="1"/>
        <pt x="296" y="245" on="1"/>
      </contour>
    </TTGlyph>
    <TTGlyph name="Agrave" xMin="-5" yMin="0" xMax="830" yMax="1008">
      <contour>
        <pt x="-5" y="12" on="1"/>
        <pt x="240" y="740" on="1"/>
        <pt x="585" y="740" on="1"/>
        <pt x="830" y="12" on="1"/>
        <pt x="830" y="0" on="1"/>
        <pt x="602" y="0" on="1"/>
        <pt x="555" y="148" on="1"/>
        <pt x="269" y="148" on="1"/>
        <pt x="223" y="0" on="1"/>
        <pt x="-5" y="0" on="1"/>
      </contour>
      <contour>
        <pt x="501" y="324" on="1"/>
        <pt x="473" y="412" on="1"/>
        <pt x="422" y="583" on="1"/>
        <pt x="402" y="583" on="1"/>
        <pt x="351" y="410" on="1"/>
        <pt x="324" y="324" on="1"/>
      </contour>
      <contour>
        <pt x="307" y="807" on="1"/>
        <pt x="174" y="1008" on="1"/>
        <pt x="410" y="1008" on="1"/>
        <pt x="471" y="817" on="1"/>
      </contour>
    </TTGlyph>
    <TTGlyph name="Agrave.sc" xMin="-4" yMin="0" xMax="767" yMax="802">
      <contour>
        <pt x="-4" y="11" on="1"/>
        <pt x="218" y="577" on="1"/>
        <pt x="545" y="577" on="1"/>
        <pt x="767" y="11" on="1"/>
        <pt x="767" y="0" on="1"/>
        <pt x="550" y="0" on="1"/>
        <pt x="512" y="90" on="1"/>
        <pt x="250" y="90" on="1"/>
        <pt x="213" y="0" on="1"/>
        <pt x="-4" y="0" on="1"/>
      </contour>
      <contour>
        <pt x="466" y="245" on="1"/>
        <pt x="438" y="313" on="1"/>
        <pt x="390" y="429" on="1"/>
        <pt x="371" y="429" on="1"/>
        <pt x="324" y="311" on="1"/>
        <pt x="296" y="245" on="1"/>
      </contour>
      <contour>
        <pt x="280" y="631" on="1"/>
        <pt x="157" y="802" on="1"/>
        <pt x="381" y="802" on="1"/>
        <pt x="435" y="638" on="1"/>
      </contour>
    </TTGlyph>
    <TTGlyph name="Ainvertedbreve" xMin="-5" yMin="0" xMax="830" yMax="1016">
      <contour>
        <pt x="-5" y="12" on="1"/>
        <pt x="240" y="740" on="1"/>
        <pt x="585" y="740" on="1"/>
        <pt x="830" y="12" on="1"/>
        <pt x="830" y="0" on="1"/>
        <pt x="602" y="0" on="1"/>
        <pt x="555" y="148" on="1"/>
        <pt x="269" y="148" on="1"/>
        <pt x="223" y="0" on="1"/>
        <pt x="-5" y="0" on="1"/>
      </contour>
      <contour>
        <pt x="501" y="324" on="1"/>
        <pt x="473" y="412" on="1"/>
        <pt x="422" y="583" on="1"/>
        <pt x="402" y="583" on="1"/>
        <pt x="351" y="410" on="1"/>
        <pt x="324" y="324" on="1"/>
      </contour>
      <contour>
        <pt x="519" y="821" on="1"/>
        <pt x="519" y="842" on="0"/>
        <pt x="510" y="875" on="0"/>
        <pt x="486" y="898" on="0"/>
        <pt x="445" y="910" on="0"/>
        <pt x="412" y="910" on="1"/>
        <pt x="380" y="910" on="0"/>
        <pt x="338" y="898" on="0"/>
        <pt x="314" y="875" on="0"/>
        <pt x="305" y="842" on="0"/>
        <pt x="305" y="821" on="1"/>
        <pt x="156" y="821" on="1"/>
        <pt x="156" y="861" on="0"/>
        <pt x="180" y="932" on="0"/>
        <pt x="239" y="985" on="0"/>
        <pt x="337" y="1016" on="0"/>
        <pt x="412" y="1016" on="1"/>
        <pt x="486" y="1016" on="0"/>
        <pt x="585" y="986" on="0"/>
        <pt x="644" y="933" on="0"/>
        <pt x="668" y="862" on="0"/>
        <pt x="668" y="821" on="1"/>
      </contour>
    </TTGlyph>
    <TTGlyph name="Ainvertedbreve.sc" xMin="-4" yMin="0" xMax="767" yMax="807">
      <contour>
        <pt x="142" y="643" on="1"/>
        <pt x="142" y="675" on="0"/>
        <pt x="164" y="735" on="0"/>
        <pt x="218" y="780" on="0"/>
        <pt x="310" y="807" on="0"/>
        <pt x="381" y="807" on="1"/>
        <pt x="451" y="807" on="0"/>
        <pt x="543" y="781" on="0"/>
        <pt x="597" y="736" on="0"/>
        <pt x="619" y="677" on="0"/>
        <pt x="619" y="643" on="1"/>
        <pt x="479" y="643" on="1"/>
        <pt x="479" y="658" on="0"/>
        <pt x="471" y="683" on="0"/>
        <pt x="450" y="701" on="0"/>
        <pt x="411" y="710" on="0"/>
        <pt x="381" y="710" on="1"/>
        <pt x="351" y="710" on="0"/>
        <pt x="313" y="701" on="0"/>
        <pt x="291" y="683" on="0"/>
        <pt x="283" y="658" on="0"/>
        <pt x="283" y="643" on="1"/>
      </contour>
      <contour>
        <pt x="-4" y="11" on="1"/>
        <pt x="218" y="577" on="1"/>
        <pt x="545" y="577" on="1"/>
        <pt x="767" y="11" on="1"/>
        <pt x="767" y="0" on="1"/>
        <pt x="550" y="0" on="1"/>
        <pt x="512" y="90" on="1"/>
        <pt x="250" y="90" on="1"/>
        <pt x="213" y="0" on="1"/>
        <pt x="-4" y="0" on="1"/>
      </contour>
      <contour>
        <pt x="466" y="245" on="1"/>
        <pt x="438" y="313" on="1"/>
        <pt x="390" y="429" on="1"/>
        <pt x="371" y="429" on="1"/>
        <pt x="324" y="311" on="1"/>
        <pt x="296" y="245" on="1"/>
      </contour>
    </TTGlyph>
    <TTGlyph name="Amacron" xMin="-5" yMin="0" xMax="830" yMax="991">
      <contour>
        <pt x="-5" y="12" on="1"/>
        <pt x="240" y="740" on="1"/>
        <pt x="585" y="740" on="1"/>
        <pt x="830" y="12" on="1"/>
        <pt x="830" y="0" on="1"/>
        <pt x="602" y="0" on="1"/>
        <pt x="555" y="148" on="1"/>
        <pt x="269" y="148" on="1"/>
        <pt x="223" y="0" on="1"/>
        <pt x="-5" y="0" on="1"/>
      </contour>
      <contour>
        <pt x="501" y="324" on="1"/>
        <pt x="473" y="412" on="1"/>
        <pt x="422" y="583" on="1"/>
        <pt x="402" y="583" on="1"/>
        <pt x="351" y="410" on="1"/>
        <pt x="324" y="324" on="1"/>
      </contour>
      <contour>
        <pt x="179" y="991" on="1"/>
        <pt x="645" y="991" on="1"/>
        <pt x="645" y="843" on="1"/>
        <pt x="179" y="843" on="1"/>
      </contour>
    </TTGlyph>
    <TTGlyph name="Amacron.sc" xMin="-4" yMin="0" xMax="767" yMax="796">
      <contour>
        <pt x="-4" y="11" on="1"/>
        <pt x="218" y="577" on="1"/>
        <pt x="545" y="577" on="1"/>
        <pt x="767" y="11" on="1"/>
        <pt x="767" y="0" on="1"/>
        <pt x="550" y="0" on="1"/>
        <pt x="512" y="90" on="1"/>
        <pt x="250" y="90" on="1"/>
        <pt x="213" y="0" on="1"/>
        <pt x="-4" y="0" on="1"/>
      </contour>
      <contour>
        <pt x="466" y="245" on="1"/>
        <pt x="438" y="313" on="1"/>
        <pt x="390" y="429" on="1"/>
        <pt x="371" y="429" on="1"/>
        <pt x="324" y="311" on="1"/>
        <pt x="296" y="245" on="1"/>
      </contour>
      <contour>
        <pt x="163" y="796" on="1"/>
        <pt x="598" y="796" on="1"/>
        <pt x="598" y="658" on="1"/>
        <pt x="163" y="658" on="1"/>
      </contour>
    </TTGlyph>
    <TTGlyph name="Aogonek" xMin="-6" yMin="-220" xMax="831" yMax="740">
      <contour>
        <pt x="733" y="-220" on="1"/>
        <pt x="651" y="-220" on="0"/>
        <pt x="558" y="-169" on="0"/>
        <pt x="558" y="-124" on="1"/>
        <pt x="558" y="-108" on="0"/>
        <pt x="571" y="-72" on="0"/>
        <pt x="593" y="-39" on="0"/>
        <pt x="623" y="-10" on="0"/>
        <pt x="641" y="0" on="1"/>
        <pt x="601" y="0" on="1"/>
        <pt x="554" y="148" on="1"/>
        <pt x="268" y="148" on="1"/>
        <pt x="222" y="0" on="1"/>
        <pt x="-6" y="0" on="1"/>
        <pt x="-6" y="12" on="1"/>
        <pt x="239" y="740" on="1"/>
        <pt x="584" y="740" on="1"/>
        <pt x="829" y="12" on="1"/>
        <pt x="829" y="-5" on="1"/>
        <pt x="793" y="-19" on="0"/>
        <pt x="744" y="-40" on="0"/>
        <pt x="715" y="-59" on="0"/>
        <pt x="703" y="-76" on="0"/>
        <pt x="703" y="-85" on="1"/>
        <pt x="703" y="-105" on="0"/>
        <pt x="729" y="-105" on="1"/>
        <pt x="735" y="-105" on="0"/>
        <pt x="758" y="-102" on="0"/>
        <pt x="786" y="-98" on="0"/>
        <pt x="817" y="-91" on="0"/>
        <pt x="831" y="-88" on="1"/>
        <pt x="831" y="-208" on="1"/>
        <pt x="787" y="-220" on="0"/>
      </contour>
      <contour>
        <pt x="500" y="324" on="1"/>
        <pt x="472" y="412" on="1"/>
        <pt x="421" y="583" on="1"/>
        <pt x="401" y="583" on="1"/>
        <pt x="350" y="410" on="1"/>
        <pt x="323" y="324" on="1"/>
      </contour>
    </TTGlyph>
    <TTGlyph name="Aogonek.sc" xMin="-5" yMin="-173" xMax="768" yMax="577">
      <contour>
        <pt x="678" y="-173" on="1"/>
        <pt x="601" y="-173" on="0"/>
        <pt x="514" y="-128" on="0"/>
        <pt x="514" y="-93" on="1"/>
        <pt x="514" y="-81" on="0"/>
        <pt x="526" y="-52" on="0"/>
        <pt x="545" y="-25" on="0"/>
        <pt x="569" y="-4" on="0"/>
        <pt x="581" y="0" on="1"/>
        <pt x="549" y="0" on="1"/>
        <pt x="511" y="90" on="1"/>
        <pt x="249" y="90" on="1"/>
        <pt x="212" y="0" on="1"/>
        <pt x="-5" y="0" on="1"/>
        <pt x="-5" y="11" on="1"/>
        <pt x="217" y="577" on="1"/>
        <pt x="544" y="577" on="1"/>
        <pt x="766" y="11" on="1"/>
        <pt x="766" y="-2" on="1"/>
        <pt x="724" y="-16" on="0"/>
        <pt x="678" y="-34" on="0"/>
        <pt x="656" y="-45" on="0"/>
        <pt x="651" y="-51" on="0"/>
        <pt x="651" y="-53" on="1"/>
        <pt x="651" y="-60" on="0"/>
        <pt x="659" y="-63" on="0"/>
        <pt x="670" y="-63" on="1"/>
        <pt x="677" y="-63" on="0"/>
        <pt x="703" y="-61" on="0"/>
        <pt x="731" y="-58" on="0"/>
        <pt x="759" y="-54" on="0"/>
        <pt x="768" y="-52" on="1"/>
        <pt x="768" y="-164" on="1"/>
        <pt x="745" y="-169" on="0"/>
        <pt x="699" y="-173" on="0"/>
      </contour>
      <contour>
        <pt x="464" y="245" on="1"/>
        <pt x="437" y="313" on="1"/>
        <pt x="389" y="429" on="1"/>
        <pt x="370" y="429" on="1"/>
        <pt x="323" y="311" on="1"/>
        <pt x="294" y="245" on="1"/>
      </contour>
    </TTGlyph>
    <TTGlyph name="Aring" xMin="-5" yMin="0" xMax="830" yMax="1018">
      <contour>
        <pt x="-5" y="12" on="1"/>
        <pt x="240" y="740" on="1"/>
        <pt x="585" y="740" on="1"/>
        <pt x="830" y="12" on="1"/>
        <pt x="830" y="0" on="1"/>
        <pt x="602" y="0" on="1"/>
        <pt x="555" y="148" on="1"/>
        <pt x="269" y="148" on="1"/>
        <pt x="223" y="0" on="1"/>
        <pt x="-5" y="0" on="1"/>
      </contour>
      <contour>
        <pt x="501" y="324" on="1"/>
        <pt x="473" y="412" on="1"/>
        <pt x="422" y="583" on="1"/>
        <pt x="402" y="583" on="1"/>
        <pt x="351" y="410" on="1"/>
        <pt x="324" y="324" on="1"/>
      </contour>
      <contour>
        <pt x="413" y="780" on="1"/>
        <pt x="381" y="780" on="0"/>
        <pt x="327" y="797" on="0"/>
        <pt x="288" y="828" on="0"/>
        <pt x="265" y="871" on="0"/>
        <pt x="265" y="898" on="1"/>
        <pt x="265" y="925" on="0"/>
        <pt x="288" y="969" on="0"/>
        <pt x="327" y="1000" on="0"/>
        <pt x="381" y="1018" on="0"/>
        <pt x="413" y="1018" on="1"/>
        <pt x="445" y="1018" on="0"/>
        <pt x="499" y="1000" on="0"/>
        <pt x="539" y="969" on="0"/>
        <pt x="561" y="925" on="0"/>
        <pt x="561" y="898" on="1"/>
        <pt x="561" y="871" on="0"/>
        <pt x="539" y="828" on="0"/>
        <pt x="499" y="797" on="0"/>
        <pt x="445" y="780" on="0"/>
      </contour>
      <contour>
        <pt x="413" y="850" on="1"/>
        <pt x="450" y="850" on="0"/>
        <pt x="475" y="873" on="0"/>
        <pt x="475" y="898" on="1"/>
        <pt x="475" y="924" on="0"/>
        <pt x="450" y="947" on="0"/>
        <pt x="413" y="947" on="1"/>
        <pt x="377" y="947" on="0"/>
        <pt x="351" y="924" on="0"/>
        <pt x="351" y="898" on="1"/>
        <pt x="351" y="873" on="0"/>
        <pt x="377" y="850" on="0"/>
      </contour>
    </TTGlyph>
    <TTGlyph name="Aring.sc" xMin="-4" yMin="0" xMax="767" yMax="795">
      <contour>
        <pt x="-4" y="11" on="1"/>
        <pt x="218" y="577" on="1"/>
        <pt x="545" y="577" on="1"/>
        <pt x="767" y="11" on="1"/>
        <pt x="767" y="0" on="1"/>
        <pt x="550" y="0" on="1"/>
        <pt x="512" y="90" on="1"/>
        <pt x="250" y="90" on="1"/>
        <pt x="213" y="0" on="1"/>
        <pt x="-4" y="0" on="1"/>
      </contour>
      <contour>
        <pt x="466" y="245" on="1"/>
        <pt x="438" y="313" on="1"/>
        <pt x="390" y="429" on="1"/>
        <pt x="371" y="429" on="1"/>
        <pt x="324" y="311" on="1"/>
        <pt x="296" y="245" on="1"/>
      </contour>
      <contour>
        <pt x="382" y="604" on="1"/>
        <pt x="324" y="604" on="0"/>
        <pt x="246" y="655" on="0"/>
        <pt x="246" y="699" on="1"/>
        <pt x="246" y="720" on="0"/>
        <pt x="267" y="756" on="0"/>
        <pt x="303" y="781" on="0"/>
        <pt x="353" y="795" on="0"/>
        <pt x="382" y="795" on="1"/>
        <pt x="441" y="795" on="0"/>
        <pt x="518" y="742" on="0"/>
        <pt x="518" y="699" on="1"/>
        <pt x="518" y="655" on="0"/>
        <pt x="441" y="604" on="0"/>
      </contour>
      <contour>
        <pt x="382" y="666" on="1"/>
        <pt x="415" y="666" on="0"/>
        <pt x="437" y="682" on="0"/>
        <pt x="437" y="699" on="1"/>
        <pt x="437" y="717" on="0"/>
        <pt x="415" y="732" on="0"/>
        <pt x="382" y="732" on="1"/>
        <pt x="349" y="732" on="0"/>
        <pt x="327" y="717" on="0"/>
        <pt x="327" y="699" on="1"/>
        <pt x="327" y="682" on="0"/>
        <pt x="349" y="666" on="0"/>
      </contour>
    </TTGlyph>
    <TTGlyph name="Aringacute" xMin="-5" yMin="0" xMax="830" yMax="1030">
      <contour>
        <pt x="-5" y="12" on="1"/>
        <pt x="220" y="683" on="1"/>
        <pt x="196" y="716" on="0"/>
        <pt x="196" y="760" on="1"/>
        <pt x="196" y="817" on="0"/>
        <pt x="277" y="895" on="0"/>
        <pt x="348" y="909" on="1"/>
        <pt x="387" y="1030" on="1"/>
        <pt x="622" y="1030" on="1"/>
        <pt x="533" y="895" on="1"/>
        <pt x="582" y="875" on="0"/>
        <pt x="638" y="806" on="0"/>
        <pt x="638" y="760" on="1"/>
        <pt x="638" y="713" on="0"/>
        <pt x="606" y="675" on="1"/>
        <pt x="830" y="12" on="1"/>
        <pt x="830" y="0" on="1"/>
        <pt x="602" y="0" on="1"/>
        <pt x="557" y="142" on="1"/>
        <pt x="267" y="142" on="1"/>
        <pt x="223" y="0" on="1"/>
        <pt x="-5" y="0" on="1"/>
      </contour>
      <contour>
        <pt x="414" y="704" on="1"/>
        <pt x="455" y="704" on="0"/>
        <pt x="504" y="735" on="0"/>
        <pt x="504" y="760" on="1"/>
        <pt x="504" y="786" on="0"/>
        <pt x="455" y="816" on="0"/>
        <pt x="414" y="816" on="1"/>
        <pt x="376" y="816" on="0"/>
        <pt x="330" y="786" on="0"/>
        <pt x="330" y="760" on="1"/>
        <pt x="330" y="734" on="0"/>
        <pt x="376" y="704" on="0"/>
      </contour>
      <contour>
        <pt x="499" y="328" on="1"/>
        <pt x="473" y="412" on="1"/>
        <pt x="422" y="583" on="1"/>
        <pt x="402" y="583" on="1"/>
        <pt x="351" y="410" on="1"/>
        <pt x="325" y="328" on="1"/>
      </contour>
    </TTGlyph>
    <TTGlyph name="Aringacute.sc" xMin="-4" yMin="0" xMax="767" yMax="816">
      <contour>
        <pt x="-4" y="11" on="1"/>
        <pt x="200" y="537" on="1"/>
        <pt x="180" y="563" on="0"/>
        <pt x="180" y="594" on="1"/>
        <pt x="180" y="642" on="0"/>
        <pt x="254" y="706" on="0"/>
        <pt x="320" y="718" on="1"/>
        <pt x="354" y="816" on="1"/>
        <pt x="577" y="816" on="1"/>
        <pt x="496" y="705" on="1"/>
        <pt x="541" y="688" on="0"/>
        <pt x="593" y="631" on="0"/>
        <pt x="593" y="594" on="1"/>
        <pt x="593" y="560" on="0"/>
        <pt x="564" y="528" on="1"/>
        <pt x="767" y="11" on="1"/>
        <pt x="767" y="0" on="1"/>
        <pt x="550" y="0" on="1"/>
        <pt x="512" y="90" on="1"/>
        <pt x="250" y="90" on="1"/>
        <pt x="213" y="0" on="1"/>
        <pt x="-4" y="0" on="1"/>
      </contour>
      <contour>
        <pt x="383" y="554" on="1"/>
        <pt x="421" y="554" on="0"/>
        <pt x="466" y="577" on="0"/>
        <pt x="466" y="594" on="1"/>
        <pt x="466" y="612" on="0"/>
        <pt x="421" y="634" on="0"/>
        <pt x="383" y="634" on="1"/>
        <pt x="348" y="634" on="0"/>
        <pt x="307" y="612" on="0"/>
        <pt x="307" y="594" on="1"/>
        <pt x="307" y="576" on="0"/>
        <pt x="349" y="554" on="0"/>
      </contour>
      <contour>
        <pt x="468" y="245" on="1"/>
        <pt x="438" y="313" on="1"/>
        <pt x="389" y="441" on="1"/>
        <pt x="373" y="441" on="1"/>
        <pt x="324" y="311" on="1"/>
        <pt x="298" y="245" on="1"/>
      </contour>
    </TTGlyph>
    <TTGlyph name="Atilde" xMin="-5" yMin="0" xMax="830" yMax="1011">
      <contour>
        <pt x="-5" y="12" on="1"/>
        <pt x="240" y="740" on="1"/>
        <pt x="585" y="740" on="1"/>
        <pt x="830" y="12" on="1"/>
        <pt x="830" y="0" on="1"/>
        <pt x="602" y="0" on="1"/>
        <pt x="555" y="148" on="1"/>
        <pt x="269" y="148" on="1"/>
        <pt x="223" y="0" on="1"/>
        <pt x="-5" y="0" on="1"/>
      </contour>
      <contour>
        <pt x="501" y="324" on="1"/>
        <pt x="473" y="412" on="1"/>
        <pt x="422" y="583" on="1"/>
        <pt x="402" y="583" on="1"/>
        <pt x="351" y="410" on="1"/>
        <pt x="324" y="324" on="1"/>
      </contour>
      <contour>
        <pt x="141" y="861" on="1"/>
        <pt x="179" y="936" on="0"/>
        <pt x="281" y="1011" on="0"/>
        <pt x="327" y="1011" on="1"/>
        <pt x="356" y="1011" on="0"/>
        <pt x="414" y="1000" on="0"/>
        <pt x="471" y="986" on="0"/>
        <pt x="529" y="975" on="0"/>
        <pt x="558" y="975" on="1"/>
        <pt x="582" y="975" on="0"/>
        <pt x="629" y="988" on="0"/>
        <pt x="663" y="1011" on="1"/>
        <pt x="686" y="973" on="1"/>
        <pt x="646" y="898" on="0"/>
        <pt x="545" y="823" on="0"/>
        <pt x="501" y="823" on="1"/>
        <pt x="472" y="823" on="0"/>
        <pt x="414" y="834" on="0"/>
        <pt x="356" y="848" on="0"/>
        <pt x="298" y="859" on="0"/>
        <pt x="269" y="859" on="1"/>
        <pt x="243" y="859" on="0"/>
        <pt x="196" y="846" on="0"/>
        <pt x="165" y="823" on="1"/>
      </contour>
    </TTGlyph>
    <TTGlyph name="Atilde.sc" xMin="-4" yMin="0" xMax="767" yMax="810">
      <contour>
        <pt x="-4" y="11" on="1"/>
        <pt x="218" y="577" on="1"/>
        <pt x="545" y="577" on="1"/>
        <pt x="767" y="11" on="1"/>
        <pt x="767" y="0" on="1"/>
        <pt x="550" y="0" on="1"/>
        <pt x="512" y="90" on="1"/>
        <pt x="250" y="90" on="1"/>
        <pt x="213" y="0" on="1"/>
        <pt x="-4" y="0" on="1"/>
      </contour>
      <contour>
        <pt x="466" y="245" on="1"/>
        <pt x="438" y="313" on="1"/>
        <pt x="390" y="429" on="1"/>
        <pt x="371" y="429" on="1"/>
        <pt x="324" y="311" on="1"/>
        <pt x="296" y="245" on="1"/>
      </contour>
      <contour>
        <pt x="128" y="672" on="1"/>
        <pt x="163" y="740" on="0"/>
        <pt x="258" y="809" on="0"/>
        <pt x="301" y="809" on="1"/>
        <pt x="328" y="809" on="0"/>
        <pt x="382" y="801" on="0"/>
        <pt x="435" y="791" on="0"/>
        <pt x="489" y="783" on="0"/>
        <pt x="516" y="783" on="1"/>
        <pt x="538" y="783" on="0"/>
        <pt x="581" y="792" on="0"/>
        <pt x="613" y="810" on="1"/>
        <pt x="633" y="777" on="1"/>
        <pt x="596" y="708" on="0"/>
        <pt x="502" y="640" on="0"/>
        <pt x="462" y="640" on="1"/>
        <pt x="435" y="640" on="0"/>
        <pt x="380" y="648" on="0"/>
        <pt x="326" y="659" on="0"/>
        <pt x="272" y="667" on="0"/>
        <pt x="245" y="667" on="1"/>
        <pt x="222" y="667" on="0"/>
        <pt x="179" y="657" on="0"/>
        <pt x="150" y="639" on="1"/>
      </contour>
    </TTGlyph>
    <TTGlyph name="B" xMin="65" yMin="-10" xMax="766" yMax="750">
      <contour>
        <pt x="432" y="-10" on="1"/>
        <pt x="339" y="-10" on="0"/>
        <pt x="165" y="-3" on="0"/>
        <pt x="65" y="5" on="1"/>
        <pt x="65" y="735" on="1"/>
        <pt x="150" y="743" on="0"/>
        <pt x="306" y="750" on="0"/>
        <pt x="385" y="750" on="1"/>
        <pt x="569" y="750" on="0"/>
        <pt x="741" y="647" on="0"/>
        <pt x="741" y="537" on="1"/>
        <pt x="741" y="419" on="0"/>
        <pt x="606" y="383" on="1"/>
        <pt x="606" y="379" on="1"/>
        <pt x="684" y="365" on="0"/>
        <pt x="766" y="275" on="0"/>
        <pt x="766" y="205" on="1"/>
        <pt x="766" y="93" on="0"/>
        <pt x="605" y="-10" on="0"/>
      </contour>
      <contour>
        <pt x="416" y="149" on="1"/>
        <pt x="478" y="149" on="0"/>
        <pt x="534" y="188" on="0"/>
        <pt x="534" y="230" on="1"/>
        <pt x="534" y="270" on="0"/>
        <pt x="481" y="303" on="0"/>
        <pt x="416" y="303" on="1"/>
        <pt x="290" y="303" on="1"/>
        <pt x="290" y="152" on="1"/>
        <pt x="297" y="151" on="0"/>
        <pt x="311" y="150" on="0"/>
        <pt x="337" y="149" on="0"/>
        <pt x="380" y="149" on="0"/>
      </contour>
      <contour>
        <pt x="395" y="447" on="1"/>
        <pt x="459" y="447" on="0"/>
        <pt x="510" y="479" on="0"/>
        <pt x="510" y="520" on="1"/>
        <pt x="510" y="560" on="0"/>
        <pt x="459" y="592" on="0"/>
        <pt x="395" y="592" on="1"/>
        <pt x="364" y="592" on="0"/>
        <pt x="310" y="589" on="0"/>
        <pt x="290" y="586" on="1"/>
        <pt x="290" y="447" on="1"/>
      </contour>
    </TTGlyph>
    <TTGlyph name="B.sc" xMin="62" yMin="-8" xMax="712" yMax="585">
      <contour>
        <pt x="410" y="-8" on="1"/>
        <pt x="321" y="-8" on="0"/>
        <pt x="157" y="-2" on="0"/>
        <pt x="62" y="4" on="1"/>
        <pt x="62" y="573" on="1"/>
        <pt x="140" y="579" on="0"/>
        <pt x="287" y="585" on="0"/>
        <pt x="362" y="585" on="1"/>
        <pt x="531" y="585" on="0"/>
        <pt x="689" y="503" on="0"/>
        <pt x="689" y="416" on="1"/>
        <pt x="689" y="371" on="0"/>
        <pt x="629" y="316" on="0"/>
        <pt x="566" y="300" on="1"/>
        <pt x="566" y="297" on="1"/>
        <pt x="637" y="286" on="0"/>
        <pt x="712" y="217" on="0"/>
        <pt x="712" y="163" on="1"/>
        <pt x="712" y="73" on="0"/>
        <pt x="567" y="-8" on="0"/>
      </contour>
      <contour>
        <pt x="392" y="135" on="1"/>
        <pt x="445" y="135" on="0"/>
        <pt x="493" y="159" on="0"/>
        <pt x="493" y="188" on="1"/>
        <pt x="493" y="214" on="0"/>
        <pt x="447" y="231" on="0"/>
        <pt x="390" y="231" on="1"/>
        <pt x="276" y="231" on="1"/>
        <pt x="276" y="136" on="1"/>
        <pt x="282" y="135" on="0"/>
        <pt x="294" y="135" on="0"/>
        <pt x="317" y="135" on="0"/>
        <pt x="357" y="135" on="0"/>
      </contour>
      <contour>
        <pt x="369" y="354" on="1"/>
        <pt x="426" y="354" on="0"/>
        <pt x="471" y="373" on="0"/>
        <pt x="471" y="399" on="1"/>
        <pt x="471" y="424" on="0"/>
        <pt x="427" y="443" on="0"/>
        <pt x="370" y="443" on="1"/>
        <pt x="342" y="443" on="0"/>
        <pt x="294" y="442" on="0"/>
        <pt x="276" y="439" on="1"/>
        <pt x="276" y="354" on="1"/>
      </contour>
    </TTGlyph>
    <TTGlyph name="C" xMin="33" yMin="-15" xMax="619" yMax="755">
      <contour>
        <pt x="457" y="-15" on="1"/>
        <pt x="240" y="-15" on="0"/>
        <pt x="33" y="172" on="0"/>
        <pt x="33" y="369" on="1"/>
        <pt x="33" y="565" on="0"/>
        <pt x="230" y="755" on="0"/>
        <pt x="433" y="755" on="1"/>
        <pt x="468" y="755" on="0"/>
        <pt x="552" y="749" on="0"/>
        <pt x="619" y="742" on="1"/>
        <pt x="619" y="556" on="1"/>
        <pt x="581" y="559" on="0"/>
        <pt x="532" y="563" on="0"/>
        <pt x="499" y="565" on="0"/>
        <pt x="474" y="566" on="0"/>
        <pt x="461" y="566" on="1"/>
        <pt x="402" y="566" on="0"/>
        <pt x="329" y="551" on="0"/>
        <pt x="289" y="509" on="0"/>
        <pt x="275" y="432" on="0"/>
        <pt x="275" y="369" on="1"/>
        <pt x="275" y="309" on="0"/>
        <pt x="289" y="233" on="0"/>
        <pt x="330" y="190" on="0"/>
        <pt x="402" y="175" on="0"/>
        <pt x="459" y="175" on="1"/>
        <pt x="475" y="175" on="0"/>
        <pt x="520" y="177" on="0"/>
        <pt x="566" y="180" on="0"/>
        <pt x="607" y="185" on="0"/>
        <pt x="619" y="187" on="1"/>
        <pt x="619" y="0" on="1"/>
        <pt x="535" y="-15" on="0"/>
      </contour>
    </TTGlyph>
    <TTGlyph name="C.sc" xMin="33" yMin="-14" xMax="572" yMax="590">
      <contour>
        <pt x="427" y="-14" on="1"/>
        <pt x="223" y="-14" on="0"/>
        <pt x="33" y="132" on="0"/>
        <pt x="33" y="288" on="1"/>
        <pt x="33" y="443" on="0"/>
        <pt x="213" y="590" on="0"/>
        <pt x="402" y="590" on="1"/>
        <pt x="442" y="590" on="0"/>
        <pt x="520" y="587" on="0"/>
        <pt x="572" y="582" on="1"/>
        <pt x="572" y="407" on="1"/>
        <pt x="546" y="408" on="0"/>
        <pt x="510" y="410" on="0"/>
        <pt x="479" y="412" on="0"/>
        <pt x="449" y="412" on="0"/>
        <pt x="429" y="412" on="1"/>
        <pt x="372" y="412" on="0"/>
        <pt x="306" y="405" on="0"/>
        <pt x="272" y="380" on="0"/>
        <pt x="263" y="330" on="0"/>
        <pt x="263" y="288" on="1"/>
        <pt x="263" y="247" on="0"/>
        <pt x="273" y="199" on="0"/>
        <pt x="307" y="173" on="0"/>
        <pt x="372" y="166" on="0"/>
        <pt x="427" y="166" on="1"/>
        <pt x="442" y="166" on="0"/>
        <pt x="484" y="167" on="0"/>
        <pt x="525" y="169" on="0"/>
        <pt x="561" y="171" on="0"/>
        <pt x="572" y="172" on="1"/>
        <pt x="572" y="-5" on="1"/>
        <pt x="537" y="-10" on="0"/>
        <pt x="467" y="-14" on="0"/>
      </contour>
    </TTGlyph>
    <TTGlyph name="Cacute" xMin="33" yMin="-15" xMax="619" yMax="1008">
      <contour>
        <pt x="457" y="-15" on="1"/>
        <pt x="240" y="-15" on="0"/>
        <pt x="33" y="172" on="0"/>
        <pt x="33" y="369" on="1"/>
        <pt x="33" y="565" on="0"/>
        <pt x="230" y="755" on="0"/>
        <pt x="433" y="755" on="1"/>
        <pt x="468" y="755" on="0"/>
        <pt x="552" y="749" on="0"/>
        <pt x="619" y="742" on="1"/>
        <pt x="619" y="556" on="1"/>
        <pt x="581" y="559" on="0"/>
        <pt x="532" y="563" on="0"/>
        <pt x="499" y="565" on="0"/>
        <pt x="474" y="566" on="0"/>
        <pt x="461" y="566" on="1"/>
        <pt x="402" y="566" on="0"/>
        <pt x="329" y="551" on="0"/>
        <pt x="289" y="509" on="0"/>
        <pt x="275" y="432" on="0"/>
        <pt x="275" y="369" on="1"/>
        <pt x="275" y="309" on="0"/>
        <pt x="289" y="233" on="0"/>
        <pt x="330" y="190" on="0"/>
        <pt x="402" y="175" on="0"/>
        <pt x="459" y="175" on="1"/>
        <pt x="475" y="175" on="0"/>
        <pt x="520" y="177" on="0"/>
        <pt x="566" y="180" on="0"/>
        <pt x="607" y="185" on="0"/>
        <pt x="619" y="187" on="1"/>
        <pt x="619" y="0" on="1"/>
        <pt x="535" y="-15" on="0"/>
      </contour>
      <contour>
        <pt x="275" y="817" on="1"/>
        <pt x="337" y="1008" on="1"/>
        <pt x="572" y="1008" on="1"/>
        <pt x="440" y="807" on="1"/>
      </contour>
    </TTGlyph>
    <TTGlyph name="Cacute.sc" xMin="32" yMin="-14" xMax="571" yMax="802">
      <contour>
        <pt x="426" y="-14" on="1"/>
        <pt x="223" y="-14" on="0"/>
        <pt x="32" y="132" on="0"/>
        <pt x="32" y="288" on="1"/>
        <pt x="32" y="442" on="0"/>
        <pt x="213" y="590" on="0"/>
        <pt x="401" y="590" on="1"/>
        <pt x="432" y="590" on="0"/>
        <pt x="508" y="587" on="0"/>
        <pt x="571" y="582" on="1"/>
        <pt x="571" y="407" on="1"/>
        <pt x="535" y="409" on="0"/>
        <pt x="490" y="411" on="0"/>
        <pt x="460" y="412" on="0"/>
        <pt x="440" y="412" on="0"/>
        <pt x="428" y="412" on="1"/>
        <pt x="374" y="412" on="0"/>
        <pt x="309" y="407" on="0"/>
        <pt x="273" y="383" on="0"/>
        <pt x="262" y="333" on="0"/>
        <pt x="262" y="288" on="1"/>
        <pt x="262" y="245" on="0"/>
        <pt x="274" y="196" on="0"/>
        <pt x="309" y="172" on="0"/>
        <pt x="373" y="166" on="0"/>
        <pt x="426" y="166" on="1"/>
        <pt x="441" y="166" on="0"/>
        <pt x="481" y="167" on="0"/>
        <pt x="523" y="169" on="0"/>
        <pt x="560" y="171" on="0"/>
        <pt x="571" y="172" on="1"/>
        <pt x="571" y="-5" on="1"/>
        <pt x="532" y="-10" on="0"/>
        <pt x="461" y="-14" on="0"/>
      </contour>
      <contour>
        <pt x="252" y="640" on="1"/>
        <pt x="307" y="802" on="1"/>
        <pt x="530" y="802" on="1"/>
        <pt x="408" y="631" on="1"/>
      </contour>
    </TTGlyph>
    <TTGlyph name="Ccaron" xMin="33" yMin="-15" xMax="619" yMax="1027">
      <contour>
        <pt x="457" y="-15" on="1"/>
        <pt x="240" y="-15" on="0"/>
        <pt x="33" y="172" on="0"/>
        <pt x="33" y="369" on="1"/>
        <pt x="33" y="565" on="0"/>
        <pt x="230" y="755" on="0"/>
        <pt x="433" y="755" on="1"/>
        <pt x="468" y="755" on="0"/>
        <pt x="552" y="749" on="0"/>
        <pt x="619" y="742" on="1"/>
        <pt x="619" y="556" on="1"/>
        <pt x="581" y="559" on="0"/>
        <pt x="532" y="563" on="0"/>
        <pt x="499" y="565" on="0"/>
        <pt x="474" y="566" on="0"/>
        <pt x="461" y="566" on="1"/>
        <pt x="402" y="566" on="0"/>
        <pt x="329" y="551" on="0"/>
        <pt x="289" y="509" on="0"/>
        <pt x="275" y="432" on="0"/>
        <pt x="275" y="369" on="1"/>
        <pt x="275" y="309" on="0"/>
        <pt x="289" y="233" on="0"/>
        <pt x="330" y="190" on="0"/>
        <pt x="402" y="175" on="0"/>
        <pt x="459" y="175" on="1"/>
        <pt x="475" y="175" on="0"/>
        <pt x="520" y="177" on="0"/>
        <pt x="566" y="180" on="0"/>
        <pt x="607" y="185" on="0"/>
        <pt x="619" y="187" on="1"/>
        <pt x="619" y="0" on="1"/>
        <pt x="535" y="-15" on="0"/>
      </contour>
      <contour>
        <pt x="131" y="1027" on="1"/>
        <pt x="366" y="945" on="1"/>
        <pt x="601" y="1027" on="1"/>
        <pt x="601" y="878" on="1"/>
        <pt x="363" y="797" on="1"/>
        <pt x="131" y="878" on="1"/>
      </contour>
    </TTGlyph>
    <TTGlyph name="Ccaron.sc" xMin="32" yMin="-14" xMax="571" yMax="822">
      <contour>
        <pt x="426" y="-14" on="1"/>
        <pt x="223" y="-14" on="0"/>
        <pt x="32" y="132" on="0"/>
        <pt x="32" y="288" on="1"/>
        <pt x="32" y="442" on="0"/>
        <pt x="213" y="590" on="0"/>
        <pt x="401" y="590" on="1"/>
        <pt x="432" y="590" on="0"/>
        <pt x="508" y="587" on="0"/>
        <pt x="571" y="582" on="1"/>
        <pt x="571" y="407" on="1"/>
        <pt x="535" y="409" on="0"/>
        <pt x="490" y="411" on="0"/>
        <pt x="460" y="412" on="0"/>
        <pt x="440" y="412" on="0"/>
        <pt x="428" y="412" on="1"/>
        <pt x="374" y="412" on="0"/>
        <pt x="309" y="407" on="0"/>
        <pt x="273" y="383" on="0"/>
        <pt x="262" y="333" on="0"/>
        <pt x="262" y="288" on="1"/>
        <pt x="262" y="245" on="0"/>
        <pt x="274" y="196" on="0"/>
        <pt x="309" y="172" on="0"/>
        <pt x="373" y="166" on="0"/>
        <pt x="426" y="166" on="1"/>
        <pt x="441" y="166" on="0"/>
        <pt x="481" y="167" on="0"/>
        <pt x="523" y="169" on="0"/>
        <pt x="560" y="171" on="0"/>
        <pt x="571" y="172" on="1"/>
        <pt x="571" y="-5" on="1"/>
        <pt x="532" y="-10" on="0"/>
        <pt x="461" y="-14" on="0"/>
      </contour>
      <contour>
        <pt x="118" y="822" on="1"/>
        <pt x="337" y="755" on="1"/>
        <pt x="556" y="822" on="1"/>
        <pt x="556" y="684" on="1"/>
        <pt x="334" y="618" on="1"/>
        <pt x="118" y="684" on="1"/>
      </contour>
    </TTGlyph>
    <TTGlyph name="Ccedilla" xMin="33" yMin="-220" xMax="619" yMax="755">
      <contour>
        <pt x="379" y="-220" on="1"/>
        <pt x="353" y="-220" on="0"/>
        <pt x="289" y="-212" on="0"/>
        <pt x="257" y="-208" on="1"/>
        <pt x="257" y="-80" on="1"/>
        <pt x="279" y="-85" on="0"/>
        <pt x="331" y="-93" on="0"/>
        <pt x="351" y="-93" on="1"/>
        <pt x="367" y="-93" on="0"/>
        <pt x="376" y="-84" on="0"/>
        <pt x="376" y="-79" on="1"/>
        <pt x="376" y="-69" on="0"/>
        <pt x="359" y="-32" on="0"/>
        <pt x="339" y="-6" on="1"/>
        <pt x="182" y="17" on="0"/>
        <pt x="33" y="201" on="0"/>
        <pt x="33" y="369" on="1"/>
        <pt x="33" y="565" on="0"/>
        <pt x="230" y="755" on="0"/>
        <pt x="433" y="755" on="1"/>
        <pt x="468" y="755" on="0"/>
        <pt x="552" y="749" on="0"/>
        <pt x="619" y="742" on="1"/>
        <pt x="619" y="556" on="1"/>
        <pt x="581" y="559" on="0"/>
        <pt x="532" y="563" on="0"/>
        <pt x="499" y="565" on="0"/>
        <pt x="474" y="566" on="0"/>
        <pt x="461" y="566" on="1"/>
        <pt x="402" y="566" on="0"/>
        <pt x="329" y="551" on="0"/>
        <pt x="289" y="509" on="0"/>
        <pt x="275" y="432" on="0"/>
        <pt x="275" y="369" on="1"/>
        <pt x="275" y="309" on="0"/>
        <pt x="289" y="233" on="0"/>
        <pt x="330" y="190" on="0"/>
        <pt x="402" y="175" on="0"/>
        <pt x="459" y="175" on="1"/>
        <pt x="475" y="175" on="0"/>
        <pt x="520" y="177" on="0"/>
        <pt x="566" y="180" on="0"/>
        <pt x="607" y="185" on="0"/>
        <pt x="619" y="187" on="1"/>
        <pt x="619" y="0" on="1"/>
        <pt x="547" y="-12" on="0"/>
        <pt x="480" y="-15" on="1"/>
        <pt x="503" y="-43" on="0"/>
        <pt x="520" y="-85" on="0"/>
        <pt x="520" y="-107" on="1"/>
        <pt x="520" y="-161" on="0"/>
        <pt x="443" y="-220" on="0"/>
      </contour>
    </TTGlyph>
    <TTGlyph name="Ccedilla.sc" xMin="33" yMin="-172" xMax="572" yMax="590">
      <contour>
        <pt x="355" y="-172" on="1"/>
        <pt x="330" y="-172" on="0"/>
        <pt x="271" y="-164" on="0"/>
        <pt x="242" y="-162" on="1"/>
        <pt x="242" y="-44" on="1"/>
        <pt x="262" y="-48" on="0"/>
        <pt x="310" y="-55" on="0"/>
        <pt x="330" y="-55" on="1"/>
        <pt x="342" y="-55" on="0"/>
        <pt x="349" y="-47" on="0"/>
        <pt x="349" y="-39" on="1"/>
        <pt x="349" y="-31" on="0"/>
        <pt x="339" y="-19" on="0"/>
        <pt x="322" y="-8" on="1"/>
        <pt x="174" y="8" on="0"/>
        <pt x="33" y="154" on="0"/>
        <pt x="33" y="288" on="1"/>
        <pt x="33" y="442" on="0"/>
        <pt x="214" y="590" on="0"/>
        <pt x="402" y="590" on="1"/>
        <pt x="433" y="590" on="0"/>
        <pt x="509" y="587" on="0"/>
        <pt x="572" y="582" on="1"/>
        <pt x="572" y="407" on="1"/>
        <pt x="536" y="409" on="0"/>
        <pt x="491" y="412" on="0"/>
        <pt x="461" y="413" on="0"/>
        <pt x="441" y="413" on="0"/>
        <pt x="429" y="413" on="1"/>
        <pt x="375" y="413" on="0"/>
        <pt x="310" y="407" on="0"/>
        <pt x="274" y="383" on="0"/>
        <pt x="263" y="333" on="0"/>
        <pt x="263" y="288" on="1"/>
        <pt x="263" y="245" on="0"/>
        <pt x="275" y="196" on="0"/>
        <pt x="310" y="172" on="0"/>
        <pt x="374" y="166" on="0"/>
        <pt x="427" y="166" on="1"/>
        <pt x="442" y="166" on="0"/>
        <pt x="482" y="167" on="0"/>
        <pt x="524" y="169" on="0"/>
        <pt x="561" y="171" on="0"/>
        <pt x="572" y="172" on="1"/>
        <pt x="572" y="-5" on="1"/>
        <pt x="509" y="-13" on="0"/>
        <pt x="453" y="-14" on="1"/>
        <pt x="471" y="-34" on="0"/>
        <pt x="484" y="-67" on="0"/>
        <pt x="484" y="-84" on="1"/>
        <pt x="484" y="-126" on="0"/>
        <pt x="413" y="-172" on="0"/>
      </contour>
    </TTGlyph>
    <TTGlyph name="Ccircumflex" xMin="33" yMin="-15" xMax="619" yMax="1027">
      <contour>
        <pt x="457" y="-15" on="1"/>
        <pt x="240" y="-15" on="0"/>
        <pt x="33" y="172" on="0"/>
        <pt x="33" y="369" on="1"/>
        <pt x="33" y="565" on="0"/>
        <pt x="230" y="755" on="0"/>
        <pt x="433" y="755" on="1"/>
        <pt x="468" y="755" on="0"/>
        <pt x="552" y="749" on="0"/>
        <pt x="619" y="742" on="1"/>
        <pt x="619" y="556" on="1"/>
        <pt x="581" y="559" on="0"/>
        <pt x="532" y="563" on="0"/>
        <pt x="499" y="565" on="0"/>
        <pt x="474" y="566" on="0"/>
        <pt x="461" y="566" on="1"/>
        <pt x="402" y="566" on="0"/>
        <pt x="329" y="551" on="0"/>
        <pt x="289" y="509" on="0"/>
        <pt x="275" y="432" on="0"/>
        <pt x="275" y="369" on="1"/>
        <pt x="275" y="309" on="0"/>
        <pt x="289" y="233" on="0"/>
        <pt x="330" y="190" on="0"/>
        <pt x="402" y="175" on="0"/>
        <pt x="459" y="175" on="1"/>
        <pt x="475" y="175" on="0"/>
        <pt x="520" y="177" on="0"/>
        <pt x="566" y="180" on="0"/>
        <pt x="607" y="185" on="0"/>
        <pt x="619" y="187" on="1"/>
        <pt x="619" y="0" on="1"/>
        <pt x="535" y="-15" on="0"/>
      </contour>
      <contour>
        <pt x="128" y="945" on="1"/>
        <pt x="360" y="1027" on="1"/>
        <pt x="598" y="945" on="1"/>
        <pt x="598" y="797" on="1"/>
        <pt x="363" y="878" on="1"/>
        <pt x="128" y="797" on="1"/>
      </contour>
    </TTGlyph>
    <TTGlyph name="Ccircumflex.sc" xMin="32" yMin="-14" xMax="571" yMax="822">
      <contour>
        <pt x="426" y="-14" on="1"/>
        <pt x="223" y="-14" on="0"/>
        <pt x="32" y="132" on="0"/>
        <pt x="32" y="288" on="1"/>
        <pt x="32" y="442" on="0"/>
        <pt x="213" y="590" on="0"/>
        <pt x="401" y="590" on="1"/>
        <pt x="432" y="590" on="0"/>
        <pt x="508" y="587" on="0"/>
        <pt x="571" y="582" on="1"/>
        <pt x="571" y="407" on="1"/>
        <pt x="535" y="409" on="0"/>
        <pt x="490" y="411" on="0"/>
        <pt x="460" y="412" on="0"/>
        <pt x="440" y="412" on="0"/>
        <pt x="428" y="412" on="1"/>
        <pt x="374" y="412" on="0"/>
        <pt x="309" y="407" on="0"/>
        <pt x="273" y="383" on="0"/>
        <pt x="262" y="333" on="0"/>
        <pt x="262" y="288" on="1"/>
        <pt x="262" y="245" on="0"/>
        <pt x="274" y="196" on="0"/>
        <pt x="309" y="172" on="0"/>
        <pt x="373" y="166" on="0"/>
        <pt x="426" y="166" on="1"/>
        <pt x="441" y="166" on="0"/>
        <pt x="481" y="167" on="0"/>
        <pt x="523" y="169" on="0"/>
        <pt x="560" y="171" on="0"/>
        <pt x="571" y="172" on="1"/>
        <pt x="571" y="-5" on="1"/>
        <pt x="532" y="-10" on="0"/>
        <pt x="461" y="-14" on="0"/>
      </contour>
      <contour>
        <pt x="116" y="755" on="1"/>
        <pt x="332" y="822" on="1"/>
        <pt x="554" y="755" on="1"/>
        <pt x="554" y="618" on="1"/>
        <pt x="335" y="684" on="1"/>
        <pt x="116" y="618" on="1"/>
      </contour>
    </TTGlyph>
    <TTGlyph name="Cdotaccent" xMin="33" yMin="-15" xMax="619" yMax="1030">
      <contour>
        <pt x="392" y="794" on="1"/>
        <pt x="326" y="794" on="0"/>
        <pt x="270" y="849" on="0"/>
        <pt x="270" y="912" on="1"/>
        <pt x="270" y="974" on="0"/>
        <pt x="326" y="1030" on="0"/>
        <pt x="392" y="1030" on="1"/>
        <pt x="460" y="1030" on="0"/>
        <pt x="513" y="972" on="0"/>
        <pt x="513" y="912" on="1"/>
        <pt x="513" y="852" on="0"/>
        <pt x="460" y="794" on="0"/>
      </contour>
      <contour>
        <pt x="457" y="-15" on="1"/>
        <pt x="240" y="-15" on="0"/>
        <pt x="33" y="172" on="0"/>
        <pt x="33" y="369" on="1"/>
        <pt x="33" y="565" on="0"/>
        <pt x="230" y="755" on="0"/>
        <pt x="433" y="755" on="1"/>
        <pt x="468" y="755" on="0"/>
        <pt x="552" y="749" on="0"/>
        <pt x="619" y="742" on="1"/>
        <pt x="619" y="556" on="1"/>
        <pt x="581" y="559" on="0"/>
        <pt x="532" y="563" on="0"/>
        <pt x="499" y="565" on="0"/>
        <pt x="474" y="566" on="0"/>
        <pt x="461" y="566" on="1"/>
        <pt x="402" y="566" on="0"/>
        <pt x="329" y="551" on="0"/>
        <pt x="289" y="509" on="0"/>
        <pt x="275" y="432" on="0"/>
        <pt x="275" y="369" on="1"/>
        <pt x="275" y="309" on="0"/>
        <pt x="289" y="233" on="0"/>
        <pt x="330" y="190" on="0"/>
        <pt x="402" y="175" on="0"/>
        <pt x="459" y="175" on="1"/>
        <pt x="475" y="175" on="0"/>
        <pt x="520" y="177" on="0"/>
        <pt x="566" y="180" on="0"/>
        <pt x="607" y="185" on="0"/>
        <pt x="619" y="187" on="1"/>
        <pt x="619" y="0" on="1"/>
        <pt x="535" y="-15" on="0"/>
      </contour>
    </TTGlyph>
    <TTGlyph name="Cdotaccent.sc" xMin="32" yMin="-14" xMax="571" yMax="831">
      <contour>
        <pt x="426" y="-14" on="1"/>
        <pt x="223" y="-14" on="0"/>
        <pt x="32" y="132" on="0"/>
        <pt x="32" y="288" on="1"/>
        <pt x="32" y="442" on="0"/>
        <pt x="213" y="590" on="0"/>
        <pt x="401" y="590" on="1"/>
        <pt x="432" y="590" on="0"/>
        <pt x="508" y="587" on="0"/>
        <pt x="571" y="582" on="1"/>
        <pt x="571" y="407" on="1"/>
        <pt x="535" y="409" on="0"/>
        <pt x="490" y="411" on="0"/>
        <pt x="460" y="412" on="0"/>
        <pt x="440" y="412" on="0"/>
        <pt x="428" y="412" on="1"/>
        <pt x="374" y="412" on="0"/>
        <pt x="309" y="407" on="0"/>
        <pt x="273" y="383" on="0"/>
        <pt x="262" y="333" on="0"/>
        <pt x="262" y="288" on="1"/>
        <pt x="262" y="245" on="0"/>
        <pt x="274" y="196" on="0"/>
        <pt x="309" y="172" on="0"/>
        <pt x="373" y="166" on="0"/>
        <pt x="426" y="166" on="1"/>
        <pt x="441" y="166" on="0"/>
        <pt x="481" y="167" on="0"/>
        <pt x="523" y="169" on="0"/>
        <pt x="560" y="171" on="0"/>
        <pt x="571" y="172" on="1"/>
        <pt x="571" y="-5" on="1"/>
        <pt x="532" y="-10" on="0"/>
        <pt x="461" y="-14" on="0"/>
      </contour>
      <contour>
        <pt x="364" y="613" on="1"/>
        <pt x="301" y="613" on="0"/>
        <pt x="249" y="664" on="0"/>
        <pt x="249" y="722" on="1"/>
        <pt x="249" y="779" on="0"/>
        <pt x="301" y="831" on="0"/>
        <pt x="364" y="831" on="1"/>
        <pt x="428" y="831" on="0"/>
        <pt x="478" y="776" on="0"/>
        <pt x="478" y="722" on="1"/>
        <pt x="478" y="667" on="0"/>
        <pt x="428" y="613" on="0"/>
      </contour>
    </TTGlyph>
    <TTGlyph name="D" xMin="65" yMin="-10" xMax="818" yMax="750">
      <contour>
        <pt x="312" y="-10" on="1"/>
        <pt x="277" y="-10" on="0"/>
        <pt x="207" y="-8" on="0"/>
        <pt x="141" y="-5" on="0"/>
        <pt x="85" y="0" on="0"/>
        <pt x="65" y="3" on="1"/>
        <pt x="65" y="738" on="1"/>
        <pt x="170" y="744" on="0"/>
        <pt x="315" y="750" on="0"/>
        <pt x="369" y="750" on="1"/>
        <pt x="486" y="750" on="0"/>
        <pt x="655" y="705" on="0"/>
        <pt x="765" y="612" on="0"/>
        <pt x="818" y="468" on="0"/>
        <pt x="818" y="369" on="1"/>
        <pt x="818" y="267" on="0"/>
        <pt x="762" y="123" on="0"/>
        <pt x="641" y="32" on="0"/>
        <pt x="448" y="-10" on="0"/>
      </contour>
      <contour>
        <pt x="410" y="173" on="1"/>
        <pt x="459" y="173" on="0"/>
        <pt x="523" y="191" on="0"/>
        <pt x="562" y="236" on="0"/>
        <pt x="578" y="312" on="0"/>
        <pt x="578" y="369" on="1"/>
        <pt x="578" y="424" on="0"/>
        <pt x="560" y="500" on="0"/>
        <pt x="520" y="546" on="0"/>
        <pt x="453" y="566" on="0"/>
        <pt x="404" y="566" on="1"/>
        <pt x="386" y="566" on="0"/>
        <pt x="339" y="564" on="0"/>
        <pt x="300" y="561" on="1"/>
        <pt x="300" y="181" on="1"/>
        <pt x="322" y="177" on="0"/>
        <pt x="381" y="173" on="0"/>
      </contour>
    </TTGlyph>
    <TTGlyph name="D.sc" xMin="63" yMin="-8" xMax="759" yMax="585">
      <contour>
        <pt x="350" y="-8" on="1"/>
        <pt x="312" y="-8" on="0"/>
        <pt x="231" y="-7" on="0"/>
        <pt x="154" y="-4" on="0"/>
        <pt x="87" y="-1" on="0"/>
        <pt x="63" y="1" on="1"/>
        <pt x="63" y="575" on="1"/>
        <pt x="157" y="580" on="0"/>
        <pt x="294" y="585" on="0"/>
        <pt x="348" y="585" on="1"/>
        <pt x="559" y="585" on="0"/>
        <pt x="759" y="439" on="0"/>
        <pt x="759" y="287" on="1"/>
        <pt x="759" y="135" on="0"/>
        <pt x="560" y="-8" on="0"/>
      </contour>
      <contour>
        <pt x="385" y="164" on="1"/>
        <pt x="429" y="164" on="0"/>
        <pt x="485" y="175" on="0"/>
        <pt x="518" y="202" on="0"/>
        <pt x="531" y="250" on="0"/>
        <pt x="531" y="287" on="1"/>
        <pt x="531" y="323" on="0"/>
        <pt x="516" y="371" on="0"/>
        <pt x="482" y="400" on="0"/>
        <pt x="424" y="412" on="0"/>
        <pt x="381" y="412" on="1"/>
        <pt x="361" y="412" on="0"/>
        <pt x="321" y="411" on="0"/>
        <pt x="286" y="409" on="1"/>
        <pt x="286" y="170" on="1"/>
        <pt x="303" y="167" on="0"/>
        <pt x="356" y="164" on="0"/>
      </contour>
    </TTGlyph>
    <TTGlyph name="Dcaron" xMin="65" yMin="-10" xMax="818" yMax="1027">
      <contour>
        <pt x="191" y="1027" on="1"/>
        <pt x="426" y="945" on="1"/>
        <pt x="661" y="1027" on="1"/>
        <pt x="661" y="878" on="1"/>
        <pt x="423" y="797" on="1"/>
        <pt x="191" y="878" on="1"/>
      </contour>
      <contour>
        <pt x="312" y="-10" on="1"/>
        <pt x="277" y="-10" on="0"/>
        <pt x="207" y="-8" on="0"/>
        <pt x="141" y="-5" on="0"/>
        <pt x="85" y="0" on="0"/>
        <pt x="65" y="3" on="1"/>
        <pt x="65" y="738" on="1"/>
        <pt x="170" y="744" on="0"/>
        <pt x="315" y="750" on="0"/>
        <pt x="369" y="750" on="1"/>
        <pt x="486" y="750" on="0"/>
        <pt x="655" y="705" on="0"/>
        <pt x="765" y="612" on="0"/>
        <pt x="818" y="468" on="0"/>
        <pt x="818" y="369" on="1"/>
        <pt x="818" y="267" on="0"/>
        <pt x="762" y="123" on="0"/>
        <pt x="641" y="32" on="0"/>
        <pt x="448" y="-10" on="0"/>
      </contour>
      <contour>
        <pt x="410" y="173" on="1"/>
        <pt x="459" y="173" on="0"/>
        <pt x="523" y="191" on="0"/>
        <pt x="562" y="236" on="0"/>
        <pt x="578" y="312" on="0"/>
        <pt x="578" y="369" on="1"/>
        <pt x="578" y="424" on="0"/>
        <pt x="560" y="500" on="0"/>
        <pt x="520" y="546" on="0"/>
        <pt x="453" y="566" on="0"/>
        <pt x="404" y="566" on="1"/>
        <pt x="386" y="566" on="0"/>
        <pt x="339" y="564" on="0"/>
        <pt x="300" y="561" on="1"/>
        <pt x="300" y="181" on="1"/>
        <pt x="322" y="177" on="0"/>
        <pt x="381" y="173" on="0"/>
      </contour>
    </TTGlyph>
    <TTGlyph name="Dcaron.sc" xMin="63" yMin="-8" xMax="759" yMax="822">
      <contour>
        <pt x="350" y="-8" on="1"/>
        <pt x="312" y="-8" on="0"/>
        <pt x="231" y="-7" on="0"/>
        <pt x="154" y="-4" on="0"/>
        <pt x="87" y="-1" on="0"/>
        <pt x="63" y="1" on="1"/>
        <pt x="63" y="575" on="1"/>
        <pt x="157" y="580" on="0"/>
        <pt x="294" y="585" on="0"/>
        <pt x="348" y="585" on="1"/>
        <pt x="559" y="585" on="0"/>
        <pt x="759" y="439" on="0"/>
        <pt x="759" y="287" on="1"/>
        <pt x="759" y="135" on="0"/>
        <pt x="560" y="-8" on="0"/>
      </contour>
      <contour>
        <pt x="385" y="164" on="1"/>
        <pt x="429" y="164" on="0"/>
        <pt x="485" y="175" on="0"/>
        <pt x="518" y="202" on="0"/>
        <pt x="531" y="250" on="0"/>
        <pt x="531" y="287" on="1"/>
        <pt x="531" y="323" on="0"/>
        <pt x="516" y="371" on="0"/>
        <pt x="482" y="400" on="0"/>
        <pt x="424" y="412" on="0"/>
        <pt x="381" y="412" on="1"/>
        <pt x="361" y="412" on="0"/>
        <pt x="321" y="411" on="0"/>
        <pt x="286" y="409" on="1"/>
        <pt x="286" y="170" on="1"/>
        <pt x="303" y="167" on="0"/>
        <pt x="356" y="164" on="0"/>
      </contour>
      <contour>
        <pt x="182" y="684" on="1"/>
        <pt x="182" y="822" on="1"/>
        <pt x="401" y="755" on="1"/>
        <pt x="621" y="822" on="1"/>
        <pt x="621" y="684" on="1"/>
        <pt x="398" y="618" on="1"/>
      </contour>
    </TTGlyph>
    <TTGlyph name="Dcroat" xMin="5" yMin="-10" xMax="846" yMax="750">
      <contour>
        <pt x="5" y="462" on="1"/>
        <pt x="93" y="462" on="1"/>
        <pt x="93" y="738" on="1"/>
        <pt x="198" y="744" on="0"/>
        <pt x="343" y="750" on="0"/>
        <pt x="397" y="750" on="1"/>
        <pt x="514" y="750" on="0"/>
        <pt x="683" y="705" on="0"/>
        <pt x="793" y="612" on="0"/>
        <pt x="846" y="468" on="0"/>
        <pt x="846" y="369" on="1"/>
        <pt x="846" y="267" on="0"/>
        <pt x="790" y="123" on="0"/>
        <pt x="669" y="32" on="0"/>
        <pt x="476" y="-10" on="0"/>
        <pt x="340" y="-10" on="1"/>
        <pt x="305" y="-10" on="0"/>
        <pt x="235" y="-8" on="0"/>
        <pt x="169" y="-5" on="0"/>
        <pt x="113" y="0" on="0"/>
        <pt x="93" y="3" on="1"/>
        <pt x="93" y="288" on="1"/>
        <pt x="5" y="288" on="1"/>
      </contour>
      <contour>
        <pt x="438" y="173" on="1"/>
        <pt x="487" y="173" on="0"/>
        <pt x="551" y="191" on="0"/>
        <pt x="590" y="236" on="0"/>
        <pt x="606" y="312" on="0"/>
        <pt x="606" y="369" on="1"/>
        <pt x="606" y="424" on="0"/>
        <pt x="588" y="500" on="0"/>
        <pt x="548" y="546" on="0"/>
        <pt x="481" y="566" on="0"/>
        <pt x="432" y="566" on="1"/>
        <pt x="414" y="566" on="0"/>
        <pt x="367" y="564" on="0"/>
        <pt x="328" y="561" on="1"/>
        <pt x="328" y="462" on="1"/>
        <pt x="426" y="462" on="1"/>
        <pt x="426" y="288" on="1"/>
        <pt x="328" y="288" on="1"/>
        <pt x="328" y="181" on="1"/>
        <pt x="350" y="177" on="0"/>
        <pt x="409" y="173" on="0"/>
      </contour>
    </TTGlyph>
    <TTGlyph name="Dcroat.sc" xMin="15" yMin="-8" xMax="790" yMax="585">
      <contour>
        <pt x="15" y="376" on="1"/>
        <pt x="94" y="376" on="1"/>
        <pt x="94" y="575" on="1"/>
        <pt x="194" y="580" on="0"/>
        <pt x="329" y="585" on="0"/>
        <pt x="379" y="585" on="1"/>
        <pt x="592" y="585" on="0"/>
        <pt x="790" y="441" on="0"/>
        <pt x="790" y="287" on="1"/>
        <pt x="790" y="206" on="0"/>
        <pt x="739" y="94" on="0"/>
        <pt x="626" y="24" on="0"/>
        <pt x="448" y="-8" on="0"/>
        <pt x="322" y="-8" on="1"/>
        <pt x="290" y="-8" on="0"/>
        <pt x="224" y="-7" on="0"/>
        <pt x="163" y="-4" on="0"/>
        <pt x="112" y="-1" on="0"/>
        <pt x="94" y="1" on="1"/>
        <pt x="94" y="212" on="1"/>
        <pt x="15" y="212" on="1"/>
      </contour>
      <contour>
        <pt x="416" y="164" on="1"/>
        <pt x="459" y="164" on="0"/>
        <pt x="516" y="174" on="0"/>
        <pt x="549" y="201" on="0"/>
        <pt x="563" y="249" on="0"/>
        <pt x="563" y="287" on="1"/>
        <pt x="563" y="323" on="0"/>
        <pt x="548" y="372" on="0"/>
        <pt x="513" y="400" on="0"/>
        <pt x="455" y="412" on="0"/>
        <pt x="412" y="412" on="1"/>
        <pt x="396" y="412" on="0"/>
        <pt x="355" y="411" on="0"/>
        <pt x="317" y="409" on="1"/>
        <pt x="317" y="376" on="1"/>
        <pt x="401" y="376" on="1"/>
        <pt x="401" y="212" on="1"/>
        <pt x="317" y="212" on="1"/>
        <pt x="317" y="170" on="1"/>
        <pt x="335" y="168" on="0"/>
        <pt x="390" y="164" on="0"/>
      </contour>
    </TTGlyph>
    <TTGlyph name="Ddotbelow" xMin="65" yMin="-220" xMax="818" yMax="750">
      <contour>
        <pt x="415" y="-220" on="1"/>
        <pt x="365" y="-220" on="0"/>
        <pt x="324" y="-179" on="0"/>
        <pt x="324" y="-133" on="1"/>
        <pt x="324" y="-86" on="0"/>
        <pt x="365" y="-45" on="0"/>
        <pt x="415" y="-45" on="1"/>
        <pt x="467" y="-45" on="0"/>
        <pt x="506" y="-89" on="0"/>
        <pt x="506" y="-133" on="1"/>
        <pt x="506" y="-177" on="0"/>
        <pt x="467" y="-220" on="0"/>
      </contour>
      <contour>
        <pt x="312" y="-10" on="1"/>
        <pt x="277" y="-10" on="0"/>
        <pt x="207" y="-8" on="0"/>
        <pt x="141" y="-5" on="0"/>
        <pt x="85" y="0" on="0"/>
        <pt x="65" y="3" on="1"/>
        <pt x="65" y="738" on="1"/>
        <pt x="170" y="744" on="0"/>
        <pt x="315" y="750" on="0"/>
        <pt x="369" y="750" on="1"/>
        <pt x="486" y="750" on="0"/>
        <pt x="655" y="705" on="0"/>
        <pt x="765" y="612" on="0"/>
        <pt x="818" y="468" on="0"/>
        <pt x="818" y="369" on="1"/>
        <pt x="818" y="267" on="0"/>
        <pt x="762" y="123" on="0"/>
        <pt x="641" y="32" on="0"/>
        <pt x="448" y="-10" on="0"/>
      </contour>
      <contour>
        <pt x="410" y="173" on="1"/>
        <pt x="459" y="173" on="0"/>
        <pt x="523" y="191" on="0"/>
        <pt x="562" y="236" on="0"/>
        <pt x="578" y="312" on="0"/>
        <pt x="578" y="369" on="1"/>
        <pt x="578" y="424" on="0"/>
        <pt x="560" y="500" on="0"/>
        <pt x="520" y="546" on="0"/>
        <pt x="453" y="566" on="0"/>
        <pt x="404" y="566" on="1"/>
        <pt x="386" y="566" on="0"/>
        <pt x="339" y="564" on="0"/>
        <pt x="300" y="561" on="1"/>
        <pt x="300" y="181" on="1"/>
        <pt x="322" y="177" on="0"/>
        <pt x="381" y="173" on="0"/>
      </contour>
    </TTGlyph>
    <TTGlyph name="Ddotbelow.sc" xMin="63" yMin="-181" xMax="759" yMax="585">
      <contour>
        <pt x="350" y="-8" on="1"/>
        <pt x="312" y="-8" on="0"/>
        <pt x="231" y="-7" on="0"/>
        <pt x="154" y="-4" on="0"/>
        <pt x="87" y="-1" on="0"/>
        <pt x="63" y="1" on="1"/>
        <pt x="63" y="575" on="1"/>
        <pt x="157" y="580" on="0"/>
        <pt x="294" y="585" on="0"/>
        <pt x="348" y="585" on="1"/>
        <pt x="559" y="585" on="0"/>
        <pt x="759" y="439" on="0"/>
        <pt x="759" y="287" on="1"/>
        <pt x="759" y="135" on="0"/>
        <pt x="560" y="-8" on="0"/>
      </contour>
      <contour>
        <pt x="385" y="164" on="1"/>
        <pt x="429" y="164" on="0"/>
        <pt x="485" y="175" on="0"/>
        <pt x="518" y="202" on="0"/>
        <pt x="531" y="250" on="0"/>
        <pt x="531" y="287" on="1"/>
        <pt x="531" y="323" on="0"/>
        <pt x="516" y="371" on="0"/>
        <pt x="482" y="400" on="0"/>
        <pt x="424" y="412" on="0"/>
        <pt x="381" y="412" on="1"/>
        <pt x="361" y="412" on="0"/>
        <pt x="321" y="411" on="0"/>
        <pt x="286" y="409" on="1"/>
        <pt x="286" y="170" on="1"/>
        <pt x="303" y="167" on="0"/>
        <pt x="356" y="164" on="0"/>
      </contour>
      <contour>
        <pt x="389" y="-181" on="1"/>
        <pt x="342" y="-181" on="0"/>
        <pt x="303" y="-144" on="0"/>
        <pt x="303" y="-103" on="1"/>
        <pt x="303" y="-61" on="0"/>
        <pt x="342" y="-24" on="0"/>
        <pt x="389" y="-24" on="1"/>
        <pt x="438" y="-24" on="0"/>
        <pt x="474" y="-65" on="0"/>
        <pt x="474" y="-103" on="1"/>
        <pt x="474" y="-141" on="0"/>
        <pt x="438" y="-181" on="0"/>
      </contour>
    </TTGlyph>
    <TTGlyph name="Delta" xMin="21" yMin="0" xMax="909" yMax="740">
      <contour>
        <pt x="330" y="740" on="1"/>
        <pt x="600" y="740" on="1"/>
        <pt x="909" y="0" on="1"/>
        <pt x="21" y="0" on="1"/>
      </contour>
      <contour>
        <pt x="621" y="175" on="1"/>
        <pt x="465" y="548" on="1"/>
        <pt x="309" y="175" on="1"/>
      </contour>
    </TTGlyph>
    <TTGlyph name="E" xMin="65" yMin="0" xMax="691" yMax="740">
      <contour>
        <pt x="65" y="740" on="1"/>
        <pt x="681" y="740" on="1"/>
        <pt x="681" y="564" on="1"/>
        <pt x="300" y="564" on="1"/>
        <pt x="300" y="458" on="1"/>
        <pt x="641" y="458" on="1"/>
        <pt x="641" y="282" on="1"/>
        <pt x="300" y="282" on="1"/>
        <pt x="300" y="176" on="1"/>
        <pt x="691" y="176" on="1"/>
        <pt x="691" y="0" on="1"/>
        <pt x="65" y="0" on="1"/>
      </contour>
    </TTGlyph>
    <TTGlyph name="E.sc" xMin="63" yMin="0" xMax="643" yMax="577">
      <contour>
        <pt x="63" y="577" on="1"/>
        <pt x="634" y="577" on="1"/>
        <pt x="634" y="418" on="1"/>
        <pt x="286" y="418" on="1"/>
        <pt x="286" y="356" on="1"/>
        <pt x="596" y="356" on="1"/>
        <pt x="596" y="222" on="1"/>
        <pt x="286" y="222" on="1"/>
        <pt x="286" y="160" on="1"/>
        <pt x="643" y="160" on="1"/>
        <pt x="643" y="0" on="1"/>
        <pt x="63" y="0" on="1"/>
      </contour>
    </TTGlyph>
    <TTGlyph name="Eacute" xMin="65" yMin="0" xMax="691" yMax="1008">
      <contour>
        <pt x="276" y="817" on="1"/>
        <pt x="338" y="1008" on="1"/>
        <pt x="573" y="1008" on="1"/>
        <pt x="441" y="807" on="1"/>
      </contour>
      <contour>
        <pt x="65" y="740" on="1"/>
        <pt x="681" y="740" on="1"/>
        <pt x="681" y="564" on="1"/>
        <pt x="300" y="564" on="1"/>
        <pt x="300" y="458" on="1"/>
        <pt x="641" y="458" on="1"/>
        <pt x="641" y="282" on="1"/>
        <pt x="300" y="282" on="1"/>
        <pt x="300" y="176" on="1"/>
        <pt x="691" y="176" on="1"/>
        <pt x="691" y="0" on="1"/>
        <pt x="65" y="0" on="1"/>
      </contour>
    </TTGlyph>
    <TTGlyph name="Eacute.sc" xMin="63" yMin="0" xMax="643" yMax="802">
      <contour>
        <pt x="63" y="577" on="1"/>
        <pt x="634" y="577" on="1"/>
        <pt x="634" y="418" on="1"/>
        <pt x="286" y="418" on="1"/>
        <pt x="286" y="356" on="1"/>
        <pt x="596" y="356" on="1"/>
        <pt x="596" y="222" on="1"/>
        <pt x="286" y="222" on="1"/>
        <pt x="286" y="160" on="1"/>
        <pt x="643" y="160" on="1"/>
        <pt x="643" y="0" on="1"/>
        <pt x="63" y="0" on="1"/>
      </contour>
      <contour>
        <pt x="256" y="640" on="1"/>
        <pt x="311" y="802" on="1"/>
        <pt x="534" y="802" on="1"/>
        <pt x="412" y="631" on="1"/>
      </contour>
    </TTGlyph>
    <TTGlyph name="Ebreve" xMin="65" yMin="0" xMax="691" yMax="1006">
      <contour>
        <pt x="362" y="811" on="1"/>
        <pt x="287" y="811" on="0"/>
        <pt x="189" y="842" on="0"/>
        <pt x="130" y="895" on="0"/>
        <pt x="106" y="966" on="0"/>
        <pt x="106" y="1006" on="1"/>
        <pt x="255" y="1006" on="1"/>
        <pt x="255" y="985" on="0"/>
        <pt x="264" y="951" on="0"/>
        <pt x="288" y="928" on="0"/>
        <pt x="330" y="916" on="0"/>
        <pt x="362" y="916" on="1"/>
        <pt x="395" y="916" on="0"/>
        <pt x="436" y="928" on="0"/>
        <pt x="460" y="951" on="0"/>
        <pt x="469" y="985" on="0"/>
        <pt x="469" y="1006" on="1"/>
        <pt x="618" y="1006" on="1"/>
        <pt x="618" y="964" on="0"/>
        <pt x="594" y="893" on="0"/>
        <pt x="535" y="841" on="0"/>
        <pt x="436" y="811" on="0"/>
      </contour>
      <contour>
        <pt x="65" y="740" on="1"/>
        <pt x="681" y="740" on="1"/>
        <pt x="681" y="564" on="1"/>
        <pt x="300" y="564" on="1"/>
        <pt x="300" y="458" on="1"/>
        <pt x="641" y="458" on="1"/>
        <pt x="641" y="282" on="1"/>
        <pt x="300" y="282" on="1"/>
        <pt x="300" y="176" on="1"/>
        <pt x="691" y="176" on="1"/>
        <pt x="691" y="0" on="1"/>
        <pt x="65" y="0" on="1"/>
      </contour>
    </TTGlyph>
    <TTGlyph name="Ebreve.sc" xMin="63" yMin="0" xMax="643" yMax="797">
      <contour>
        <pt x="337" y="633" on="1"/>
        <pt x="266" y="633" on="0"/>
        <pt x="174" y="660" on="0"/>
        <pt x="120" y="705" on="0"/>
        <pt x="98" y="764" on="0"/>
        <pt x="98" y="797" on="1"/>
        <pt x="239" y="797" on="1"/>
        <pt x="239" y="781" on="0"/>
        <pt x="247" y="756" on="0"/>
        <pt x="269" y="738" on="0"/>
        <pt x="307" y="729" on="0"/>
        <pt x="337" y="729" on="1"/>
        <pt x="367" y="729" on="0"/>
        <pt x="406" y="738" on="0"/>
        <pt x="427" y="756" on="0"/>
        <pt x="435" y="781" on="0"/>
        <pt x="435" y="797" on="1"/>
        <pt x="575" y="797" on="1"/>
        <pt x="575" y="763" on="0"/>
        <pt x="553" y="703" on="0"/>
        <pt x="499" y="659" on="0"/>
        <pt x="407" y="633" on="0"/>
      </contour>
      <contour>
        <pt x="63" y="577" on="1"/>
        <pt x="634" y="577" on="1"/>
        <pt x="634" y="418" on="1"/>
        <pt x="286" y="418" on="1"/>
        <pt x="286" y="356" on="1"/>
        <pt x="596" y="356" on="1"/>
        <pt x="596" y="222" on="1"/>
        <pt x="286" y="222" on="1"/>
        <pt x="286" y="160" on="1"/>
        <pt x="643" y="160" on="1"/>
        <pt x="643" y="0" on="1"/>
        <pt x="63" y="0" on="1"/>
      </contour>
    </TTGlyph>
    <TTGlyph name="Ecaron" xMin="65" yMin="0" xMax="691" yMax="1027">
      <contour>
        <pt x="136" y="1027" on="1"/>
        <pt x="371" y="945" on="1"/>
        <pt x="606" y="1027" on="1"/>
        <pt x="606" y="878" on="1"/>
        <pt x="368" y="797" on="1"/>
        <pt x="136" y="878" on="1"/>
      </contour>
      <contour>
        <pt x="65" y="740" on="1"/>
        <pt x="681" y="740" on="1"/>
        <pt x="681" y="564" on="1"/>
        <pt x="300" y="564" on="1"/>
        <pt x="300" y="458" on="1"/>
        <pt x="641" y="458" on="1"/>
        <pt x="641" y="282" on="1"/>
        <pt x="300" y="282" on="1"/>
        <pt x="300" y="176" on="1"/>
        <pt x="691" y="176" on="1"/>
        <pt x="691" y="0" on="1"/>
        <pt x="65" y="0" on="1"/>
      </contour>
    </TTGlyph>
    <TTGlyph name="Ecaron.sc" xMin="63" yMin="0" xMax="643" yMax="822">
      <contour>
        <pt x="63" y="577" on="1"/>
        <pt x="634" y="577" on="1"/>
        <pt x="634" y="418" on="1"/>
        <pt x="286" y="418" on="1"/>
        <pt x="286" y="356" on="1"/>
        <pt x="596" y="356" on="1"/>
        <pt x="596" y="222" on="1"/>
        <pt x="286" y="222" on="1"/>
        <pt x="286" y="160" on="1"/>
        <pt x="643" y="160" on="1"/>
        <pt x="643" y="0" on="1"/>
        <pt x="63" y="0" on="1"/>
      </contour>
      <contour>
        <pt x="126" y="684" on="1"/>
        <pt x="126" y="822" on="1"/>
        <pt x="345" y="755" on="1"/>
        <pt x="564" y="822" on="1"/>
        <pt x="564" y="684" on="1"/>
        <pt x="342" y="618" on="1"/>
      </contour>
    </TTGlyph>
    <TTGlyph name="Ecircumflex" xMin="65" yMin="0" xMax="691" yMax="1027">
      <contour>
        <pt x="65" y="740" on="1"/>
        <pt x="681" y="740" on="1"/>
        <pt x="681" y="564" on="1"/>
        <pt x="300" y="564" on="1"/>
        <pt x="300" y="458" on="1"/>
        <pt x="641" y="458" on="1"/>
        <pt x="641" y="282" on="1"/>
        <pt x="300" y="282" on="1"/>
        <pt x="300" y="176" on="1"/>
        <pt x="691" y="176" on="1"/>
        <pt x="691" y="0" on="1"/>
        <pt x="65" y="0" on="1"/>
      </contour>
      <contour>
        <pt x="157" y="945" on="1"/>
        <pt x="389" y="1027" on="1"/>
        <pt x="627" y="945" on="1"/>
        <pt x="627" y="797" on="1"/>
        <pt x="392" y="878" on="1"/>
        <pt x="157" y="797" on="1"/>
      </contour>
    </TTGlyph>
    <TTGlyph name="Ecircumflex.sc" xMin="63" yMin="0" xMax="643" yMax="822">
      <contour>
        <pt x="63" y="577" on="1"/>
        <pt x="634" y="577" on="1"/>
        <pt x="634" y="418" on="1"/>
        <pt x="286" y="418" on="1"/>
        <pt x="286" y="356" on="1"/>
        <pt x="596" y="356" on="1"/>
        <pt x="596" y="222" on="1"/>
        <pt x="286" y="222" on="1"/>
        <pt x="286" y="160" on="1"/>
        <pt x="643" y="160" on="1"/>
        <pt x="643" y="0" on="1"/>
        <pt x="63" y="0" on="1"/>
      </contour>
      <contour>
        <pt x="148" y="755" on="1"/>
        <pt x="364" y="822" on="1"/>
        <pt x="586" y="755" on="1"/>
        <pt x="586" y="618" on="1"/>
        <pt x="367" y="684" on="1"/>
        <pt x="148" y="618" on="1"/>
      </contour>
    </TTGlyph>
    <TTGlyph name="Edblgrave" xMin="24" yMin="0" xMax="691" yMax="1008">
      <contour>
        <pt x="65" y="740" on="1"/>
        <pt x="681" y="740" on="1"/>
        <pt x="681" y="564" on="1"/>
        <pt x="300" y="564" on="1"/>
        <pt x="300" y="458" on="1"/>
        <pt x="641" y="458" on="1"/>
        <pt x="641" y="282" on="1"/>
        <pt x="300" y="282" on="1"/>
        <pt x="300" y="176" on="1"/>
        <pt x="691" y="176" on="1"/>
        <pt x="691" y="0" on="1"/>
        <pt x="65" y="0" on="1"/>
      </contour>
      <contour>
        <pt x="157" y="807" on="1"/>
        <pt x="24" y="1008" on="1"/>
        <pt x="255" y="1008" on="1"/>
        <pt x="316" y="817" on="1"/>
      </contour>
      <contour>
        <pt x="409" y="807" on="1"/>
        <pt x="276" y="1008" on="1"/>
        <pt x="507" y="1008" on="1"/>
        <pt x="569" y="817" on="1"/>
      </contour>
    </TTGlyph>
    <TTGlyph name="Edblgrave.sc" xMin="20" yMin="0" xMax="643" yMax="804">
      <contour>
        <pt x="63" y="577" on="1"/>
        <pt x="634" y="577" on="1"/>
        <pt x="634" y="418" on="1"/>
        <pt x="286" y="418" on="1"/>
        <pt x="286" y="356" on="1"/>
        <pt x="596" y="356" on="1"/>
        <pt x="596" y="222" on="1"/>
        <pt x="286" y="222" on="1"/>
        <pt x="286" y="160" on="1"/>
        <pt x="643" y="160" on="1"/>
        <pt x="643" y="0" on="1"/>
        <pt x="63" y="0" on="1"/>
      </contour>
      <contour>
        <pt x="20" y="804" on="1"/>
        <pt x="241" y="804" on="1"/>
        <pt x="295" y="640" on="1"/>
        <pt x="142" y="633" on="1"/>
      </contour>
      <contour>
        <pt x="256" y="804" on="1"/>
        <pt x="477" y="804" on="1"/>
        <pt x="532" y="640" on="1"/>
        <pt x="378" y="633" on="1"/>
      </contour>
    </TTGlyph>
    <TTGlyph name="Edieresis" xMin="65" yMin="0" xMax="691" yMax="1030">
      <contour>
        <pt x="225" y="794" on="1"/>
        <pt x="159" y="794" on="0"/>
        <pt x="103" y="849" on="0"/>
        <pt x="103" y="912" on="1"/>
        <pt x="103" y="974" on="0"/>
        <pt x="159" y="1030" on="0"/>
        <pt x="225" y="1030" on="1"/>
        <pt x="293" y="1030" on="0"/>
        <pt x="346" y="972" on="0"/>
        <pt x="346" y="912" on="1"/>
        <pt x="346" y="852" on="0"/>
        <pt x="293" y="794" on="0"/>
      </contour>
      <contour>
        <pt x="546" y="794" on="1"/>
        <pt x="480" y="794" on="0"/>
        <pt x="425" y="849" on="0"/>
        <pt x="425" y="912" on="1"/>
        <pt x="425" y="974" on="0"/>
        <pt x="480" y="1030" on="0"/>
        <pt x="546" y="1030" on="1"/>
        <pt x="614" y="1030" on="0"/>
        <pt x="667" y="972" on="0"/>
        <pt x="667" y="912" on="1"/>
        <pt x="667" y="852" on="0"/>
        <pt x="614" y="794" on="0"/>
      </contour>
      <contour>
        <pt x="65" y="740" on="1"/>
        <pt x="681" y="740" on="1"/>
        <pt x="681" y="564" on="1"/>
        <pt x="300" y="564" on="1"/>
        <pt x="300" y="458" on="1"/>
        <pt x="641" y="458" on="1"/>
        <pt x="641" y="282" on="1"/>
        <pt x="300" y="282" on="1"/>
        <pt x="300" y="176" on="1"/>
        <pt x="691" y="176" on="1"/>
        <pt x="691" y="0" on="1"/>
        <pt x="65" y="0" on="1"/>
      </contour>
    </TTGlyph>
    <TTGlyph name="Edieresis.sc" xMin="63" yMin="0" xMax="643" yMax="830">
      <contour>
        <pt x="213" y="612" on="1"/>
        <pt x="150" y="612" on="0"/>
        <pt x="98" y="663" on="0"/>
        <pt x="98" y="721" on="1"/>
        <pt x="98" y="778" on="0"/>
        <pt x="150" y="830" on="0"/>
        <pt x="213" y="830" on="1"/>
        <pt x="278" y="830" on="0"/>
        <pt x="327" y="775" on="0"/>
        <pt x="327" y="721" on="1"/>
        <pt x="327" y="666" on="0"/>
        <pt x="278" y="612" on="0"/>
      </contour>
      <contour>
        <pt x="508" y="612" on="1"/>
        <pt x="445" y="612" on="0"/>
        <pt x="394" y="663" on="0"/>
        <pt x="394" y="721" on="1"/>
        <pt x="394" y="778" on="0"/>
        <pt x="445" y="830" on="0"/>
        <pt x="508" y="830" on="1"/>
        <pt x="572" y="830" on="0"/>
        <pt x="622" y="775" on="0"/>
        <pt x="622" y="721" on="1"/>
        <pt x="622" y="666" on="0"/>
        <pt x="572" y="612" on="0"/>
      </contour>
      <contour>
        <pt x="63" y="577" on="1"/>
        <pt x="634" y="577" on="1"/>
        <pt x="634" y="418" on="1"/>
        <pt x="286" y="418" on="1"/>
        <pt x="286" y="356" on="1"/>
        <pt x="596" y="356" on="1"/>
        <pt x="596" y="222" on="1"/>
        <pt x="286" y="222" on="1"/>
        <pt x="286" y="160" on="1"/>
        <pt x="643" y="160" on="1"/>
        <pt x="643" y="0" on="1"/>
        <pt x="63" y="0" on="1"/>
      </contour>
    </TTGlyph>
    <TTGlyph name="Edotaccent" xMin="65" yMin="0" xMax="691" yMax="1030">
      <contour>
        <pt x="362" y="794" on="1"/>
        <pt x="296" y="794" on="0"/>
        <pt x="240" y="849" on="0"/>
        <pt x="240" y="912" on="1"/>
        <pt x="240" y="974" on="0"/>
        <pt x="296" y="1030" on="0"/>
        <pt x="362" y="1030" on="1"/>
        <pt x="430" y="1030" on="0"/>
        <pt x="483" y="972" on="0"/>
        <pt x="483" y="912" on="1"/>
        <pt x="483" y="852" on="0"/>
        <pt x="430" y="794" on="0"/>
      </contour>
      <contour>
        <pt x="65" y="740" on="1"/>
        <pt x="681" y="740" on="1"/>
        <pt x="681" y="564" on="1"/>
        <pt x="300" y="564" on="1"/>
        <pt x="300" y="458" on="1"/>
        <pt x="641" y="458" on="1"/>
        <pt x="641" y="282" on="1"/>
        <pt x="300" y="282" on="1"/>
        <pt x="300" y="176" on="1"/>
        <pt x="691" y="176" on="1"/>
        <pt x="691" y="0" on="1"/>
        <pt x="65" y="0" on="1"/>
      </contour>
    </TTGlyph>
    <TTGlyph name="Edotaccent.sc" xMin="63" yMin="0" xMax="643" yMax="831">
      <contour>
        <pt x="337" y="613" on="1"/>
        <pt x="274" y="613" on="0"/>
        <pt x="222" y="664" on="0"/>
        <pt x="222" y="722" on="1"/>
        <pt x="222" y="779" on="0"/>
        <pt x="274" y="831" on="0"/>
        <pt x="337" y="831" on="1"/>
        <pt x="401" y="831" on="0"/>
        <pt x="451" y="776" on="0"/>
        <pt x="451" y="722" on="1"/>
        <pt x="451" y="667" on="0"/>
        <pt x="401" y="613" on="0"/>
      </contour>
      <contour>
        <pt x="63" y="577" on="1"/>
        <pt x="634" y="577" on="1"/>
        <pt x="634" y="418" on="1"/>
        <pt x="286" y="418" on="1"/>
        <pt x="286" y="356" on="1"/>
        <pt x="596" y="356" on="1"/>
        <pt x="596" y="222" on="1"/>
        <pt x="286" y="222" on="1"/>
        <pt x="286" y="160" on="1"/>
        <pt x="643" y="160" on="1"/>
        <pt x="643" y="0" on="1"/>
        <pt x="63" y="0" on="1"/>
      </contour>
    </TTGlyph>
    <TTGlyph name="Edotbelow" xMin="65" yMin="-220" xMax="691" yMax="740">
      <contour>
        <pt x="65" y="740" on="1"/>
        <pt x="681" y="740" on="1"/>
        <pt x="681" y="564" on="1"/>
        <pt x="300" y="564" on="1"/>
        <pt x="300" y="458" on="1"/>
        <pt x="641" y="458" on="1"/>
        <pt x="641" y="282" on="1"/>
        <pt x="300" y="282" on="1"/>
        <pt x="300" y="176" on="1"/>
        <pt x="691" y="176" on="1"/>
        <pt x="691" y="0" on="1"/>
        <pt x="65" y="0" on="1"/>
      </contour>
      <contour>
        <pt x="392" y="-220" on="1"/>
        <pt x="342" y="-220" on="0"/>
        <pt x="301" y="-179" on="0"/>
        <pt x="301" y="-133" on="1"/>
        <pt x="301" y="-86" on="0"/>
        <pt x="342" y="-45" on="0"/>
        <pt x="392" y="-45" on="1"/>
        <pt x="444" y="-45" on="0"/>
        <pt x="483" y="-89" on="0"/>
        <pt x="483" y="-133" on="1"/>
        <pt x="483" y="-177" on="0"/>
        <pt x="444" y="-220" on="0"/>
      </contour>
    </TTGlyph>
    <TTGlyph name="Edotbelow.sc" xMin="63" yMin="-181" xMax="643" yMax="577">
      <contour>
        <pt x="366" y="-181" on="1"/>
        <pt x="319" y="-181" on="0"/>
        <pt x="281" y="-144" on="0"/>
        <pt x="281" y="-103" on="1"/>
        <pt x="281" y="-61" on="0"/>
        <pt x="319" y="-24" on="0"/>
        <pt x="366" y="-24" on="1"/>
        <pt x="415" y="-24" on="0"/>
        <pt x="451" y="-65" on="0"/>
        <pt x="451" y="-103" on="1"/>
        <pt x="451" y="-141" on="0"/>
        <pt x="415" y="-181" on="0"/>
      </contour>
      <contour>
        <pt x="63" y="577" on="1"/>
        <pt x="634" y="577" on="1"/>
        <pt x="634" y="418" on="1"/>
        <pt x="286" y="418" on="1"/>
        <pt x="286" y="356" on="1"/>
        <pt x="596" y="356" on="1"/>
        <pt x="596" y="222" on="1"/>
        <pt x="286" y="222" on="1"/>
        <pt x="286" y="160" on="1"/>
        <pt x="643" y="160" on="1"/>
        <pt x="643" y="0" on="1"/>
        <pt x="63" y="0" on="1"/>
      </contour>
    </TTGlyph>
    <TTGlyph name="Egrave" xMin="65" yMin="0" xMax="691" yMax="1008">
      <contour>
        <pt x="321" y="807" on="1"/>
        <pt x="188" y="1008" on="1"/>
        <pt x="424" y="1008" on="1"/>
        <pt x="485" y="817" on="1"/>
      </contour>
      <contour>
        <pt x="65" y="740" on="1"/>
        <pt x="681" y="740" on="1"/>
        <pt x="681" y="564" on="1"/>
        <pt x="300" y="564" on="1"/>
        <pt x="300" y="458" on="1"/>
        <pt x="641" y="458" on="1"/>
        <pt x="641" y="282" on="1"/>
        <pt x="300" y="282" on="1"/>
        <pt x="300" y="176" on="1"/>
        <pt x="691" y="176" on="1"/>
        <pt x="691" y="0" on="1"/>
        <pt x="65" y="0" on="1"/>
      </contour>
    </TTGlyph>
    <TTGlyph name="Egrave.sc" xMin="63" yMin="0" xMax="643" yMax="802">
      <contour>
        <pt x="63" y="577" on="1"/>
        <pt x="634" y="577" on="1"/>
        <pt x="634" y="418" on="1"/>
        <pt x="286" y="418" on="1"/>
        <pt x="286" y="356" on="1"/>
        <pt x="596" y="356" on="1"/>
        <pt x="596" y="222" on="1"/>
        <pt x="286" y="222" on="1"/>
        <pt x="286" y="160" on="1"/>
        <pt x="643" y="160" on="1"/>
        <pt x="643" y="0" on="1"/>
        <pt x="63" y="0" on="1"/>
      </contour>
      <contour>
        <pt x="178" y="802" on="1"/>
        <pt x="402" y="802" on="1"/>
        <pt x="456" y="638" on="1"/>
        <pt x="300" y="631" on="1"/>
      </contour>
    </TTGlyph>
    <TTGlyph name="Einvertedbreve" xMin="65" yMin="0" xMax="691" yMax="1016">
      <contour>
        <pt x="65" y="740" on="1"/>
        <pt x="681" y="740" on="1"/>
        <pt x="681" y="564" on="1"/>
        <pt x="300" y="564" on="1"/>
        <pt x="300" y="458" on="1"/>
        <pt x="641" y="458" on="1"/>
        <pt x="641" y="282" on="1"/>
        <pt x="300" y="282" on="1"/>
        <pt x="300" y="176" on="1"/>
        <pt x="691" y="176" on="1"/>
        <pt x="691" y="0" on="1"/>
        <pt x="65" y="0" on="1"/>
      </contour>
      <contour>
        <pt x="480" y="821" on="1"/>
        <pt x="480" y="842" on="0"/>
        <pt x="471" y="875" on="0"/>
        <pt x="447" y="898" on="0"/>
        <pt x="406" y="910" on="0"/>
        <pt x="373" y="910" on="1"/>
        <pt x="341" y="910" on="0"/>
        <pt x="299" y="898" on="0"/>
        <pt x="275" y="875" on="0"/>
        <pt x="266" y="842" on="0"/>
        <pt x="266" y="821" on="1"/>
        <pt x="117" y="821" on="1"/>
        <pt x="117" y="861" on="0"/>
        <pt x="141" y="932" on="0"/>
        <pt x="200" y="985" on="0"/>
        <pt x="298" y="1016" on="0"/>
        <pt x="373" y="1016" on="1"/>
        <pt x="447" y="1016" on="0"/>
        <pt x="546" y="986" on="0"/>
        <pt x="605" y="933" on="0"/>
        <pt x="629" y="862" on="0"/>
        <pt x="629" y="821" on="1"/>
      </contour>
    </TTGlyph>
    <TTGlyph name="Einvertedbreve.sc" xMin="63" yMin="0" xMax="643" yMax="807">
      <contour>
        <pt x="109" y="643" on="1"/>
        <pt x="109" y="675" on="0"/>
        <pt x="131" y="735" on="0"/>
        <pt x="185" y="780" on="0"/>
        <pt x="277" y="807" on="0"/>
        <pt x="348" y="807" on="1"/>
        <pt x="418" y="807" on="0"/>
        <pt x="510" y="781" on="0"/>
        <pt x="564" y="736" on="0"/>
        <pt x="586" y="677" on="0"/>
        <pt x="586" y="643" on="1"/>
        <pt x="446" y="643" on="1"/>
        <pt x="446" y="658" on="0"/>
        <pt x="438" y="683" on="0"/>
        <pt x="417" y="701" on="0"/>
        <pt x="378" y="710" on="0"/>
        <pt x="348" y="710" on="1"/>
        <pt x="318" y="710" on="0"/>
        <pt x="280" y="701" on="0"/>
        <pt x="258" y="683" on="0"/>
        <pt x="250" y="658" on="0"/>
        <pt x="250" y="643" on="1"/>
      </contour>
      <contour>
        <pt x="63" y="577" on="1"/>
        <pt x="634" y="577" on="1"/>
        <pt x="634" y="418" on="1"/>
        <pt x="286" y="418" on="1"/>
        <pt x="286" y="356" on="1"/>
        <pt x="596" y="356" on="1"/>
        <pt x="596" y="222" on="1"/>
        <pt x="286" y="222" on="1"/>
        <pt x="286" y="160" on="1"/>
        <pt x="643" y="160" on="1"/>
        <pt x="643" y="0" on="1"/>
        <pt x="63" y="0" on="1"/>
      </contour>
    </TTGlyph>
    <TTGlyph name="Emacron" xMin="65" yMin="0" xMax="691" yMax="991">
      <contour>
        <pt x="144" y="991" on="1"/>
        <pt x="610" y="991" on="1"/>
        <pt x="610" y="843" on="1"/>
        <pt x="144" y="843" on="1"/>
      </contour>
      <contour>
        <pt x="65" y="740" on="1"/>
        <pt x="681" y="740" on="1"/>
        <pt x="681" y="564" on="1"/>
        <pt x="300" y="564" on="1"/>
        <pt x="300" y="458" on="1"/>
        <pt x="641" y="458" on="1"/>
        <pt x="641" y="282" on="1"/>
        <pt x="300" y="282" on="1"/>
        <pt x="300" y="176" on="1"/>
        <pt x="691" y="176" on="1"/>
        <pt x="691" y="0" on="1"/>
        <pt x="65" y="0" on="1"/>
      </contour>
    </TTGlyph>
    <TTGlyph name="Emacron.sc" xMin="63" yMin="0" xMax="643" yMax="796">
      <contour>
        <pt x="63" y="577" on="1"/>
        <pt x="634" y="577" on="1"/>
        <pt x="634" y="418" on="1"/>
        <pt x="286" y="418" on="1"/>
        <pt x="286" y="356" on="1"/>
        <pt x="596" y="356" on="1"/>
        <pt x="596" y="222" on="1"/>
        <pt x="286" y="222" on="1"/>
        <pt x="286" y="160" on="1"/>
        <pt x="643" y="160" on="1"/>
        <pt x="643" y="0" on="1"/>
        <pt x="63" y="0" on="1"/>
      </contour>
      <contour>
        <pt x="135" y="796" on="1"/>
        <pt x="569" y="796" on="1"/>
        <pt x="569" y="658" on="1"/>
        <pt x="135" y="658" on="1"/>
      </contour>
    </TTGlyph>
    <TTGlyph name="Eng" xMin="65" yMin="-220" xMax="817" yMax="740">
      <contour>
        <pt x="519" y="-169" on="1"/>
        <pt x="537" y="-132" on="0"/>
        <pt x="563" y="-73" on="0"/>
        <pt x="581" y="-22" on="0"/>
        <pt x="592" y="25" on="0"/>
        <pt x="595" y="51" on="1"/>
        <pt x="363" y="312" on="1"/>
        <pt x="282" y="413" on="1"/>
        <pt x="272" y="413" on="1"/>
        <pt x="272" y="0" on="1"/>
        <pt x="65" y="0" on="1"/>
        <pt x="65" y="740" on="1"/>
        <pt x="242" y="740" on="1"/>
        <pt x="533" y="412" on="1"/>
        <pt x="600" y="327" on="1"/>
        <pt x="610" y="327" on="1"/>
        <pt x="610" y="740" on="1"/>
        <pt x="817" y="740" on="1"/>
        <pt x="817" y="137" on="1"/>
        <pt x="817" y="104" on="0"/>
        <pt x="794" y="16" on="0"/>
        <pt x="755" y="-80" on="0"/>
        <pt x="702" y="-178" on="0"/>
        <pt x="672" y="-220" on="1"/>
      </contour>
    </TTGlyph>
    <TTGlyph name="Eng.sc" xMin="63" yMin="-179" xMax="727" yMax="577">
      <contour>
        <pt x="463" y="-131" on="1"/>
        <pt x="480" y="-98" on="0"/>
        <pt x="503" y="-53" on="0"/>
        <pt x="518" y="-18" on="0"/>
        <pt x="527" y="11" on="0"/>
        <pt x="530" y="26" on="1"/>
        <pt x="345" y="199" on="1"/>
        <pt x="268" y="282" on="1"/>
        <pt x="259" y="282" on="1"/>
        <pt x="259" y="0" on="1"/>
        <pt x="63" y="0" on="1"/>
        <pt x="63" y="577" on="1"/>
        <pt x="230" y="577" on="1"/>
        <pt x="459" y="360" on="1"/>
        <pt x="522" y="295" on="1"/>
        <pt x="531" y="295" on="1"/>
        <pt x="531" y="577" on="1"/>
        <pt x="727" y="577" on="1"/>
        <pt x="727" y="119" on="1"/>
        <pt x="727" y="59" on="0"/>
        <pt x="665" y="-96" on="0"/>
        <pt x="608" y="-179" on="1"/>
      </contour>
    </TTGlyph>
    <TTGlyph name="Eogonek" xMin="65" yMin="-220" xMax="693" yMax="740">
      <contour>
        <pt x="65" y="740" on="1"/>
        <pt x="681" y="740" on="1"/>
        <pt x="681" y="564" on="1"/>
        <pt x="300" y="564" on="1"/>
        <pt x="300" y="458" on="1"/>
        <pt x="641" y="458" on="1"/>
        <pt x="641" y="282" on="1"/>
        <pt x="300" y="282" on="1"/>
        <pt x="300" y="176" on="1"/>
        <pt x="691" y="176" on="1"/>
        <pt x="691" y="-5" on="1"/>
        <pt x="655" y="-19" on="0"/>
        <pt x="606" y="-40" on="0"/>
        <pt x="577" y="-59" on="0"/>
        <pt x="565" y="-76" on="0"/>
        <pt x="565" y="-85" on="1"/>
        <pt x="565" y="-105" on="0"/>
        <pt x="591" y="-105" on="1"/>
        <pt x="597" y="-105" on="0"/>
        <pt x="620" y="-102" on="0"/>
        <pt x="648" y="-98" on="0"/>
        <pt x="679" y="-91" on="0"/>
        <pt x="693" y="-88" on="1"/>
        <pt x="693" y="-208" on="1"/>
        <pt x="649" y="-220" on="0"/>
        <pt x="595" y="-220" on="1"/>
        <pt x="513" y="-220" on="0"/>
        <pt x="420" y="-169" on="0"/>
        <pt x="420" y="-124" on="1"/>
        <pt x="420" y="-108" on="0"/>
        <pt x="433" y="-72" on="0"/>
        <pt x="455" y="-39" on="0"/>
        <pt x="485" y="-10" on="0"/>
        <pt x="503" y="0" on="1"/>
        <pt x="65" y="0" on="1"/>
      </contour>
    </TTGlyph>
    <TTGlyph name="Eogonek.sc" xMin="63" yMin="-172" xMax="645" yMax="577">
      <contour>
        <pt x="556" y="-172" on="1"/>
        <pt x="471" y="-172" on="0"/>
        <pt x="391" y="-129" on="0"/>
        <pt x="391" y="-91" on="1"/>
        <pt x="391" y="-60" on="0"/>
        <pt x="433" y="-8" on="0"/>
        <pt x="458" y="0" on="1"/>
        <pt x="63" y="0" on="1"/>
        <pt x="63" y="577" on="1"/>
        <pt x="634" y="577" on="1"/>
        <pt x="634" y="418" on="1"/>
        <pt x="286" y="418" on="1"/>
        <pt x="286" y="356" on="1"/>
        <pt x="596" y="356" on="1"/>
        <pt x="596" y="222" on="1"/>
        <pt x="286" y="222" on="1"/>
        <pt x="286" y="160" on="1"/>
        <pt x="643" y="160" on="1"/>
        <pt x="643" y="0" on="1"/>
        <pt x="602" y="-14" on="0"/>
        <pt x="555" y="-32" on="0"/>
        <pt x="533" y="-44" on="0"/>
        <pt x="528" y="-51" on="0"/>
        <pt x="528" y="-54" on="1"/>
        <pt x="528" y="-61" on="0"/>
        <pt x="547" y="-61" on="1"/>
        <pt x="554" y="-61" on="0"/>
        <pt x="580" y="-59" on="0"/>
        <pt x="608" y="-56" on="0"/>
        <pt x="636" y="-53" on="0"/>
        <pt x="645" y="-51" on="1"/>
        <pt x="645" y="-162" on="1"/>
        <pt x="622" y="-168" on="0"/>
        <pt x="576" y="-172" on="0"/>
      </contour>
    </TTGlyph>
    <TTGlyph name="Eth" xMin="5" yMin="-10" xMax="846" yMax="750">
      <contour>
        <pt x="5" y="462" on="1"/>
        <pt x="93" y="462" on="1"/>
        <pt x="93" y="738" on="1"/>
        <pt x="198" y="744" on="0"/>
        <pt x="343" y="750" on="0"/>
        <pt x="397" y="750" on="1"/>
        <pt x="514" y="750" on="0"/>
        <pt x="683" y="705" on="0"/>
        <pt x="793" y="612" on="0"/>
        <pt x="846" y="468" on="0"/>
        <pt x="846" y="369" on="1"/>
        <pt x="846" y="267" on="0"/>
        <pt x="790" y="123" on="0"/>
        <pt x="669" y="32" on="0"/>
        <pt x="476" y="-10" on="0"/>
        <pt x="340" y="-10" on="1"/>
        <pt x="305" y="-10" on="0"/>
        <pt x="235" y="-8" on="0"/>
        <pt x="169" y="-5" on="0"/>
        <pt x="113" y="0" on="0"/>
        <pt x="93" y="3" on="1"/>
        <pt x="93" y="288" on="1"/>
        <pt x="5" y="288" on="1"/>
      </contour>
      <contour>
        <pt x="438" y="173" on="1"/>
        <pt x="487" y="173" on="0"/>
        <pt x="551" y="191" on="0"/>
        <pt x="590" y="236" on="0"/>
        <pt x="606" y="312" on="0"/>
        <pt x="606" y="369" on="1"/>
        <pt x="606" y="424" on="0"/>
        <pt x="588" y="500" on="0"/>
        <pt x="548" y="546" on="0"/>
        <pt x="481" y="566" on="0"/>
        <pt x="432" y="566" on="1"/>
        <pt x="414" y="566" on="0"/>
        <pt x="367" y="564" on="0"/>
        <pt x="328" y="561" on="1"/>
        <pt x="328" y="462" on="1"/>
        <pt x="426" y="462" on="1"/>
        <pt x="426" y="288" on="1"/>
        <pt x="328" y="288" on="1"/>
        <pt x="328" y="181" on="1"/>
        <pt x="350" y="177" on="0"/>
        <pt x="409" y="173" on="0"/>
      </contour>
    </TTGlyph>
    <TTGlyph name="Eth.sc" xMin="12" yMin="-8" xMax="787" yMax="585">
      <contour>
        <pt x="12" y="365" on="1"/>
        <pt x="91" y="365" on="1"/>
        <pt x="91" y="575" on="1"/>
        <pt x="191" y="580" on="0"/>
        <pt x="326" y="585" on="0"/>
        <pt x="376" y="585" on="1"/>
        <pt x="589" y="585" on="0"/>
        <pt x="787" y="441" on="0"/>
        <pt x="787" y="287" on="1"/>
        <pt x="787" y="206" on="0"/>
        <pt x="736" y="94" on="0"/>
        <pt x="623" y="24" on="0"/>
        <pt x="445" y="-8" on="0"/>
        <pt x="319" y="-8" on="1"/>
        <pt x="287" y="-8" on="0"/>
        <pt x="221" y="-7" on="0"/>
        <pt x="160" y="-4" on="0"/>
        <pt x="109" y="-1" on="0"/>
        <pt x="91" y="1" on="1"/>
        <pt x="91" y="217" on="1"/>
        <pt x="12" y="217" on="1"/>
      </contour>
      <contour>
        <pt x="413" y="164" on="1"/>
        <pt x="456" y="164" on="0"/>
        <pt x="513" y="174" on="0"/>
        <pt x="546" y="201" on="0"/>
        <pt x="560" y="249" on="0"/>
        <pt x="560" y="287" on="1"/>
        <pt x="560" y="323" on="0"/>
        <pt x="545" y="372" on="0"/>
        <pt x="510" y="400" on="0"/>
        <pt x="452" y="412" on="0"/>
        <pt x="409" y="412" on="1"/>
        <pt x="393" y="412" on="0"/>
        <pt x="352" y="411" on="0"/>
        <pt x="314" y="409" on="1"/>
        <pt x="314" y="365" on="1"/>
        <pt x="398" y="365" on="1"/>
        <pt x="398" y="217" on="1"/>
        <pt x="314" y="217" on="1"/>
        <pt x="314" y="170" on="1"/>
        <pt x="332" y="168" on="0"/>
        <pt x="387" y="164" on="0"/>
      </contour>
    </TTGlyph>
    <TTGlyph name="Etilde" xMin="65" yMin="0" xMax="691" yMax="1011">
      <contour>
        <pt x="102" y="861" on="1"/>
        <pt x="140" y="936" on="0"/>
        <pt x="242" y="1011" on="0"/>
        <pt x="288" y="1011" on="1"/>
        <pt x="317" y="1011" on="0"/>
        <pt x="375" y="1000" on="0"/>
        <pt x="432" y="986" on="0"/>
        <pt x="490" y="975" on="0"/>
        <pt x="519" y="975" on="1"/>
        <pt x="543" y="975" on="0"/>
        <pt x="590" y="988" on="0"/>
        <pt x="624" y="1011" on="1"/>
        <pt x="647" y="973" on="1"/>
        <pt x="607" y="898" on="0"/>
        <pt x="506" y="823" on="0"/>
        <pt x="462" y="823" on="1"/>
        <pt x="433" y="823" on="0"/>
        <pt x="375" y="834" on="0"/>
        <pt x="317" y="848" on="0"/>
        <pt x="259" y="859" on="0"/>
        <pt x="230" y="859" on="1"/>
        <pt x="204" y="859" on="0"/>
        <pt x="157" y="846" on="0"/>
        <pt x="126" y="823" on="1"/>
      </contour>
      <contour>
        <pt x="65" y="740" on="1"/>
        <pt x="681" y="740" on="1"/>
        <pt x="681" y="564" on="1"/>
        <pt x="300" y="564" on="1"/>
        <pt x="300" y="458" on="1"/>
        <pt x="641" y="458" on="1"/>
        <pt x="641" y="282" on="1"/>
        <pt x="300" y="282" on="1"/>
        <pt x="300" y="176" on="1"/>
        <pt x="691" y="176" on="1"/>
        <pt x="691" y="0" on="1"/>
        <pt x="65" y="0" on="1"/>
      </contour>
    </TTGlyph>
    <TTGlyph name="Etilde.sc" xMin="63" yMin="0" xMax="643" yMax="810">
      <contour>
        <pt x="95" y="672" on="1"/>
        <pt x="130" y="740" on="0"/>
        <pt x="225" y="809" on="0"/>
        <pt x="268" y="809" on="1"/>
        <pt x="295" y="809" on="0"/>
        <pt x="349" y="801" on="0"/>
        <pt x="403" y="791" on="0"/>
        <pt x="457" y="783" on="0"/>
        <pt x="484" y="783" on="1"/>
        <pt x="506" y="783" on="0"/>
        <pt x="548" y="792" on="0"/>
        <pt x="580" y="810" on="1"/>
        <pt x="601" y="777" on="1"/>
        <pt x="563" y="708" on="0"/>
        <pt x="469" y="640" on="0"/>
        <pt x="429" y="640" on="1"/>
        <pt x="402" y="640" on="0"/>
        <pt x="347" y="648" on="0"/>
        <pt x="293" y="659" on="0"/>
        <pt x="239" y="667" on="0"/>
        <pt x="212" y="667" on="1"/>
        <pt x="189" y="667" on="0"/>
        <pt x="146" y="657" on="0"/>
        <pt x="117" y="639" on="1"/>
      </contour>
      <contour>
        <pt x="63" y="577" on="1"/>
        <pt x="634" y="577" on="1"/>
        <pt x="634" y="418" on="1"/>
        <pt x="286" y="418" on="1"/>
        <pt x="286" y="356" on="1"/>
        <pt x="596" y="356" on="1"/>
        <pt x="596" y="222" on="1"/>
        <pt x="286" y="222" on="1"/>
        <pt x="286" y="160" on="1"/>
        <pt x="643" y="160" on="1"/>
        <pt x="643" y="0" on="1"/>
        <pt x="63" y="0" on="1"/>
      </contour>
    </TTGlyph>
    <TTGlyph name="Euro" xMin="32" yMin="-10" xMax="742" yMax="750">
      <contour>
        <pt x="32" y="516" on="1"/>
        <pt x="121" y="516" on="1"/>
        <pt x="155" y="631" on="0"/>
        <pt x="350" y="750" on="0"/>
        <pt x="524" y="750" on="1"/>
        <pt x="601" y="750" on="0"/>
        <pt x="711" y="733" on="0"/>
        <pt x="742" y="728" on="1"/>
        <pt x="687" y="543" on="1"/>
        <pt x="681" y="545" on="0"/>
        <pt x="654" y="549" on="0"/>
        <pt x="622" y="553" on="0"/>
        <pt x="589" y="555" on="0"/>
        <pt x="576" y="555" on="1"/>
        <pt x="488" y="555" on="0"/>
        <pt x="392" y="540" on="0"/>
        <pt x="369" y="516" on="1"/>
        <pt x="672" y="516" on="1"/>
        <pt x="652" y="392" on="1"/>
        <pt x="338" y="392" on="1"/>
        <pt x="338" y="347" on="1"/>
        <pt x="640" y="347" on="1"/>
        <pt x="620" y="223" on="1"/>
        <pt x="369" y="223" on="1"/>
        <pt x="392" y="199" on="0"/>
        <pt x="490" y="184" on="0"/>
        <pt x="579" y="184" on="1"/>
        <pt x="623" y="184" on="0"/>
        <pt x="700" y="190" on="0"/>
        <pt x="742" y="201" on="1"/>
        <pt x="742" y="11" on="1"/>
        <pt x="710" y="1" on="0"/>
        <pt x="601" y="-10" on="0"/>
        <pt x="542" y="-10" on="1"/>
        <pt x="356" y="-10" on="0"/>
        <pt x="154" y="108" on="0"/>
        <pt x="120" y="223" on="1"/>
        <pt x="32" y="223" on="1"/>
        <pt x="32" y="347" on="1"/>
        <pt x="102" y="347" on="1"/>
        <pt x="102" y="392" on="1"/>
        <pt x="32" y="392" on="1"/>
      </contour>
    </TTGlyph>
    <TTGlyph name="Euro.tab" xMin="-5" yMin="-10" xMax="668" yMax="750">
      <contour>
        <pt x="-5" y="516" on="1"/>
        <pt x="77" y="516" on="1"/>
        <pt x="108" y="631" on="0"/>
        <pt x="292" y="750" on="0"/>
        <pt x="456" y="750" on="1"/>
        <pt x="531" y="750" on="0"/>
        <pt x="638" y="733" on="0"/>
        <pt x="667" y="728" on="1"/>
        <pt x="614" y="543" on="1"/>
        <pt x="608" y="545" on="0"/>
        <pt x="582" y="549" on="0"/>
        <pt x="551" y="553" on="0"/>
        <pt x="519" y="555" on="0"/>
        <pt x="507" y="555" on="1"/>
        <pt x="426" y="555" on="0"/>
        <pt x="338" y="540" on="0"/>
        <pt x="317" y="516" on="1"/>
        <pt x="603" y="516" on="1"/>
        <pt x="585" y="392" on="1"/>
        <pt x="290" y="392" on="1"/>
        <pt x="290" y="347" on="1"/>
        <pt x="574" y="347" on="1"/>
        <pt x="555" y="223" on="1"/>
        <pt x="317" y="223" on="1"/>
        <pt x="338" y="199" on="0"/>
        <pt x="427" y="184" on="0"/>
        <pt x="510" y="184" on="1"/>
        <pt x="553" y="184" on="0"/>
        <pt x="627" y="190" on="0"/>
        <pt x="668" y="201" on="1"/>
        <pt x="668" y="11" on="1"/>
        <pt x="653" y="6" on="0"/>
        <pt x="610" y="-2" on="0"/>
        <pt x="559" y="-7" on="0"/>
        <pt x="502" y="-10" on="0"/>
        <pt x="474" y="-10" on="1"/>
        <pt x="386" y="-10" on="0"/>
        <pt x="252" y="20" on="0"/>
        <pt x="154" y="78" on="0"/>
        <pt x="92" y="166" on="0"/>
        <pt x="76" y="223" on="1"/>
        <pt x="-5" y="223" on="1"/>
        <pt x="-5" y="347" on="1"/>
        <pt x="59" y="347" on="1"/>
        <pt x="59" y="392" on="1"/>
        <pt x="-5" y="392" on="1"/>
      </contour>
    </TTGlyph>
    <TTGlyph name="F" xMin="65" yMin="0" xMax="681" yMax="740">
      <contour>
        <pt x="65" y="740" on="1"/>
        <pt x="681" y="740" on="1"/>
        <pt x="681" y="564" on="1"/>
        <pt x="300" y="564" on="1"/>
        <pt x="300" y="428" on="1"/>
        <pt x="641" y="428" on="1"/>
        <pt x="641" y="252" on="1"/>
        <pt x="300" y="252" on="1"/>
        <pt x="300" y="0" on="1"/>
        <pt x="65" y="0" on="1"/>
      </contour>
    </TTGlyph>
    <TTGlyph name="F.sc" xMin="63" yMin="0" xMax="634" yMax="577">
      <contour>
        <pt x="63" y="577" on="1"/>
        <pt x="634" y="577" on="1"/>
        <pt x="634" y="413" on="1"/>
        <pt x="286" y="413" on="1"/>
        <pt x="286" y="330" on="1"/>
        <pt x="598" y="330" on="1"/>
        <pt x="598" y="185" on="1"/>
        <pt x="286" y="185" on="1"/>
        <pt x="286" y="0" on="1"/>
        <pt x="63" y="0" on="1"/>
      </contour>
    </TTGlyph>
    <TTGlyph name="F_B.sc" xMin="63" yMin="-8" xMax="1366" yMax="585">
      <contour>
        <pt x="63" y="577" on="1"/>
        <pt x="634" y="577" on="1"/>
        <pt x="634" y="413" on="1"/>
        <pt x="286" y="413" on="1"/>
        <pt x="286" y="330" on="1"/>
        <pt x="598" y="330" on="1"/>
        <pt x="598" y="185" on="1"/>
        <pt x="286" y="185" on="1"/>
        <pt x="286" y="0" on="1"/>
        <pt x="63" y="0" on="1"/>
      </contour>
      <contour>
        <pt x="1064" y="-8" on="1"/>
        <pt x="975" y="-8" on="0"/>
        <pt x="811" y="-2" on="0"/>
        <pt x="716" y="4" on="1"/>
        <pt x="716" y="573" on="1"/>
        <pt x="794" y="579" on="0"/>
        <pt x="941" y="585" on="0"/>
        <pt x="1016" y="585" on="1"/>
        <pt x="1185" y="585" on="0"/>
        <pt x="1343" y="503" on="0"/>
        <pt x="1343" y="416" on="1"/>
        <pt x="1343" y="371" on="0"/>
        <pt x="1283" y="316" on="0"/>
        <pt x="1220" y="300" on="1"/>
        <pt x="1220" y="297" on="1"/>
        <pt x="1291" y="286" on="0"/>
        <pt x="1366" y="217" on="0"/>
        <pt x="1366" y="163" on="1"/>
        <pt x="1366" y="73" on="0"/>
        <pt x="1221" y="-8" on="0"/>
      </contour>
      <contour>
        <pt x="1046" y="135" on="1"/>
        <pt x="1099" y="135" on="0"/>
        <pt x="1147" y="159" on="0"/>
        <pt x="1147" y="188" on="1"/>
        <pt x="1147" y="214" on="0"/>
        <pt x="1101" y="231" on="0"/>
        <pt x="1044" y="231" on="1"/>
        <pt x="930" y="231" on="1"/>
        <pt x="930" y="136" on="1"/>
        <pt x="936" y="135" on="0"/>
        <pt x="948" y="135" on="0"/>
        <pt x="971" y="135" on="0"/>
        <pt x="1011" y="135" on="0"/>
      </contour>
      <contour>
        <pt x="1023" y="354" on="1"/>
        <pt x="1080" y="354" on="0"/>
        <pt x="1125" y="373" on="0"/>
        <pt x="1125" y="399" on="1"/>
        <pt x="1125" y="424" on="0"/>
        <pt x="1081" y="443" on="0"/>
        <pt x="1024" y="443" on="1"/>
        <pt x="996" y="443" on="0"/>
        <pt x="948" y="442" on="0"/>
        <pt x="930" y="439" on="1"/>
        <pt x="930" y="354" on="1"/>
      </contour>
    </TTGlyph>
    <TTGlyph name="F_F.sc" xMin="63" yMin="0" xMax="1287" yMax="577">
      <contour>
        <pt x="63" y="577" on="1"/>
        <pt x="634" y="577" on="1"/>
        <pt x="634" y="413" on="1"/>
        <pt x="286" y="413" on="1"/>
        <pt x="286" y="330" on="1"/>
        <pt x="598" y="330" on="1"/>
        <pt x="598" y="185" on="1"/>
        <pt x="286" y="185" on="1"/>
        <pt x="286" y="0" on="1"/>
        <pt x="63" y="0" on="1"/>
      </contour>
      <contour>
        <pt x="716" y="577" on="1"/>
        <pt x="1287" y="577" on="1"/>
        <pt x="1287" y="413" on="1"/>
        <pt x="939" y="413" on="1"/>
        <pt x="939" y="330" on="1"/>
        <pt x="1251" y="330" on="1"/>
        <pt x="1251" y="185" on="1"/>
        <pt x="939" y="185" on="1"/>
        <pt x="939" y="0" on="1"/>
        <pt x="716" y="0" on="1"/>
      </contour>
    </TTGlyph>
    <TTGlyph name="F_F_B.sc" xMin="63" yMin="-8" xMax="2019" yMax="585">
      <contour>
        <pt x="63" y="577" on="1"/>
        <pt x="634" y="577" on="1"/>
        <pt x="634" y="413" on="1"/>
        <pt x="286" y="413" on="1"/>
        <pt x="286" y="330" on="1"/>
        <pt x="598" y="330" on="1"/>
        <pt x="598" y="185" on="1"/>
        <pt x="286" y="185" on="1"/>
        <pt x="286" y="0" on="1"/>
        <pt x="63" y="0" on="1"/>
      </contour>
      <contour>
        <pt x="716" y="577" on="1"/>
        <pt x="1287" y="577" on="1"/>
        <pt x="1287" y="413" on="1"/>
        <pt x="939" y="413" on="1"/>
        <pt x="939" y="330" on="1"/>
        <pt x="1251" y="330" on="1"/>
        <pt x="1251" y="185" on="1"/>
        <pt x="939" y="185" on="1"/>
        <pt x="939" y="0" on="1"/>
        <pt x="716" y="0" on="1"/>
      </contour>
      <contour>
        <pt x="1717" y="-8" on="1"/>
        <pt x="1628" y="-8" on="0"/>
        <pt x="1464" y="-2" on="0"/>
        <pt x="1369" y="4" on="1"/>
        <pt x="1369" y="573" on="1"/>
        <pt x="1447" y="579" on="0"/>
        <pt x="1594" y="585" on="0"/>
        <pt x="1669" y="585" on="1"/>
        <pt x="1838" y="585" on="0"/>
        <pt x="1996" y="503" on="0"/>
        <pt x="1996" y="416" on="1"/>
        <pt x="1996" y="371" on="0"/>
        <pt x="1936" y="316" on="0"/>
        <pt x="1873" y="300" on="1"/>
        <pt x="1873" y="297" on="1"/>
        <pt x="1944" y="286" on="0"/>
        <pt x="2019" y="217" on="0"/>
        <pt x="2019" y="163" on="1"/>
        <pt x="2019" y="73" on="0"/>
        <pt x="1874" y="-8" on="0"/>
      </contour>
      <contour>
        <pt x="1699" y="135" on="1"/>
        <pt x="1752" y="135" on="0"/>
        <pt x="1800" y="159" on="0"/>
        <pt x="1800" y="188" on="1"/>
        <pt x="1800" y="214" on="0"/>
        <pt x="1754" y="231" on="0"/>
        <pt x="1697" y="231" on="1"/>
        <pt x="1583" y="231" on="1"/>
        <pt x="1583" y="136" on="1"/>
        <pt x="1589" y="135" on="0"/>
        <pt x="1601" y="135" on="0"/>
        <pt x="1624" y="135" on="0"/>
        <pt x="1664" y="135" on="0"/>
      </contour>
      <contour>
        <pt x="1676" y="354" on="1"/>
        <pt x="1733" y="354" on="0"/>
        <pt x="1778" y="373" on="0"/>
        <pt x="1778" y="399" on="1"/>
        <pt x="1778" y="424" on="0"/>
        <pt x="1734" y="443" on="0"/>
        <pt x="1677" y="443" on="1"/>
        <pt x="1649" y="443" on="0"/>
        <pt x="1601" y="442" on="0"/>
        <pt x="1583" y="439" on="1"/>
        <pt x="1583" y="354" on="1"/>
      </contour>
    </TTGlyph>
    <TTGlyph name="F_F_H.sc" xMin="63" yMin="0" xMax="2080" yMax="577">
      <contour>
        <pt x="63" y="577" on="1"/>
        <pt x="634" y="577" on="1"/>
        <pt x="634" y="413" on="1"/>
        <pt x="286" y="413" on="1"/>
        <pt x="286" y="330" on="1"/>
        <pt x="598" y="330" on="1"/>
        <pt x="598" y="185" on="1"/>
        <pt x="286" y="185" on="1"/>
        <pt x="286" y="0" on="1"/>
        <pt x="63" y="0" on="1"/>
      </contour>
      <contour>
        <pt x="716" y="577" on="1"/>
        <pt x="1287" y="577" on="1"/>
        <pt x="1287" y="413" on="1"/>
        <pt x="939" y="413" on="1"/>
        <pt x="939" y="330" on="1"/>
        <pt x="1251" y="330" on="1"/>
        <pt x="1251" y="185" on="1"/>
        <pt x="939" y="185" on="1"/>
        <pt x="939" y="0" on="1"/>
        <pt x="716" y="0" on="1"/>
      </contour>
      <contour>
        <pt x="1369" y="577" on="1"/>
        <pt x="1592" y="577" on="1"/>
        <pt x="1592" y="379" on="1"/>
        <pt x="1857" y="379" on="1"/>
        <pt x="1857" y="577" on="1"/>
        <pt x="2080" y="577" on="1"/>
        <pt x="2080" y="0" on="1"/>
        <pt x="1857" y="0" on="1"/>
        <pt x="1857" y="214" on="1"/>
        <pt x="1592" y="214" on="1"/>
        <pt x="1592" y="0" on="1"/>
        <pt x="1369" y="0" on="1"/>
      </contour>
    </TTGlyph>
    <TTGlyph name="F_F_I.sc" xMin="63" yMin="0" xMax="1592" yMax="577">
      <contour>
        <pt x="63" y="577" on="1"/>
        <pt x="634" y="577" on="1"/>
        <pt x="634" y="413" on="1"/>
        <pt x="286" y="413" on="1"/>
        <pt x="286" y="330" on="1"/>
        <pt x="598" y="330" on="1"/>
        <pt x="598" y="185" on="1"/>
        <pt x="286" y="185" on="1"/>
        <pt x="286" y="0" on="1"/>
        <pt x="63" y="0" on="1"/>
      </contour>
      <contour>
        <pt x="716" y="577" on="1"/>
        <pt x="1287" y="577" on="1"/>
        <pt x="1287" y="413" on="1"/>
        <pt x="939" y="413" on="1"/>
        <pt x="939" y="330" on="1"/>
        <pt x="1251" y="330" on="1"/>
        <pt x="1251" y="185" on="1"/>
        <pt x="939" y="185" on="1"/>
        <pt x="939" y="0" on="1"/>
        <pt x="716" y="0" on="1"/>
      </contour>
      <contour>
        <pt x="1369" y="577" on="1"/>
        <pt x="1592" y="577" on="1"/>
        <pt x="1592" y="0" on="1"/>
        <pt x="1369" y="0" on="1"/>
      </contour>
    </TTGlyph>
    <TTGlyph name="F_F_J.sc" xMin="63" yMin="-180" xMax="1601" yMax="577">
      <contour>
        <pt x="63" y="577" on="1"/>
        <pt x="634" y="577" on="1"/>
        <pt x="634" y="413" on="1"/>
        <pt x="286" y="413" on="1"/>
        <pt x="286" y="330" on="1"/>
        <pt x="598" y="330" on="1"/>
        <pt x="598" y="185" on="1"/>
        <pt x="286" y="185" on="1"/>
        <pt x="286" y="0" on="1"/>
        <pt x="63" y="0" on="1"/>
      </contour>
      <contour>
        <pt x="716" y="577" on="1"/>
        <pt x="1287" y="577" on="1"/>
        <pt x="1287" y="413" on="1"/>
        <pt x="939" y="413" on="1"/>
        <pt x="939" y="330" on="1"/>
        <pt x="1251" y="330" on="1"/>
        <pt x="1251" y="185" on="1"/>
        <pt x="939" y="185" on="1"/>
        <pt x="939" y="0" on="1"/>
        <pt x="716" y="0" on="1"/>
      </contour>
      <contour>
        <pt x="1311" y="-121" on="1"/>
        <pt x="1330" y="-80" on="0"/>
        <pt x="1356" y="-12" on="0"/>
        <pt x="1371" y="54" on="0"/>
        <pt x="1378" y="121" on="0"/>
        <pt x="1378" y="162" on="1"/>
        <pt x="1378" y="577" on="1"/>
        <pt x="1601" y="577" on="1"/>
        <pt x="1601" y="145" on="1"/>
        <pt x="1601" y="103" on="0"/>
        <pt x="1586" y="26" on="0"/>
        <pt x="1551" y="-52" on="0"/>
        <pt x="1494" y="-133" on="0"/>
        <pt x="1452" y="-180" on="1"/>
      </contour>
    </TTGlyph>
    <TTGlyph name="F_F_K.sc" xMin="63" yMin="0" xMax="2071" yMax="577">
      <contour>
        <pt x="63" y="577" on="1"/>
        <pt x="634" y="577" on="1"/>
        <pt x="634" y="413" on="1"/>
        <pt x="286" y="413" on="1"/>
        <pt x="286" y="330" on="1"/>
        <pt x="598" y="330" on="1"/>
        <pt x="598" y="185" on="1"/>
        <pt x="286" y="185" on="1"/>
        <pt x="286" y="0" on="1"/>
        <pt x="63" y="0" on="1"/>
      </contour>
      <contour>
        <pt x="716" y="577" on="1"/>
        <pt x="1287" y="577" on="1"/>
        <pt x="1287" y="413" on="1"/>
        <pt x="939" y="413" on="1"/>
        <pt x="939" y="330" on="1"/>
        <pt x="1251" y="330" on="1"/>
        <pt x="1251" y="185" on="1"/>
        <pt x="939" y="185" on="1"/>
        <pt x="939" y="0" on="1"/>
        <pt x="716" y="0" on="1"/>
      </contour>
      <contour>
        <pt x="1369" y="577" on="1"/>
        <pt x="1592" y="577" on="1"/>
        <pt x="1592" y="369" on="1"/>
        <pt x="1667" y="369" on="1"/>
        <pt x="1808" y="577" on="1"/>
        <pt x="2056" y="577" on="1"/>
        <pt x="1872" y="332" on="1"/>
        <pt x="1818" y="311" on="1"/>
        <pt x="1818" y="303" on="1"/>
        <pt x="1875" y="280" on="1"/>
        <pt x="2071" y="0" on="1"/>
        <pt x="1823" y="0" on="1"/>
        <pt x="1688" y="204" on="1"/>
        <pt x="1592" y="204" on="1"/>
        <pt x="1592" y="0" on="1"/>
        <pt x="1369" y="0" on="1"/>
      </contour>
    </TTGlyph>
    <TTGlyph name="F_F_L.sc" xMin="63" yMin="0" xMax="1894" yMax="577">
      <contour>
        <pt x="1369" y="577" on="1"/>
        <pt x="1592" y="577" on="1"/>
        <pt x="1592" y="164" on="1"/>
        <pt x="1894" y="164" on="1"/>
        <pt x="1894" y="0" on="1"/>
        <pt x="1369" y="0" on="1"/>
      </contour>
      <contour>
        <pt x="63" y="577" on="1"/>
        <pt x="634" y="577" on="1"/>
        <pt x="634" y="413" on="1"/>
        <pt x="286" y="413" on="1"/>
        <pt x="286" y="330" on="1"/>
        <pt x="598" y="330" on="1"/>
        <pt x="598" y="185" on="1"/>
        <pt x="286" y="185" on="1"/>
        <pt x="286" y="0" on="1"/>
        <pt x="63" y="0" on="1"/>
      </contour>
      <contour>
        <pt x="716" y="577" on="1"/>
        <pt x="1287" y="577" on="1"/>
        <pt x="1287" y="413" on="1"/>
        <pt x="939" y="413" on="1"/>
        <pt x="939" y="330" on="1"/>
        <pt x="1251" y="330" on="1"/>
        <pt x="1251" y="185" on="1"/>
        <pt x="939" y="185" on="1"/>
        <pt x="939" y="0" on="1"/>
        <pt x="716" y="0" on="1"/>
      </contour>
    </TTGlyph>
    <TTGlyph name="F_F_T.sc" xMin="63" yMin="0" xMax="1909" yMax="577">
      <contour>
        <pt x="1493" y="413" on="1"/>
        <pt x="1301" y="413" on="1"/>
        <pt x="1301" y="577" on="1"/>
        <pt x="1909" y="577" on="1"/>
        <pt x="1909" y="413" on="1"/>
        <pt x="1716" y="413" on="1"/>
        <pt x="1716" y="0" on="1"/>
        <pt x="1493" y="0" on="1"/>
      </contour>
      <contour>
        <pt x="63" y="577" on="1"/>
        <pt x="634" y="577" on="1"/>
        <pt x="634" y="413" on="1"/>
        <pt x="286" y="413" on="1"/>
        <pt x="286" y="330" on="1"/>
        <pt x="598" y="330" on="1"/>
        <pt x="598" y="185" on="1"/>
        <pt x="286" y="185" on="1"/>
        <pt x="286" y="0" on="1"/>
        <pt x="63" y="0" on="1"/>
      </contour>
      <contour>
        <pt x="716" y="577" on="1"/>
        <pt x="1287" y="577" on="1"/>
        <pt x="1287" y="413" on="1"/>
        <pt x="939" y="413" on="1"/>
        <pt x="939" y="330" on="1"/>
        <pt x="1251" y="330" on="1"/>
        <pt x="1251" y="185" on="1"/>
        <pt x="939" y="185" on="1"/>
        <pt x="939" y="0" on="1"/>
        <pt x="716" y="0" on="1"/>
      </contour>
    </TTGlyph>
    <TTGlyph name="F_H.sc" xMin="63" yMin="0" xMax="1427" yMax="577">
      <contour>
        <pt x="63" y="577" on="1"/>
        <pt x="634" y="577" on="1"/>
        <pt x="634" y="413" on="1"/>
        <pt x="286" y="413" on="1"/>
        <pt x="286" y="330" on="1"/>
        <pt x="598" y="330" on="1"/>
        <pt x="598" y="185" on="1"/>
        <pt x="286" y="185" on="1"/>
        <pt x="286" y="0" on="1"/>
        <pt x="63" y="0" on="1"/>
      </contour>
      <contour>
        <pt x="716" y="577" on="1"/>
        <pt x="939" y="577" on="1"/>
        <pt x="939" y="379" on="1"/>
        <pt x="1204" y="379" on="1"/>
        <pt x="1204" y="577" on="1"/>
        <pt x="1427" y="577" on="1"/>
        <pt x="1427" y="0" on="1"/>
        <pt x="1204" y="0" on="1"/>
        <pt x="1204" y="214" on="1"/>
        <pt x="939" y="214" on="1"/>
        <pt x="939" y="0" on="1"/>
        <pt x="716" y="0" on="1"/>
      </contour>
    </TTGlyph>
    <TTGlyph name="F_I.sc" xMin="63" yMin="0" xMax="939" yMax="577">
      <contour>
        <pt x="63" y="577" on="1"/>
        <pt x="634" y="577" on="1"/>
        <pt x="634" y="413" on="1"/>
        <pt x="286" y="413" on="1"/>
        <pt x="286" y="330" on="1"/>
        <pt x="598" y="330" on="1"/>
        <pt x="598" y="185" on="1"/>
        <pt x="286" y="185" on="1"/>
        <pt x="286" y="0" on="1"/>
        <pt x="63" y="0" on="1"/>
      </contour>
      <contour>
        <pt x="716" y="577" on="1"/>
        <pt x="939" y="577" on="1"/>
        <pt x="939" y="0" on="1"/>
        <pt x="716" y="0" on="1"/>
      </contour>
    </TTGlyph>
    <TTGlyph name="F_J.sc" xMin="63" yMin="-180" xMax="948" yMax="577">
      <contour>
        <pt x="63" y="577" on="1"/>
        <pt x="634" y="577" on="1"/>
        <pt x="634" y="413" on="1"/>
        <pt x="286" y="413" on="1"/>
        <pt x="286" y="330" on="1"/>
        <pt x="598" y="330" on="1"/>
        <pt x="598" y="185" on="1"/>
        <pt x="286" y="185" on="1"/>
        <pt x="286" y="0" on="1"/>
        <pt x="63" y="0" on="1"/>
      </contour>
      <contour>
        <pt x="658" y="-121" on="1"/>
        <pt x="677" y="-80" on="0"/>
        <pt x="703" y="-12" on="0"/>
        <pt x="718" y="54" on="0"/>
        <pt x="725" y="121" on="0"/>
        <pt x="725" y="162" on="1"/>
        <pt x="725" y="577" on="1"/>
        <pt x="948" y="577" on="1"/>
        <pt x="948" y="145" on="1"/>
        <pt x="948" y="103" on="0"/>
        <pt x="933" y="26" on="0"/>
        <pt x="898" y="-52" on="0"/>
        <pt x="841" y="-133" on="0"/>
        <pt x="799" y="-180" on="1"/>
      </contour>
    </TTGlyph>
    <TTGlyph name="F_K.sc" xMin="63" yMin="0" xMax="1418" yMax="577">
      <contour>
        <pt x="63" y="577" on="1"/>
        <pt x="634" y="577" on="1"/>
        <pt x="634" y="413" on="1"/>
        <pt x="286" y="413" on="1"/>
        <pt x="286" y="330" on="1"/>
        <pt x="598" y="330" on="1"/>
        <pt x="598" y="185" on="1"/>
        <pt x="286" y="185" on="1"/>
        <pt x="286" y="0" on="1"/>
        <pt x="63" y="0" on="1"/>
      </contour>
      <contour>
        <pt x="716" y="577" on="1"/>
        <pt x="939" y="577" on="1"/>
        <pt x="939" y="369" on="1"/>
        <pt x="1014" y="369" on="1"/>
        <pt x="1155" y="577" on="1"/>
        <pt x="1403" y="577" on="1"/>
        <pt x="1219" y="332" on="1"/>
        <pt x="1165" y="311" on="1"/>
        <pt x="1165" y="303" on="1"/>
        <pt x="1222" y="280" on="1"/>
        <pt x="1418" y="0" on="1"/>
        <pt x="1170" y="0" on="1"/>
        <pt x="1035" y="204" on="1"/>
        <pt x="939" y="204" on="1"/>
        <pt x="939" y="0" on="1"/>
        <pt x="716" y="0" on="1"/>
      </contour>
    </TTGlyph>
    <TTGlyph name="F_L.sc" xMin="63" yMin="0" xMax="1241" yMax="577">
      <contour>
        <pt x="716" y="577" on="1"/>
        <pt x="939" y="577" on="1"/>
        <pt x="939" y="164" on="1"/>
        <pt x="1241" y="164" on="1"/>
        <pt x="1241" y="0" on="1"/>
        <pt x="716" y="0" on="1"/>
      </contour>
      <contour>
        <pt x="63" y="577" on="1"/>
        <pt x="634" y="577" on="1"/>
        <pt x="634" y="413" on="1"/>
        <pt x="286" y="413" on="1"/>
        <pt x="286" y="330" on="1"/>
        <pt x="598" y="330" on="1"/>
        <pt x="598" y="185" on="1"/>
        <pt x="286" y="185" on="1"/>
        <pt x="286" y="0" on="1"/>
        <pt x="63" y="0" on="1"/>
      </contour>
    </TTGlyph>
    <TTGlyph name="F_T.sc" xMin="63" yMin="0" xMax="1256" yMax="577">
      <contour>
        <pt x="840" y="413" on="1"/>
        <pt x="648" y="413" on="1"/>
        <pt x="648" y="577" on="1"/>
        <pt x="1256" y="577" on="1"/>
        <pt x="1256" y="413" on="1"/>
        <pt x="1063" y="413" on="1"/>
        <pt x="1063" y="0" on="1"/>
        <pt x="840" y="0" on="1"/>
      </contour>
      <contour>
        <pt x="63" y="577" on="1"/>
        <pt x="634" y="577" on="1"/>
        <pt x="634" y="413" on="1"/>
        <pt x="286" y="413" on="1"/>
        <pt x="286" y="330" on="1"/>
        <pt x="598" y="330" on="1"/>
        <pt x="598" y="185" on="1"/>
        <pt x="286" y="185" on="1"/>
        <pt x="286" y="0" on="1"/>
        <pt x="63" y="0" on="1"/>
      </contour>
    </TTGlyph>
    <TTGlyph name="G" xMin="32" yMin="-15" xMax="724" yMax="755">
      <contour>
        <pt x="456" y="-15" on="1"/>
        <pt x="239" y="-15" on="0"/>
        <pt x="32" y="172" on="0"/>
        <pt x="32" y="369" on="1"/>
        <pt x="32" y="565" on="0"/>
        <pt x="246" y="755" on="0"/>
        <pt x="467" y="755" on="1"/>
        <pt x="498" y="755" on="0"/>
        <pt x="566" y="751" on="0"/>
        <pt x="632" y="745" on="0"/>
        <pt x="691" y="736" on="0"/>
        <pt x="713" y="731" on="1"/>
        <pt x="713" y="545" on="1"/>
        <pt x="640" y="556" on="0"/>
        <pt x="523" y="566" on="0"/>
        <pt x="485" y="566" on="1"/>
        <pt x="418" y="566" on="0"/>
        <pt x="336" y="551" on="0"/>
        <pt x="290" y="508" on="0"/>
        <pt x="274" y="431" on="0"/>
        <pt x="274" y="369" on="1"/>
        <pt x="274" y="309" on="0"/>
        <pt x="288" y="233" on="0"/>
        <pt x="329" y="190" on="0"/>
        <pt x="401" y="175" on="0"/>
        <pt x="458" y="175" on="1"/>
        <pt x="469" y="175" on="0"/>
        <pt x="494" y="175" on="0"/>
        <pt x="508" y="176" on="1"/>
        <pt x="508" y="376" on="1"/>
        <pt x="724" y="376" on="1"/>
        <pt x="724" y="31" on="1"/>
        <pt x="694" y="21" on="0"/>
        <pt x="623" y="4" on="0"/>
        <pt x="551" y="-8" on="0"/>
        <pt x="483" y="-15" on="0"/>
      </contour>
    </TTGlyph>
    <TTGlyph name="G.sc" xMin="32" yMin="-14" xMax="672" yMax="590">
      <contour>
        <pt x="425" y="-14" on="1"/>
        <pt x="222" y="-14" on="0"/>
        <pt x="32" y="132" on="0"/>
        <pt x="32" y="288" on="1"/>
        <pt x="32" y="443" on="0"/>
        <pt x="228" y="590" on="0"/>
        <pt x="433" y="590" on="1"/>
        <pt x="461" y="590" on="0"/>
        <pt x="525" y="587" on="0"/>
        <pt x="586" y="582" on="0"/>
        <pt x="642" y="576" on="0"/>
        <pt x="662" y="572" on="1"/>
        <pt x="662" y="402" on="1"/>
        <pt x="593" y="407" on="0"/>
        <pt x="484" y="412" on="0"/>
        <pt x="450" y="412" on="1"/>
        <pt x="385" y="412" on="0"/>
        <pt x="311" y="405" on="0"/>
        <pt x="272" y="380" on="0"/>
        <pt x="262" y="330" on="0"/>
        <pt x="262" y="288" on="1"/>
        <pt x="262" y="247" on="0"/>
        <pt x="272" y="199" on="0"/>
        <pt x="306" y="173" on="0"/>
        <pt x="371" y="166" on="0"/>
        <pt x="426" y="166" on="1"/>
        <pt x="466" y="166" on="1"/>
        <pt x="466" y="293" on="1"/>
        <pt x="672" y="293" on="1"/>
        <pt x="672" y="26" on="1"/>
        <pt x="643" y="17" on="0"/>
        <pt x="577" y="3" on="0"/>
        <pt x="511" y="-8" on="0"/>
        <pt x="449" y="-14" on="0"/>
      </contour>
    </TTGlyph>
    <TTGlyph name="Gacute" xMin="32" yMin="-15" xMax="724" yMax="1008">
      <contour>
        <pt x="311" y="817" on="1"/>
        <pt x="373" y="1008" on="1"/>
        <pt x="608" y="1008" on="1"/>
        <pt x="476" y="807" on="1"/>
      </contour>
      <contour>
        <pt x="456" y="-15" on="1"/>
        <pt x="239" y="-15" on="0"/>
        <pt x="32" y="172" on="0"/>
        <pt x="32" y="369" on="1"/>
        <pt x="32" y="565" on="0"/>
        <pt x="246" y="755" on="0"/>
        <pt x="467" y="755" on="1"/>
        <pt x="498" y="755" on="0"/>
        <pt x="566" y="751" on="0"/>
        <pt x="632" y="745" on="0"/>
        <pt x="691" y="736" on="0"/>
        <pt x="713" y="731" on="1"/>
        <pt x="713" y="545" on="1"/>
        <pt x="640" y="556" on="0"/>
        <pt x="523" y="566" on="0"/>
        <pt x="485" y="566" on="1"/>
        <pt x="418" y="566" on="0"/>
        <pt x="336" y="551" on="0"/>
        <pt x="290" y="508" on="0"/>
        <pt x="274" y="431" on="0"/>
        <pt x="274" y="369" on="1"/>
        <pt x="274" y="309" on="0"/>
        <pt x="288" y="233" on="0"/>
        <pt x="329" y="190" on="0"/>
        <pt x="401" y="175" on="0"/>
        <pt x="458" y="175" on="1"/>
        <pt x="469" y="175" on="0"/>
        <pt x="494" y="175" on="0"/>
        <pt x="508" y="176" on="1"/>
        <pt x="508" y="376" on="1"/>
        <pt x="724" y="376" on="1"/>
        <pt x="724" y="31" on="1"/>
        <pt x="694" y="21" on="0"/>
        <pt x="623" y="4" on="0"/>
        <pt x="551" y="-8" on="0"/>
        <pt x="483" y="-15" on="0"/>
      </contour>
    </TTGlyph>
    <TTGlyph name="Gacute.sc" xMin="32" yMin="-14" xMax="672" yMax="802">
      <contour>
        <pt x="425" y="-14" on="1"/>
        <pt x="223" y="-14" on="0"/>
        <pt x="32" y="131" on="0"/>
        <pt x="32" y="288" on="1"/>
        <pt x="32" y="443" on="0"/>
        <pt x="229" y="590" on="0"/>
        <pt x="433" y="590" on="1"/>
        <pt x="462" y="590" on="0"/>
        <pt x="526" y="587" on="0"/>
        <pt x="588" y="582" on="0"/>
        <pt x="642" y="576" on="0"/>
        <pt x="662" y="572" on="1"/>
        <pt x="662" y="397" on="1"/>
        <pt x="594" y="404" on="0"/>
        <pt x="484" y="412" on="0"/>
        <pt x="450" y="412" on="1"/>
        <pt x="389" y="412" on="0"/>
        <pt x="315" y="407" on="0"/>
        <pt x="275" y="383" on="0"/>
        <pt x="262" y="333" on="0"/>
        <pt x="262" y="288" on="1"/>
        <pt x="262" y="245" on="0"/>
        <pt x="274" y="196" on="0"/>
        <pt x="310" y="172" on="0"/>
        <pt x="374" y="166" on="0"/>
        <pt x="426" y="166" on="1"/>
        <pt x="466" y="166" on="1"/>
        <pt x="466" y="293" on="1"/>
        <pt x="672" y="293" on="1"/>
        <pt x="672" y="26" on="1"/>
        <pt x="645" y="18" on="0"/>
        <pt x="580" y="3" on="0"/>
        <pt x="514" y="-8" on="0"/>
        <pt x="450" y="-14" on="0"/>
      </contour>
      <contour>
        <pt x="286" y="640" on="1"/>
        <pt x="341" y="802" on="1"/>
        <pt x="564" y="802" on="1"/>
        <pt x="443" y="631" on="1"/>
      </contour>
    </TTGlyph>
    <TTGlyph name="Gbreve" xMin="32" yMin="-15" xMax="724" yMax="1006">
      <contour>
        <pt x="418" y="811" on="1"/>
        <pt x="343" y="811" on="0"/>
        <pt x="245" y="842" on="0"/>
        <pt x="186" y="895" on="0"/>
        <pt x="162" y="966" on="0"/>
        <pt x="162" y="1006" on="1"/>
        <pt x="311" y="1006" on="1"/>
        <pt x="311" y="985" on="0"/>
        <pt x="320" y="951" on="0"/>
        <pt x="344" y="928" on="0"/>
        <pt x="386" y="916" on="0"/>
        <pt x="418" y="916" on="1"/>
        <pt x="451" y="916" on="0"/>
        <pt x="492" y="928" on="0"/>
        <pt x="516" y="951" on="0"/>
        <pt x="525" y="985" on="0"/>
        <pt x="525" y="1006" on="1"/>
        <pt x="674" y="1006" on="1"/>
        <pt x="674" y="964" on="0"/>
        <pt x="650" y="893" on="0"/>
        <pt x="591" y="841" on="0"/>
        <pt x="492" y="811" on="0"/>
      </contour>
      <contour>
        <pt x="456" y="-15" on="1"/>
        <pt x="239" y="-15" on="0"/>
        <pt x="32" y="172" on="0"/>
        <pt x="32" y="369" on="1"/>
        <pt x="32" y="565" on="0"/>
        <pt x="246" y="755" on="0"/>
        <pt x="467" y="755" on="1"/>
        <pt x="498" y="755" on="0"/>
        <pt x="566" y="751" on="0"/>
        <pt x="632" y="745" on="0"/>
        <pt x="691" y="736" on="0"/>
        <pt x="713" y="731" on="1"/>
        <pt x="713" y="545" on="1"/>
        <pt x="640" y="556" on="0"/>
        <pt x="523" y="566" on="0"/>
        <pt x="485" y="566" on="1"/>
        <pt x="418" y="566" on="0"/>
        <pt x="336" y="551" on="0"/>
        <pt x="290" y="508" on="0"/>
        <pt x="274" y="431" on="0"/>
        <pt x="274" y="369" on="1"/>
        <pt x="274" y="309" on="0"/>
        <pt x="288" y="233" on="0"/>
        <pt x="329" y="190" on="0"/>
        <pt x="401" y="175" on="0"/>
        <pt x="458" y="175" on="1"/>
        <pt x="469" y="175" on="0"/>
        <pt x="494" y="175" on="0"/>
        <pt x="508" y="176" on="1"/>
        <pt x="508" y="376" on="1"/>
        <pt x="724" y="376" on="1"/>
        <pt x="724" y="31" on="1"/>
        <pt x="694" y="21" on="0"/>
        <pt x="623" y="4" on="0"/>
        <pt x="551" y="-8" on="0"/>
        <pt x="483" y="-15" on="0"/>
      </contour>
    </TTGlyph>
    <TTGlyph name="Gbreve.sc" xMin="32" yMin="-14" xMax="672" yMax="797">
      <contour>
        <pt x="425" y="-14" on="1"/>
        <pt x="223" y="-14" on="0"/>
        <pt x="32" y="131" on="0"/>
        <pt x="32" y="288" on="1"/>
        <pt x="32" y="443" on="0"/>
        <pt x="229" y="590" on="0"/>
        <pt x="433" y="590" on="1"/>
        <pt x="462" y="590" on="0"/>
        <pt x="526" y="587" on="0"/>
        <pt x="588" y="582" on="0"/>
        <pt x="642" y="576" on="0"/>
        <pt x="662" y="572" on="1"/>
        <pt x="662" y="397" on="1"/>
        <pt x="594" y="404" on="0"/>
        <pt x="484" y="412" on="0"/>
        <pt x="450" y="412" on="1"/>
        <pt x="389" y="412" on="0"/>
        <pt x="315" y="407" on="0"/>
        <pt x="275" y="383" on="0"/>
        <pt x="262" y="333" on="0"/>
        <pt x="262" y="288" on="1"/>
        <pt x="262" y="245" on="0"/>
        <pt x="274" y="196" on="0"/>
        <pt x="310" y="172" on="0"/>
        <pt x="374" y="166" on="0"/>
        <pt x="426" y="166" on="1"/>
        <pt x="466" y="166" on="1"/>
        <pt x="466" y="293" on="1"/>
        <pt x="672" y="293" on="1"/>
        <pt x="672" y="26" on="1"/>
        <pt x="645" y="18" on="0"/>
        <pt x="580" y="3" on="0"/>
        <pt x="514" y="-8" on="0"/>
        <pt x="450" y="-14" on="0"/>
      </contour>
      <contour>
        <pt x="388" y="633" on="1"/>
        <pt x="317" y="633" on="0"/>
        <pt x="225" y="660" on="0"/>
        <pt x="171" y="705" on="0"/>
        <pt x="150" y="764" on="0"/>
        <pt x="150" y="797" on="1"/>
        <pt x="290" y="797" on="1"/>
        <pt x="290" y="765" on="0"/>
        <pt x="329" y="729" on="0"/>
        <pt x="388" y="729" on="1"/>
        <pt x="418" y="729" on="0"/>
        <pt x="457" y="738" on="0"/>
        <pt x="478" y="756" on="0"/>
        <pt x="486" y="781" on="0"/>
        <pt x="486" y="797" on="1"/>
        <pt x="627" y="797" on="1"/>
        <pt x="627" y="763" on="0"/>
        <pt x="605" y="703" on="0"/>
        <pt x="551" y="659" on="0"/>
        <pt x="458" y="633" on="0"/>
      </contour>
    </TTGlyph>
    <TTGlyph name="Gcircumflex" xMin="32" yMin="-15" xMax="724" yMax="1027">
      <contour>
        <pt x="456" y="-15" on="1"/>
        <pt x="239" y="-15" on="0"/>
        <pt x="32" y="172" on="0"/>
        <pt x="32" y="369" on="1"/>
        <pt x="32" y="565" on="0"/>
        <pt x="246" y="755" on="0"/>
        <pt x="467" y="755" on="1"/>
        <pt x="498" y="755" on="0"/>
        <pt x="566" y="751" on="0"/>
        <pt x="632" y="745" on="0"/>
        <pt x="691" y="736" on="0"/>
        <pt x="713" y="731" on="1"/>
        <pt x="713" y="545" on="1"/>
        <pt x="640" y="556" on="0"/>
        <pt x="523" y="566" on="0"/>
        <pt x="485" y="566" on="1"/>
        <pt x="418" y="566" on="0"/>
        <pt x="336" y="551" on="0"/>
        <pt x="290" y="508" on="0"/>
        <pt x="274" y="431" on="0"/>
        <pt x="274" y="369" on="1"/>
        <pt x="274" y="309" on="0"/>
        <pt x="288" y="233" on="0"/>
        <pt x="329" y="190" on="0"/>
        <pt x="401" y="175" on="0"/>
        <pt x="458" y="175" on="1"/>
        <pt x="469" y="175" on="0"/>
        <pt x="494" y="175" on="0"/>
        <pt x="508" y="176" on="1"/>
        <pt x="508" y="376" on="1"/>
        <pt x="724" y="376" on="1"/>
        <pt x="724" y="31" on="1"/>
        <pt x="694" y="21" on="0"/>
        <pt x="623" y="4" on="0"/>
        <pt x="551" y="-8" on="0"/>
        <pt x="483" y="-15" on="0"/>
      </contour>
      <contour>
        <pt x="166" y="945" on="1"/>
        <pt x="398" y="1027" on="1"/>
        <pt x="636" y="945" on="1"/>
        <pt x="636" y="797" on="1"/>
        <pt x="401" y="878" on="1"/>
        <pt x="166" y="797" on="1"/>
      </contour>
    </TTGlyph>
    <TTGlyph name="Gcircumflex.sc" xMin="32" yMin="-14" xMax="672" yMax="822">
      <contour>
        <pt x="425" y="-14" on="1"/>
        <pt x="223" y="-14" on="0"/>
        <pt x="32" y="131" on="0"/>
        <pt x="32" y="288" on="1"/>
        <pt x="32" y="443" on="0"/>
        <pt x="229" y="590" on="0"/>
        <pt x="433" y="590" on="1"/>
        <pt x="462" y="590" on="0"/>
        <pt x="526" y="587" on="0"/>
        <pt x="588" y="582" on="0"/>
        <pt x="642" y="576" on="0"/>
        <pt x="662" y="572" on="1"/>
        <pt x="662" y="397" on="1"/>
        <pt x="594" y="404" on="0"/>
        <pt x="484" y="412" on="0"/>
        <pt x="450" y="412" on="1"/>
        <pt x="389" y="412" on="0"/>
        <pt x="315" y="407" on="0"/>
        <pt x="275" y="383" on="0"/>
        <pt x="262" y="333" on="0"/>
        <pt x="262" y="288" on="1"/>
        <pt x="262" y="245" on="0"/>
        <pt x="274" y="196" on="0"/>
        <pt x="310" y="172" on="0"/>
        <pt x="374" y="166" on="0"/>
        <pt x="426" y="166" on="1"/>
        <pt x="466" y="166" on="1"/>
        <pt x="466" y="293" on="1"/>
        <pt x="672" y="293" on="1"/>
        <pt x="672" y="26" on="1"/>
        <pt x="645" y="18" on="0"/>
        <pt x="580" y="3" on="0"/>
        <pt x="514" y="-8" on="0"/>
        <pt x="450" y="-14" on="0"/>
      </contour>
      <contour>
        <pt x="152" y="755" on="1"/>
        <pt x="368" y="822" on="1"/>
        <pt x="590" y="755" on="1"/>
        <pt x="590" y="618" on="1"/>
        <pt x="371" y="684" on="1"/>
        <pt x="152" y="618" on="1"/>
      </contour>
    </TTGlyph>
    <TTGlyph name="Gcommaaccent" xMin="32" yMin="-220" xMax="724" yMax="755">
      <contour>
        <pt x="290" y="-70" on="1"/>
        <pt x="526" y="-70" on="1"/>
        <pt x="422" y="-220" on="1"/>
        <pt x="251" y="-220" on="1"/>
      </contour>
      <contour>
        <pt x="456" y="-15" on="1"/>
        <pt x="239" y="-15" on="0"/>
        <pt x="32" y="172" on="0"/>
        <pt x="32" y="369" on="1"/>
        <pt x="32" y="565" on="0"/>
        <pt x="246" y="755" on="0"/>
        <pt x="467" y="755" on="1"/>
        <pt x="498" y="755" on="0"/>
        <pt x="566" y="751" on="0"/>
        <pt x="632" y="745" on="0"/>
        <pt x="691" y="736" on="0"/>
        <pt x="713" y="731" on="1"/>
        <pt x="713" y="545" on="1"/>
        <pt x="640" y="556" on="0"/>
        <pt x="523" y="566" on="0"/>
        <pt x="485" y="566" on="1"/>
        <pt x="418" y="566" on="0"/>
        <pt x="336" y="551" on="0"/>
        <pt x="290" y="508" on="0"/>
        <pt x="274" y="431" on="0"/>
        <pt x="274" y="369" on="1"/>
        <pt x="274" y="309" on="0"/>
        <pt x="288" y="233" on="0"/>
        <pt x="329" y="190" on="0"/>
        <pt x="401" y="175" on="0"/>
        <pt x="458" y="175" on="1"/>
        <pt x="469" y="175" on="0"/>
        <pt x="494" y="175" on="0"/>
        <pt x="508" y="176" on="1"/>
        <pt x="508" y="376" on="1"/>
        <pt x="724" y="376" on="1"/>
        <pt x="724" y="31" on="1"/>
        <pt x="694" y="21" on="0"/>
        <pt x="623" y="4" on="0"/>
        <pt x="551" y="-8" on="0"/>
        <pt x="483" y="-15" on="0"/>
      </contour>
    </TTGlyph>
    <TTGlyph name="Gcommaaccent.sc" xMin="32" yMin="-172" xMax="672" yMax="590">
      <contour>
        <pt x="425" y="-14" on="1"/>
        <pt x="223" y="-14" on="0"/>
        <pt x="32" y="131" on="0"/>
        <pt x="32" y="288" on="1"/>
        <pt x="32" y="443" on="0"/>
        <pt x="229" y="590" on="0"/>
        <pt x="433" y="590" on="1"/>
        <pt x="462" y="590" on="0"/>
        <pt x="526" y="587" on="0"/>
        <pt x="588" y="582" on="0"/>
        <pt x="642" y="576" on="0"/>
        <pt x="662" y="572" on="1"/>
        <pt x="662" y="397" on="1"/>
        <pt x="594" y="404" on="0"/>
        <pt x="484" y="412" on="0"/>
        <pt x="450" y="412" on="1"/>
        <pt x="389" y="412" on="0"/>
        <pt x="315" y="407" on="0"/>
        <pt x="275" y="383" on="0"/>
        <pt x="262" y="333" on="0"/>
        <pt x="262" y="288" on="1"/>
        <pt x="262" y="245" on="0"/>
        <pt x="274" y="196" on="0"/>
        <pt x="310" y="172" on="0"/>
        <pt x="374" y="166" on="0"/>
        <pt x="426" y="166" on="1"/>
        <pt x="466" y="166" on="1"/>
        <pt x="466" y="293" on="1"/>
        <pt x="672" y="293" on="1"/>
        <pt x="672" y="26" on="1"/>
        <pt x="645" y="18" on="0"/>
        <pt x="580" y="3" on="0"/>
        <pt x="514" y="-8" on="0"/>
        <pt x="450" y="-14" on="0"/>
      </contour>
      <contour>
        <pt x="265" y="-55" on="1"/>
        <pt x="489" y="-55" on="1"/>
        <pt x="393" y="-172" on="1"/>
        <pt x="231" y="-172" on="1"/>
      </contour>
    </TTGlyph>
    <TTGlyph name="Gdotaccent" xMin="32" yMin="-15" xMax="724" yMax="1030">
      <contour>
        <pt x="423" y="794" on="1"/>
        <pt x="357" y="794" on="0"/>
        <pt x="301" y="849" on="0"/>
        <pt x="301" y="912" on="1"/>
        <pt x="301" y="974" on="0"/>
        <pt x="357" y="1030" on="0"/>
        <pt x="423" y="1030" on="1"/>
        <pt x="491" y="1030" on="0"/>
        <pt x="544" y="972" on="0"/>
        <pt x="544" y="912" on="1"/>
        <pt x="544" y="852" on="0"/>
        <pt x="491" y="794" on="0"/>
      </contour>
      <contour>
        <pt x="456" y="-15" on="1"/>
        <pt x="239" y="-15" on="0"/>
        <pt x="32" y="172" on="0"/>
        <pt x="32" y="369" on="1"/>
        <pt x="32" y="565" on="0"/>
        <pt x="246" y="755" on="0"/>
        <pt x="467" y="755" on="1"/>
        <pt x="498" y="755" on="0"/>
        <pt x="566" y="751" on="0"/>
        <pt x="632" y="745" on="0"/>
        <pt x="691" y="736" on="0"/>
        <pt x="713" y="731" on="1"/>
        <pt x="713" y="545" on="1"/>
        <pt x="640" y="556" on="0"/>
        <pt x="523" y="566" on="0"/>
        <pt x="485" y="566" on="1"/>
        <pt x="418" y="566" on="0"/>
        <pt x="336" y="551" on="0"/>
        <pt x="290" y="508" on="0"/>
        <pt x="274" y="431" on="0"/>
        <pt x="274" y="369" on="1"/>
        <pt x="274" y="309" on="0"/>
        <pt x="288" y="233" on="0"/>
        <pt x="329" y="190" on="0"/>
        <pt x="401" y="175" on="0"/>
        <pt x="458" y="175" on="1"/>
        <pt x="469" y="175" on="0"/>
        <pt x="494" y="175" on="0"/>
        <pt x="508" y="176" on="1"/>
        <pt x="508" y="376" on="1"/>
        <pt x="724" y="376" on="1"/>
        <pt x="724" y="31" on="1"/>
        <pt x="694" y="21" on="0"/>
        <pt x="623" y="4" on="0"/>
        <pt x="551" y="-8" on="0"/>
        <pt x="483" y="-15" on="0"/>
      </contour>
    </TTGlyph>
    <TTGlyph name="Gdotaccent.sc" xMin="32" yMin="-14" xMax="672" yMax="831">
      <contour>
        <pt x="425" y="-14" on="1"/>
        <pt x="223" y="-14" on="0"/>
        <pt x="32" y="131" on="0"/>
        <pt x="32" y="288" on="1"/>
        <pt x="32" y="443" on="0"/>
        <pt x="229" y="590" on="0"/>
        <pt x="433" y="590" on="1"/>
        <pt x="462" y="590" on="0"/>
        <pt x="526" y="587" on="0"/>
        <pt x="588" y="582" on="0"/>
        <pt x="642" y="576" on="0"/>
        <pt x="662" y="572" on="1"/>
        <pt x="662" y="397" on="1"/>
        <pt x="594" y="404" on="0"/>
        <pt x="484" y="412" on="0"/>
        <pt x="450" y="412" on="1"/>
        <pt x="389" y="412" on="0"/>
        <pt x="315" y="407" on="0"/>
        <pt x="275" y="383" on="0"/>
        <pt x="262" y="333" on="0"/>
        <pt x="262" y="288" on="1"/>
        <pt x="262" y="245" on="0"/>
        <pt x="274" y="196" on="0"/>
        <pt x="310" y="172" on="0"/>
        <pt x="374" y="166" on="0"/>
        <pt x="426" y="166" on="1"/>
        <pt x="466" y="166" on="1"/>
        <pt x="466" y="293" on="1"/>
        <pt x="672" y="293" on="1"/>
        <pt x="672" y="26" on="1"/>
        <pt x="645" y="18" on="0"/>
        <pt x="580" y="3" on="0"/>
        <pt x="514" y="-8" on="0"/>
        <pt x="450" y="-14" on="0"/>
      </contour>
      <contour>
        <pt x="393" y="613" on="1"/>
        <pt x="330" y="613" on="0"/>
        <pt x="278" y="664" on="0"/>
        <pt x="278" y="722" on="1"/>
        <pt x="278" y="779" on="0"/>
        <pt x="330" y="831" on="0"/>
        <pt x="393" y="831" on="1"/>
        <pt x="458" y="831" on="0"/>
        <pt x="507" y="776" on="0"/>
        <pt x="507" y="722" on="1"/>
        <pt x="507" y="667" on="0"/>
        <pt x="458" y="613" on="0"/>
      </contour>
    </TTGlyph>
    <TTGlyph name="H" xMin="65" yMin="0" xMax="833" yMax="740">
      <contour>
        <pt x="65" y="740" on="1"/>
        <pt x="300" y="740" on="1"/>
        <pt x="300" y="468" on="1"/>
        <pt x="598" y="468" on="1"/>
        <pt x="598" y="740" on="1"/>
        <pt x="833" y="740" on="1"/>
        <pt x="833" y="0" on="1"/>
        <pt x="598" y="0" on="1"/>
        <pt x="598" y="292" on="1"/>
        <pt x="300" y="292" on="1"/>
        <pt x="300" y="0" on="1"/>
        <pt x="65" y="0" on="1"/>
      </contour>
    </TTGlyph>
    <TTGlyph name="H.sc" xMin="63" yMin="0" xMax="774" yMax="577">
      <contour>
        <pt x="63" y="577" on="1"/>
        <pt x="286" y="577" on="1"/>
        <pt x="286" y="379" on="1"/>
        <pt x="551" y="379" on="1"/>
        <pt x="551" y="577" on="1"/>
        <pt x="774" y="577" on="1"/>
        <pt x="774" y="0" on="1"/>
        <pt x="551" y="0" on="1"/>
        <pt x="551" y="214" on="1"/>
        <pt x="286" y="214" on="1"/>
        <pt x="286" y="0" on="1"/>
        <pt x="63" y="0" on="1"/>
      </contour>
    </TTGlyph>
    <TTGlyph name="Hbar" xMin="8" yMin="0" xMax="907" yMax="740">
      <contour>
        <pt x="8" y="637" on="1"/>
        <pt x="72" y="637" on="1"/>
        <pt x="72" y="740" on="1"/>
        <pt x="307" y="740" on="1"/>
        <pt x="307" y="637" on="1"/>
        <pt x="605" y="637" on="1"/>
        <pt x="605" y="740" on="1"/>
        <pt x="840" y="740" on="1"/>
        <pt x="840" y="637" on="1"/>
        <pt x="907" y="637" on="1"/>
        <pt x="907" y="534" on="1"/>
        <pt x="840" y="534" on="1"/>
        <pt x="840" y="0" on="1"/>
        <pt x="605" y="0" on="1"/>
        <pt x="605" y="292" on="1"/>
        <pt x="307" y="292" on="1"/>
        <pt x="307" y="0" on="1"/>
        <pt x="72" y="0" on="1"/>
        <pt x="72" y="534" on="1"/>
        <pt x="8" y="534" on="1"/>
      </contour>
      <contour>
        <pt x="605" y="468" on="1"/>
        <pt x="605" y="534" on="1"/>
        <pt x="307" y="534" on="1"/>
        <pt x="307" y="468" on="1"/>
      </contour>
    </TTGlyph>
    <TTGlyph name="Hbar.sc" xMin="13" yMin="0" xMax="838" yMax="577">
      <contour>
        <pt x="13" y="508" on="1"/>
        <pt x="69" y="508" on="1"/>
        <pt x="69" y="577" on="1"/>
        <pt x="292" y="577" on="1"/>
        <pt x="292" y="508" on="1"/>
        <pt x="557" y="508" on="1"/>
        <pt x="557" y="577" on="1"/>
        <pt x="780" y="577" on="1"/>
        <pt x="780" y="508" on="1"/>
        <pt x="838" y="508" on="1"/>
        <pt x="838" y="413" on="1"/>
        <pt x="780" y="413" on="1"/>
        <pt x="780" y="0" on="1"/>
        <pt x="557" y="0" on="1"/>
        <pt x="557" y="194" on="1"/>
        <pt x="292" y="194" on="1"/>
        <pt x="292" y="0" on="1"/>
        <pt x="69" y="0" on="1"/>
        <pt x="69" y="413" on="1"/>
        <pt x="13" y="413" on="1"/>
      </contour>
      <contour>
        <pt x="557" y="359" on="1"/>
        <pt x="557" y="413" on="1"/>
        <pt x="292" y="413" on="1"/>
        <pt x="292" y="359" on="1"/>
      </contour>
    </TTGlyph>
    <TTGlyph name="Hcircumflex" xMin="65" yMin="0" xMax="833" yMax="1027">
      <contour>
        <pt x="65" y="740" on="1"/>
        <pt x="300" y="740" on="1"/>
        <pt x="300" y="468" on="1"/>
        <pt x="598" y="468" on="1"/>
        <pt x="598" y="740" on="1"/>
        <pt x="833" y="740" on="1"/>
        <pt x="833" y="0" on="1"/>
        <pt x="598" y="0" on="1"/>
        <pt x="598" y="292" on="1"/>
        <pt x="300" y="292" on="1"/>
        <pt x="300" y="0" on="1"/>
        <pt x="65" y="0" on="1"/>
      </contour>
      <contour>
        <pt x="216" y="945" on="1"/>
        <pt x="448" y="1027" on="1"/>
        <pt x="686" y="945" on="1"/>
        <pt x="686" y="797" on="1"/>
        <pt x="451" y="878" on="1"/>
        <pt x="216" y="797" on="1"/>
      </contour>
    </TTGlyph>
    <TTGlyph name="Hcircumflex.sc" xMin="63" yMin="0" xMax="774" yMax="822">
      <contour>
        <pt x="63" y="577" on="1"/>
        <pt x="286" y="577" on="1"/>
        <pt x="286" y="379" on="1"/>
        <pt x="551" y="379" on="1"/>
        <pt x="551" y="577" on="1"/>
        <pt x="774" y="577" on="1"/>
        <pt x="774" y="0" on="1"/>
        <pt x="551" y="0" on="1"/>
        <pt x="551" y="214" on="1"/>
        <pt x="286" y="214" on="1"/>
        <pt x="286" y="0" on="1"/>
        <pt x="63" y="0" on="1"/>
      </contour>
      <contour>
        <pt x="202" y="755" on="1"/>
        <pt x="418" y="822" on="1"/>
        <pt x="640" y="755" on="1"/>
        <pt x="640" y="618" on="1"/>
        <pt x="421" y="684" on="1"/>
        <pt x="202" y="618" on="1"/>
      </contour>
    </TTGlyph>
    <TTGlyph name="Hdotbelow" xMin="65" yMin="-220" xMax="833" yMax="740">
      <contour>
        <pt x="65" y="740" on="1"/>
        <pt x="300" y="740" on="1"/>
        <pt x="300" y="468" on="1"/>
        <pt x="598" y="468" on="1"/>
        <pt x="598" y="740" on="1"/>
        <pt x="833" y="740" on="1"/>
        <pt x="833" y="0" on="1"/>
        <pt x="598" y="0" on="1"/>
        <pt x="598" y="292" on="1"/>
        <pt x="300" y="292" on="1"/>
        <pt x="300" y="0" on="1"/>
        <pt x="65" y="0" on="1"/>
      </contour>
      <contour>
        <pt x="445" y="-220" on="1"/>
        <pt x="395" y="-220" on="0"/>
        <pt x="354" y="-179" on="0"/>
        <pt x="354" y="-133" on="1"/>
        <pt x="354" y="-86" on="0"/>
        <pt x="395" y="-45" on="0"/>
        <pt x="445" y="-45" on="1"/>
        <pt x="497" y="-45" on="0"/>
        <pt x="536" y="-89" on="0"/>
        <pt x="536" y="-133" on="1"/>
        <pt x="536" y="-177" on="0"/>
        <pt x="497" y="-220" on="0"/>
      </contour>
    </TTGlyph>
    <TTGlyph name="Hdotbelow.sc" xMin="63" yMin="-181" xMax="774" yMax="577">
      <contour>
        <pt x="63" y="577" on="1"/>
        <pt x="286" y="577" on="1"/>
        <pt x="286" y="379" on="1"/>
        <pt x="551" y="379" on="1"/>
        <pt x="551" y="577" on="1"/>
        <pt x="774" y="577" on="1"/>
        <pt x="774" y="0" on="1"/>
        <pt x="551" y="0" on="1"/>
        <pt x="551" y="214" on="1"/>
        <pt x="286" y="214" on="1"/>
        <pt x="286" y="0" on="1"/>
        <pt x="63" y="0" on="1"/>
      </contour>
      <contour>
        <pt x="414" y="-181" on="1"/>
        <pt x="367" y="-181" on="0"/>
        <pt x="329" y="-144" on="0"/>
        <pt x="329" y="-103" on="1"/>
        <pt x="329" y="-61" on="0"/>
        <pt x="367" y="-24" on="0"/>
        <pt x="414" y="-24" on="1"/>
        <pt x="463" y="-24" on="0"/>
        <pt x="499" y="-65" on="0"/>
        <pt x="499" y="-103" on="1"/>
        <pt x="499" y="-141" on="0"/>
        <pt x="463" y="-181" on="0"/>
      </contour>
    </TTGlyph>
    <TTGlyph name="I" xMin="65" yMin="0" xMax="300" yMax="740">
      <contour>
        <pt x="65" y="740" on="1"/>
        <pt x="300" y="740" on="1"/>
        <pt x="300" y="0" on="1"/>
        <pt x="65" y="0" on="1"/>
      </contour>
    </TTGlyph>
    <TTGlyph name="I.sc" xMin="63" yMin="0" xMax="286" yMax="577">
      <contour>
        <pt x="63" y="577" on="1"/>
        <pt x="286" y="577" on="1"/>
        <pt x="286" y="0" on="1"/>
        <pt x="63" y="0" on="1"/>
      </contour>
    </TTGlyph>
    <TTGlyph name="IJ" xMin="65" yMin="-220" xMax="667" yMax="740">
      <contour>
        <pt x="65" y="740" on="1"/>
        <pt x="300" y="740" on="1"/>
        <pt x="300" y="0" on="1"/>
        <pt x="65" y="0" on="1"/>
      </contour>
      <contour>
        <pt x="357" y="-156" on="1"/>
        <pt x="378" y="-105" on="0"/>
        <pt x="407" y="-20" on="0"/>
        <pt x="425" y="63" on="0"/>
        <pt x="432" y="150" on="0"/>
        <pt x="432" y="202" on="1"/>
        <pt x="432" y="740" on="1"/>
        <pt x="667" y="740" on="1"/>
        <pt x="667" y="184" on="1"/>
        <pt x="667" y="131" on="0"/>
        <pt x="650" y="36" on="0"/>
        <pt x="613" y="-60" on="0"/>
        <pt x="551" y="-161" on="0"/>
        <pt x="506" y="-220" on="1"/>
      </contour>
    </TTGlyph>
    <TTGlyph name="Iacute" xMin="65" yMin="0" xMax="393" yMax="1008">
      <contour>
        <pt x="65" y="740" on="1"/>
        <pt x="300" y="740" on="1"/>
        <pt x="300" y="0" on="1"/>
        <pt x="65" y="0" on="1"/>
      </contour>
      <contour>
        <pt x="96" y="817" on="1"/>
        <pt x="158" y="1008" on="1"/>
        <pt x="393" y="1008" on="1"/>
        <pt x="261" y="807" on="1"/>
      </contour>
    </TTGlyph>
    <TTGlyph name="Iacute.sc" xMin="63" yMin="0" xMax="371" yMax="802">
      <contour>
        <pt x="63" y="577" on="1"/>
        <pt x="286" y="577" on="1"/>
        <pt x="286" y="0" on="1"/>
        <pt x="63" y="0" on="1"/>
      </contour>
      <contour>
        <pt x="93" y="640" on="1"/>
        <pt x="148" y="802" on="1"/>
        <pt x="371" y="802" on="1"/>
        <pt x="249" y="631" on="1"/>
      </contour>
    </TTGlyph>
    <TTGlyph name="Ibreve" xMin="-74" yMin="0" xMax="438" yMax="1006">
      <contour>
        <pt x="65" y="740" on="1"/>
        <pt x="300" y="740" on="1"/>
        <pt x="300" y="0" on="1"/>
        <pt x="65" y="0" on="1"/>
      </contour>
      <contour>
        <pt x="182" y="811" on="1"/>
        <pt x="107" y="811" on="0"/>
        <pt x="9" y="842" on="0"/>
        <pt x="-50" y="895" on="0"/>
        <pt x="-74" y="966" on="0"/>
        <pt x="-74" y="1006" on="1"/>
        <pt x="75" y="1006" on="1"/>
        <pt x="75" y="985" on="0"/>
        <pt x="84" y="951" on="0"/>
        <pt x="108" y="928" on="0"/>
        <pt x="150" y="916" on="0"/>
        <pt x="182" y="916" on="1"/>
        <pt x="215" y="916" on="0"/>
        <pt x="256" y="928" on="0"/>
        <pt x="280" y="951" on="0"/>
        <pt x="289" y="985" on="0"/>
        <pt x="289" y="1006" on="1"/>
        <pt x="438" y="1006" on="1"/>
        <pt x="438" y="964" on="0"/>
        <pt x="414" y="893" on="0"/>
        <pt x="355" y="841" on="0"/>
        <pt x="256" y="811" on="0"/>
      </contour>
    </TTGlyph>
    <TTGlyph name="Ibreve.sc" xMin="-65" yMin="0" xMax="412" yMax="797">
      <contour>
        <pt x="63" y="577" on="1"/>
        <pt x="286" y="577" on="1"/>
        <pt x="286" y="0" on="1"/>
        <pt x="63" y="0" on="1"/>
      </contour>
      <contour>
        <pt x="174" y="633" on="1"/>
        <pt x="103" y="633" on="0"/>
        <pt x="11" y="660" on="0"/>
        <pt x="-43" y="705" on="0"/>
        <pt x="-65" y="764" on="0"/>
        <pt x="-65" y="797" on="1"/>
        <pt x="76" y="797" on="1"/>
        <pt x="76" y="781" on="0"/>
        <pt x="84" y="756" on="0"/>
        <pt x="106" y="738" on="0"/>
        <pt x="144" y="729" on="0"/>
        <pt x="174" y="729" on="1"/>
        <pt x="204" y="729" on="0"/>
        <pt x="243" y="738" on="0"/>
        <pt x="264" y="756" on="0"/>
        <pt x="272" y="781" on="0"/>
        <pt x="272" y="797" on="1"/>
        <pt x="412" y="797" on="1"/>
        <pt x="412" y="763" on="0"/>
        <pt x="390" y="703" on="0"/>
        <pt x="336" y="659" on="0"/>
        <pt x="244" y="633" on="0"/>
      </contour>
    </TTGlyph>
    <TTGlyph name="Icircumflex" xMin="-49" yMin="0" xMax="421" yMax="1027">
      <contour>
        <pt x="65" y="740" on="1"/>
        <pt x="300" y="740" on="1"/>
        <pt x="300" y="0" on="1"/>
        <pt x="65" y="0" on="1"/>
      </contour>
      <contour>
        <pt x="-49" y="945" on="1"/>
        <pt x="183" y="1027" on="1"/>
        <pt x="421" y="945" on="1"/>
        <pt x="421" y="797" on="1"/>
        <pt x="186" y="878" on="1"/>
        <pt x="-49" y="797" on="1"/>
      </contour>
    </TTGlyph>
    <TTGlyph name="Icircumflex.sc" xMin="-41" yMin="0" xMax="397" yMax="822">
      <contour>
        <pt x="63" y="577" on="1"/>
        <pt x="286" y="577" on="1"/>
        <pt x="286" y="0" on="1"/>
        <pt x="63" y="0" on="1"/>
      </contour>
      <contour>
        <pt x="-41" y="755" on="1"/>
        <pt x="175" y="822" on="1"/>
        <pt x="397" y="755" on="1"/>
        <pt x="397" y="618" on="1"/>
        <pt x="178" y="684" on="1"/>
        <pt x="-41" y="618" on="1"/>
      </contour>
    </TTGlyph>
    <TTGlyph name="Idblgrave" xMin="-138" yMin="0" xMax="407" yMax="1008">
      <contour>
        <pt x="65" y="740" on="1"/>
        <pt x="300" y="740" on="1"/>
        <pt x="300" y="0" on="1"/>
        <pt x="65" y="0" on="1"/>
      </contour>
      <contour>
        <pt x="-5" y="807" on="1"/>
        <pt x="-138" y="1008" on="1"/>
        <pt x="93" y="1008" on="1"/>
        <pt x="154" y="817" on="1"/>
      </contour>
      <contour>
        <pt x="247" y="807" on="1"/>
        <pt x="114" y="1008" on="1"/>
        <pt x="345" y="1008" on="1"/>
        <pt x="407" y="817" on="1"/>
      </contour>
    </TTGlyph>
    <TTGlyph name="Idblgrave.sc" xMin="-125" yMin="0" xMax="387" yMax="804">
      <contour>
        <pt x="63" y="577" on="1"/>
        <pt x="286" y="577" on="1"/>
        <pt x="286" y="0" on="1"/>
        <pt x="63" y="0" on="1"/>
      </contour>
      <contour>
        <pt x="-3" y="633" on="1"/>
        <pt x="-125" y="804" on="1"/>
        <pt x="96" y="804" on="1"/>
        <pt x="150" y="640" on="1"/>
      </contour>
      <contour>
        <pt x="233" y="633" on="1"/>
        <pt x="111" y="804" on="1"/>
        <pt x="332" y="804" on="1"/>
        <pt x="387" y="640" on="1"/>
      </contour>
    </TTGlyph>
    <TTGlyph name="Idieresis" xMin="-95" yMin="0" xMax="469" yMax="1030">
      <contour>
        <pt x="65" y="740" on="1"/>
        <pt x="300" y="740" on="1"/>
        <pt x="300" y="0" on="1"/>
        <pt x="65" y="0" on="1"/>
      </contour>
      <contour>
        <pt x="27" y="794" on="1"/>
        <pt x="-39" y="794" on="0"/>
        <pt x="-95" y="849" on="0"/>
        <pt x="-95" y="912" on="1"/>
        <pt x="-95" y="974" on="0"/>
        <pt x="-39" y="1030" on="0"/>
        <pt x="27" y="1030" on="1"/>
        <pt x="95" y="1030" on="0"/>
        <pt x="148" y="972" on="0"/>
        <pt x="148" y="912" on="1"/>
        <pt x="148" y="852" on="0"/>
        <pt x="95" y="794" on="0"/>
      </contour>
      <contour>
        <pt x="348" y="794" on="1"/>
        <pt x="282" y="794" on="0"/>
        <pt x="227" y="849" on="0"/>
        <pt x="227" y="912" on="1"/>
        <pt x="227" y="974" on="0"/>
        <pt x="282" y="1030" on="0"/>
        <pt x="348" y="1030" on="1"/>
        <pt x="416" y="1030" on="0"/>
        <pt x="469" y="972" on="0"/>
        <pt x="469" y="912" on="1"/>
        <pt x="469" y="852" on="0"/>
        <pt x="416" y="794" on="0"/>
      </contour>
    </TTGlyph>
    <TTGlyph name="Idieresis.sc" xMin="-83" yMin="0" xMax="441" yMax="830">
      <contour>
        <pt x="63" y="577" on="1"/>
        <pt x="286" y="577" on="1"/>
        <pt x="286" y="0" on="1"/>
        <pt x="63" y="0" on="1"/>
      </contour>
      <contour>
        <pt x="32" y="612" on="1"/>
        <pt x="-31" y="612" on="0"/>
        <pt x="-83" y="663" on="0"/>
        <pt x="-83" y="721" on="1"/>
        <pt x="-83" y="778" on="0"/>
        <pt x="-31" y="830" on="0"/>
        <pt x="32" y="830" on="1"/>
        <pt x="97" y="830" on="0"/>
        <pt x="146" y="775" on="0"/>
        <pt x="146" y="721" on="1"/>
        <pt x="146" y="666" on="0"/>
        <pt x="97" y="612" on="0"/>
      </contour>
      <contour>
        <pt x="327" y="612" on="1"/>
        <pt x="264" y="612" on="0"/>
        <pt x="213" y="663" on="0"/>
        <pt x="213" y="721" on="1"/>
        <pt x="213" y="778" on="0"/>
        <pt x="264" y="830" on="0"/>
        <pt x="327" y="830" on="1"/>
        <pt x="391" y="830" on="0"/>
        <pt x="441" y="775" on="0"/>
        <pt x="441" y="721" on="1"/>
        <pt x="441" y="666" on="0"/>
        <pt x="391" y="612" on="0"/>
      </contour>
    </TTGlyph>
    <TTGlyph name="Idotaccent" xMin="62" yMin="0" xMax="305" yMax="1030">
      <contour>
        <pt x="65" y="740" on="1"/>
        <pt x="300" y="740" on="1"/>
        <pt x="300" y="0" on="1"/>
        <pt x="65" y="0" on="1"/>
      </contour>
      <contour>
        <pt x="184" y="794" on="1"/>
        <pt x="118" y="794" on="0"/>
        <pt x="62" y="849" on="0"/>
        <pt x="62" y="912" on="1"/>
        <pt x="62" y="974" on="0"/>
        <pt x="118" y="1030" on="0"/>
        <pt x="184" y="1030" on="1"/>
        <pt x="252" y="1030" on="0"/>
        <pt x="305" y="972" on="0"/>
        <pt x="305" y="912" on="1"/>
        <pt x="305" y="852" on="0"/>
        <pt x="252" y="794" on="0"/>
      </contour>
    </TTGlyph>
    <TTGlyph name="Idotaccent.sc" xMin="61" yMin="0" xMax="290" yMax="831">
      <contour>
        <pt x="63" y="577" on="1"/>
        <pt x="286" y="577" on="1"/>
        <pt x="286" y="0" on="1"/>
        <pt x="63" y="0" on="1"/>
      </contour>
      <contour>
        <pt x="176" y="613" on="1"/>
        <pt x="113" y="613" on="0"/>
        <pt x="61" y="664" on="0"/>
        <pt x="61" y="722" on="1"/>
        <pt x="61" y="779" on="0"/>
        <pt x="113" y="831" on="0"/>
        <pt x="176" y="831" on="1"/>
        <pt x="241" y="831" on="0"/>
        <pt x="290" y="776" on="0"/>
        <pt x="290" y="722" on="1"/>
        <pt x="290" y="667" on="0"/>
        <pt x="241" y="613" on="0"/>
      </contour>
    </TTGlyph>
    <TTGlyph name="Idotbelow" xMin="65" yMin="-220" xMax="300" yMax="740">
      <contour>
        <pt x="65" y="740" on="1"/>
        <pt x="300" y="740" on="1"/>
        <pt x="300" y="0" on="1"/>
        <pt x="65" y="0" on="1"/>
      </contour>
      <contour>
        <pt x="183" y="-220" on="1"/>
        <pt x="133" y="-220" on="0"/>
        <pt x="92" y="-179" on="0"/>
        <pt x="92" y="-133" on="1"/>
        <pt x="92" y="-86" on="0"/>
        <pt x="133" y="-45" on="0"/>
        <pt x="183" y="-45" on="1"/>
        <pt x="235" y="-45" on="0"/>
        <pt x="274" y="-89" on="0"/>
        <pt x="274" y="-133" on="1"/>
        <pt x="274" y="-177" on="0"/>
        <pt x="235" y="-220" on="0"/>
      </contour>
    </TTGlyph>
    <TTGlyph name="Idotbelow.sc" xMin="63" yMin="-181" xMax="286" yMax="577">
      <contour>
        <pt x="63" y="577" on="1"/>
        <pt x="286" y="577" on="1"/>
        <pt x="286" y="0" on="1"/>
        <pt x="63" y="0" on="1"/>
      </contour>
      <contour>
        <pt x="175" y="-181" on="1"/>
        <pt x="128" y="-181" on="0"/>
        <pt x="90" y="-144" on="0"/>
        <pt x="90" y="-103" on="1"/>
        <pt x="90" y="-61" on="0"/>
        <pt x="128" y="-24" on="0"/>
        <pt x="175" y="-24" on="1"/>
        <pt x="224" y="-24" on="0"/>
        <pt x="260" y="-65" on="0"/>
        <pt x="260" y="-103" on="1"/>
        <pt x="260" y="-141" on="0"/>
        <pt x="224" y="-181" on="0"/>
      </contour>
    </TTGlyph>
    <TTGlyph name="Igrave" xMin="-11" yMin="0" xMax="300" yMax="1008">
      <contour>
        <pt x="65" y="740" on="1"/>
        <pt x="300" y="740" on="1"/>
        <pt x="300" y="0" on="1"/>
        <pt x="65" y="0" on="1"/>
      </contour>
      <contour>
        <pt x="122" y="807" on="1"/>
        <pt x="-11" y="1008" on="1"/>
        <pt x="225" y="1008" on="1"/>
        <pt x="286" y="817" on="1"/>
      </contour>
    </TTGlyph>
    <TTGlyph name="Igrave.sc" xMin="-4" yMin="0" xMax="286" yMax="802">
      <contour>
        <pt x="63" y="577" on="1"/>
        <pt x="286" y="577" on="1"/>
        <pt x="286" y="0" on="1"/>
        <pt x="63" y="0" on="1"/>
      </contour>
      <contour>
        <pt x="119" y="631" on="1"/>
        <pt x="-4" y="802" on="1"/>
        <pt x="220" y="802" on="1"/>
        <pt x="274" y="638" on="1"/>
      </contour>
    </TTGlyph>
    <TTGlyph name="Iinvertedbreve" xMin="-69" yMin="0" xMax="443" yMax="1016">
      <contour>
        <pt x="65" y="740" on="1"/>
        <pt x="300" y="740" on="1"/>
        <pt x="300" y="0" on="1"/>
        <pt x="65" y="0" on="1"/>
      </contour>
      <contour>
        <pt x="294" y="821" on="1"/>
        <pt x="294" y="842" on="0"/>
        <pt x="285" y="875" on="0"/>
        <pt x="261" y="898" on="0"/>
        <pt x="220" y="910" on="0"/>
        <pt x="187" y="910" on="1"/>
        <pt x="155" y="910" on="0"/>
        <pt x="113" y="898" on="0"/>
        <pt x="89" y="875" on="0"/>
        <pt x="80" y="842" on="0"/>
        <pt x="80" y="821" on="1"/>
        <pt x="-69" y="821" on="1"/>
        <pt x="-69" y="861" on="0"/>
        <pt x="-45" y="932" on="0"/>
        <pt x="14" y="985" on="0"/>
        <pt x="112" y="1016" on="0"/>
        <pt x="187" y="1016" on="1"/>
        <pt x="261" y="1016" on="0"/>
        <pt x="360" y="986" on="0"/>
        <pt x="419" y="933" on="0"/>
        <pt x="443" y="862" on="0"/>
        <pt x="443" y="821" on="1"/>
      </contour>
    </TTGlyph>
    <TTGlyph name="Iinvertedbreve.sc" xMin="-60" yMin="0" xMax="417" yMax="807">
      <contour>
        <pt x="63" y="577" on="1"/>
        <pt x="286" y="577" on="1"/>
        <pt x="286" y="0" on="1"/>
        <pt x="63" y="0" on="1"/>
      </contour>
      <contour>
        <pt x="277" y="643" on="1"/>
        <pt x="277" y="658" on="0"/>
        <pt x="269" y="683" on="0"/>
        <pt x="248" y="701" on="0"/>
        <pt x="209" y="710" on="0"/>
        <pt x="179" y="710" on="1"/>
        <pt x="149" y="710" on="0"/>
        <pt x="111" y="701" on="0"/>
        <pt x="89" y="683" on="0"/>
        <pt x="81" y="658" on="0"/>
        <pt x="81" y="643" on="1"/>
        <pt x="-60" y="643" on="1"/>
        <pt x="-60" y="675" on="0"/>
        <pt x="-38" y="735" on="0"/>
        <pt x="16" y="780" on="0"/>
        <pt x="108" y="807" on="0"/>
        <pt x="179" y="807" on="1"/>
        <pt x="249" y="807" on="0"/>
        <pt x="341" y="781" on="0"/>
        <pt x="395" y="736" on="0"/>
        <pt x="417" y="677" on="0"/>
        <pt x="417" y="643" on="1"/>
      </contour>
    </TTGlyph>
    <TTGlyph name="Imacron" xMin="-42" yMin="0" xMax="424" yMax="991">
      <contour>
        <pt x="65" y="740" on="1"/>
        <pt x="300" y="740" on="1"/>
        <pt x="300" y="0" on="1"/>
        <pt x="65" y="0" on="1"/>
      </contour>
      <contour>
        <pt x="-42" y="991" on="1"/>
        <pt x="424" y="991" on="1"/>
        <pt x="424" y="843" on="1"/>
        <pt x="-42" y="843" on="1"/>
      </contour>
    </TTGlyph>
    <TTGlyph name="Imacron.sc" xMin="-34" yMin="0" xMax="400" yMax="796">
      <contour>
        <pt x="63" y="577" on="1"/>
        <pt x="286" y="577" on="1"/>
        <pt x="286" y="0" on="1"/>
        <pt x="63" y="0" on="1"/>
      </contour>
      <contour>
        <pt x="-34" y="796" on="1"/>
        <pt x="400" y="796" on="1"/>
        <pt x="400" y="658" on="1"/>
        <pt x="-34" y="658" on="1"/>
      </contour>
    </TTGlyph>
    <TTGlyph name="Iogonek" xMin="29" yMin="-220" xMax="302" yMax="740">
      <contour>
        <pt x="65" y="740" on="1"/>
        <pt x="300" y="740" on="1"/>
        <pt x="300" y="-5" on="1"/>
        <pt x="264" y="-19" on="0"/>
        <pt x="215" y="-40" on="0"/>
        <pt x="186" y="-59" on="0"/>
        <pt x="174" y="-76" on="0"/>
        <pt x="174" y="-85" on="1"/>
        <pt x="174" y="-105" on="0"/>
        <pt x="200" y="-105" on="1"/>
        <pt x="206" y="-105" on="0"/>
        <pt x="229" y="-102" on="0"/>
        <pt x="257" y="-98" on="0"/>
        <pt x="288" y="-91" on="0"/>
        <pt x="302" y="-88" on="1"/>
        <pt x="302" y="-208" on="1"/>
        <pt x="258" y="-220" on="0"/>
        <pt x="204" y="-220" on="1"/>
        <pt x="122" y="-220" on="0"/>
        <pt x="29" y="-169" on="0"/>
        <pt x="29" y="-124" on="1"/>
        <pt x="29" y="-108" on="0"/>
        <pt x="42" y="-72" on="0"/>
        <pt x="64" y="-39" on="0"/>
        <pt x="94" y="-10" on="0"/>
        <pt x="112" y="0" on="1"/>
        <pt x="65" y="0" on="1"/>
      </contour>
    </TTGlyph>
    <TTGlyph name="Iogonek.sc" xMin="34" yMin="-172" xMax="288" yMax="577">
      <contour>
        <pt x="63" y="577" on="1"/>
        <pt x="286" y="577" on="1"/>
        <pt x="286" y="0" on="1"/>
        <pt x="244" y="-14" on="0"/>
        <pt x="198" y="-32" on="0"/>
        <pt x="176" y="-44" on="0"/>
        <pt x="171" y="-51" on="0"/>
        <pt x="171" y="-54" on="1"/>
        <pt x="171" y="-61" on="0"/>
        <pt x="190" y="-61" on="1"/>
        <pt x="197" y="-61" on="0"/>
        <pt x="223" y="-59" on="0"/>
        <pt x="251" y="-56" on="0"/>
        <pt x="279" y="-53" on="0"/>
        <pt x="288" y="-51" on="1"/>
        <pt x="288" y="-162" on="1"/>
        <pt x="265" y="-168" on="0"/>
        <pt x="219" y="-172" on="0"/>
        <pt x="198" y="-172" on="1"/>
        <pt x="121" y="-172" on="0"/>
        <pt x="34" y="-126" on="0"/>
        <pt x="34" y="-91" on="1"/>
        <pt x="34" y="-76" on="0"/>
        <pt x="46" y="-47" on="0"/>
        <pt x="65" y="-22" on="0"/>
        <pt x="89" y="-4" on="0"/>
        <pt x="101" y="0" on="1"/>
        <pt x="63" y="0" on="1"/>
      </contour>
    </TTGlyph>
    <TTGlyph name="Itilde" xMin="-87" yMin="0" xMax="458" yMax="1011">
      <contour>
        <pt x="65" y="740" on="1"/>
        <pt x="300" y="740" on="1"/>
        <pt x="300" y="0" on="1"/>
        <pt x="65" y="0" on="1"/>
      </contour>
      <contour>
        <pt x="-87" y="861" on="1"/>
        <pt x="-49" y="936" on="0"/>
        <pt x="53" y="1011" on="0"/>
        <pt x="99" y="1011" on="1"/>
        <pt x="128" y="1011" on="0"/>
        <pt x="186" y="1000" on="0"/>
        <pt x="243" y="986" on="0"/>
        <pt x="301" y="975" on="0"/>
        <pt x="330" y="975" on="1"/>
        <pt x="354" y="975" on="0"/>
        <pt x="401" y="988" on="0"/>
        <pt x="435" y="1011" on="1"/>
        <pt x="458" y="973" on="1"/>
        <pt x="418" y="898" on="0"/>
        <pt x="317" y="823" on="0"/>
        <pt x="273" y="823" on="1"/>
        <pt x="244" y="823" on="0"/>
        <pt x="186" y="834" on="0"/>
        <pt x="128" y="848" on="0"/>
        <pt x="70" y="859" on="0"/>
        <pt x="41" y="859" on="1"/>
        <pt x="15" y="859" on="0"/>
        <pt x="-32" y="846" on="0"/>
        <pt x="-63" y="823" on="1"/>
      </contour>
    </TTGlyph>
    <TTGlyph name="Itilde.sc" xMin="-77" yMin="0" xMax="429" yMax="810">
      <contour>
        <pt x="63" y="577" on="1"/>
        <pt x="286" y="577" on="1"/>
        <pt x="286" y="0" on="1"/>
        <pt x="63" y="0" on="1"/>
      </contour>
      <contour>
        <pt x="-77" y="672" on="1"/>
        <pt x="-42" y="740" on="0"/>
        <pt x="53" y="809" on="0"/>
        <pt x="96" y="809" on="1"/>
        <pt x="123" y="809" on="0"/>
        <pt x="177" y="801" on="0"/>
        <pt x="231" y="791" on="0"/>
        <pt x="285" y="783" on="0"/>
        <pt x="312" y="783" on="1"/>
        <pt x="334" y="783" on="0"/>
        <pt x="376" y="792" on="0"/>
        <pt x="408" y="810" on="1"/>
        <pt x="429" y="777" on="1"/>
        <pt x="391" y="708" on="0"/>
        <pt x="297" y="640" on="0"/>
        <pt x="257" y="640" on="1"/>
        <pt x="230" y="640" on="0"/>
        <pt x="175" y="648" on="0"/>
        <pt x="121" y="659" on="0"/>
        <pt x="67" y="667" on="0"/>
        <pt x="40" y="667" on="1"/>
        <pt x="17" y="667" on="0"/>
        <pt x="-26" y="657" on="0"/>
        <pt x="-55" y="639" on="1"/>
      </contour>
    </TTGlyph>
    <TTGlyph name="J" xMin="-8" yMin="-220" xMax="302" yMax="740">
      <contour>
        <pt x="-8" y="-156" on="1"/>
        <pt x="13" y="-105" on="0"/>
        <pt x="42" y="-20" on="0"/>
        <pt x="60" y="63" on="0"/>
        <pt x="67" y="150" on="0"/>
        <pt x="67" y="202" on="1"/>
        <pt x="67" y="740" on="1"/>
        <pt x="302" y="740" on="1"/>
        <pt x="302" y="184" on="1"/>
        <pt x="302" y="131" on="0"/>
        <pt x="285" y="36" on="0"/>
        <pt x="248" y="-60" on="0"/>
        <pt x="186" y="-161" on="0"/>
        <pt x="141" y="-220" on="1"/>
      </contour>
    </TTGlyph>
    <TTGlyph name="J.sc" xMin="-2" yMin="-180" xMax="288" yMax="577">
      <contour>
        <pt x="-2" y="-121" on="1"/>
        <pt x="17" y="-80" on="0"/>
        <pt x="43" y="-12" on="0"/>
        <pt x="58" y="54" on="0"/>
        <pt x="65" y="121" on="0"/>
        <pt x="65" y="162" on="1"/>
        <pt x="65" y="577" on="1"/>
        <pt x="288" y="577" on="1"/>
        <pt x="288" y="145" on="1"/>
        <pt x="288" y="103" on="0"/>
        <pt x="273" y="26" on="0"/>
        <pt x="238" y="-52" on="0"/>
        <pt x="181" y="-133" on="0"/>
        <pt x="139" y="-180" on="1"/>
      </contour>
    </TTGlyph>
    <TTGlyph name="Jcircumflex" xMin="-48" yMin="-220" xMax="422" yMax="1027">
      <contour>
        <pt x="-8" y="-156" on="1"/>
        <pt x="13" y="-105" on="0"/>
        <pt x="42" y="-20" on="0"/>
        <pt x="60" y="63" on="0"/>
        <pt x="67" y="150" on="0"/>
        <pt x="67" y="202" on="1"/>
        <pt x="67" y="740" on="1"/>
        <pt x="302" y="740" on="1"/>
        <pt x="302" y="184" on="1"/>
        <pt x="302" y="131" on="0"/>
        <pt x="285" y="36" on="0"/>
        <pt x="248" y="-60" on="0"/>
        <pt x="186" y="-161" on="0"/>
        <pt x="141" y="-220" on="1"/>
      </contour>
      <contour>
        <pt x="-48" y="945" on="1"/>
        <pt x="184" y="1027" on="1"/>
        <pt x="422" y="945" on="1"/>
        <pt x="422" y="797" on="1"/>
        <pt x="187" y="878" on="1"/>
        <pt x="-48" y="797" on="1"/>
      </contour>
    </TTGlyph>
    <TTGlyph name="Jcircumflex.sc" xMin="-41" yMin="-180" xMax="397" yMax="822">
      <contour>
        <pt x="-3" y="-121" on="1"/>
        <pt x="16" y="-80" on="0"/>
        <pt x="42" y="-12" on="0"/>
        <pt x="58" y="54" on="0"/>
        <pt x="65" y="121" on="0"/>
        <pt x="65" y="162" on="1"/>
        <pt x="65" y="577" on="1"/>
        <pt x="288" y="577" on="1"/>
        <pt x="288" y="145" on="1"/>
        <pt x="288" y="103" on="0"/>
        <pt x="272" y="26" on="0"/>
        <pt x="237" y="-52" on="0"/>
        <pt x="180" y="-133" on="0"/>
        <pt x="138" y="-180" on="1"/>
      </contour>
      <contour>
        <pt x="-41" y="755" on="1"/>
        <pt x="175" y="822" on="1"/>
        <pt x="397" y="755" on="1"/>
        <pt x="397" y="618" on="1"/>
        <pt x="178" y="684" on="1"/>
        <pt x="-41" y="618" on="1"/>
      </contour>
    </TTGlyph>
    <TTGlyph name="K" xMin="65" yMin="0" xMax="823" yMax="740">
      <contour>
        <pt x="65" y="740" on="1"/>
        <pt x="300" y="740" on="1"/>
        <pt x="300" y="458" on="1"/>
        <pt x="387" y="458" on="1"/>
        <pt x="545" y="740" on="1"/>
        <pt x="806" y="740" on="1"/>
        <pt x="604" y="421" on="1"/>
        <pt x="549" y="395" on="1"/>
        <pt x="549" y="385" on="1"/>
        <pt x="607" y="357" on="1"/>
        <pt x="823" y="0" on="1"/>
        <pt x="562" y="0" on="1"/>
        <pt x="408" y="282" on="1"/>
        <pt x="300" y="282" on="1"/>
        <pt x="300" y="0" on="1"/>
        <pt x="65" y="0" on="1"/>
      </contour>
    </TTGlyph>
    <TTGlyph name="K.sc" xMin="63" yMin="0" xMax="765" yMax="577">
      <contour>
        <pt x="63" y="577" on="1"/>
        <pt x="286" y="577" on="1"/>
        <pt x="286" y="369" on="1"/>
        <pt x="361" y="369" on="1"/>
        <pt x="502" y="577" on="1"/>
        <pt x="750" y="577" on="1"/>
        <pt x="566" y="332" on="1"/>
        <pt x="512" y="311" on="1"/>
        <pt x="512" y="303" on="1"/>
        <pt x="569" y="280" on="1"/>
        <pt x="765" y="0" on="1"/>
        <pt x="517" y="0" on="1"/>
        <pt x="382" y="204" on="1"/>
        <pt x="286" y="204" on="1"/>
        <pt x="286" y="0" on="1"/>
        <pt x="63" y="0" on="1"/>
      </contour>
    </TTGlyph>
    <TTGlyph name="Kcommaaccent" xMin="65" yMin="-220" xMax="823" yMax="740">
      <contour>
        <pt x="251" y="-70" on="1"/>
        <pt x="487" y="-70" on="1"/>
        <pt x="383" y="-220" on="1"/>
        <pt x="212" y="-220" on="1"/>
      </contour>
      <contour>
        <pt x="65" y="740" on="1"/>
        <pt x="300" y="740" on="1"/>
        <pt x="300" y="458" on="1"/>
        <pt x="387" y="458" on="1"/>
        <pt x="545" y="740" on="1"/>
        <pt x="806" y="740" on="1"/>
        <pt x="604" y="421" on="1"/>
        <pt x="549" y="395" on="1"/>
        <pt x="549" y="385" on="1"/>
        <pt x="607" y="357" on="1"/>
        <pt x="823" y="0" on="1"/>
        <pt x="562" y="0" on="1"/>
        <pt x="408" y="282" on="1"/>
        <pt x="300" y="282" on="1"/>
        <pt x="300" y="0" on="1"/>
        <pt x="65" y="0" on="1"/>
      </contour>
    </TTGlyph>
    <TTGlyph name="Kcommaaccent.sc" xMin="63" yMin="-172" xMax="765" yMax="577">
      <contour>
        <pt x="63" y="577" on="1"/>
        <pt x="286" y="577" on="1"/>
        <pt x="286" y="369" on="1"/>
        <pt x="361" y="369" on="1"/>
        <pt x="502" y="577" on="1"/>
        <pt x="750" y="577" on="1"/>
        <pt x="566" y="332" on="1"/>
        <pt x="512" y="311" on="1"/>
        <pt x="512" y="303" on="1"/>
        <pt x="569" y="280" on="1"/>
        <pt x="765" y="0" on="1"/>
        <pt x="517" y="0" on="1"/>
        <pt x="382" y="204" on="1"/>
        <pt x="286" y="204" on="1"/>
        <pt x="286" y="0" on="1"/>
        <pt x="63" y="0" on="1"/>
      </contour>
      <contour>
        <pt x="278" y="-55" on="1"/>
        <pt x="502" y="-55" on="1"/>
        <pt x="406" y="-172" on="1"/>
        <pt x="244" y="-172" on="1"/>
      </contour>
    </TTGlyph>
    <TTGlyph name="L" xMin="65" yMin="0" xMax="631" yMax="740">
      <contour>
        <pt x="65" y="740" on="1"/>
        <pt x="300" y="740" on="1"/>
        <pt x="300" y="175" on="1"/>
        <pt x="631" y="175" on="1"/>
        <pt x="631" y="0" on="1"/>
        <pt x="65" y="0" on="1"/>
      </contour>
    </TTGlyph>
    <TTGlyph name="L.sc" xMin="63" yMin="0" xMax="588" yMax="577">
      <contour>
        <pt x="63" y="577" on="1"/>
        <pt x="286" y="577" on="1"/>
        <pt x="286" y="164" on="1"/>
        <pt x="588" y="164" on="1"/>
        <pt x="588" y="0" on="1"/>
        <pt x="63" y="0" on="1"/>
      </contour>
    </TTGlyph>
    <TTGlyph name="Lacute" xMin="65" yMin="0" xMax="631" yMax="1008">
      <contour>
        <pt x="104" y="817" on="1"/>
        <pt x="166" y="1008" on="1"/>
        <pt x="401" y="1008" on="1"/>
        <pt x="269" y="807" on="1"/>
      </contour>
      <contour>
        <pt x="65" y="740" on="1"/>
        <pt x="300" y="740" on="1"/>
        <pt x="300" y="175" on="1"/>
        <pt x="631" y="175" on="1"/>
        <pt x="631" y="0" on="1"/>
        <pt x="65" y="0" on="1"/>
      </contour>
    </TTGlyph>
    <TTGlyph name="Lacute.sc" xMin="63" yMin="0" xMax="588" yMax="802">
      <contour>
        <pt x="63" y="577" on="1"/>
        <pt x="286" y="577" on="1"/>
        <pt x="286" y="164" on="1"/>
        <pt x="588" y="164" on="1"/>
        <pt x="588" y="0" on="1"/>
        <pt x="63" y="0" on="1"/>
      </contour>
      <contour>
        <pt x="101" y="640" on="1"/>
        <pt x="156" y="802" on="1"/>
        <pt x="379" y="802" on="1"/>
        <pt x="257" y="631" on="1"/>
      </contour>
    </TTGlyph>
    <TTGlyph name="Lcaron" xMin="65" yMin="0" xMax="631" yMax="808">
      <contour>
        <pt x="426" y="808" on="1"/>
        <pt x="604" y="808" on="1"/>
        <pt x="551" y="580" on="1"/>
        <pt x="426" y="580" on="1"/>
      </contour>
      <contour>
        <pt x="65" y="740" on="1"/>
        <pt x="300" y="740" on="1"/>
        <pt x="300" y="175" on="1"/>
        <pt x="631" y="175" on="1"/>
        <pt x="631" y="0" on="1"/>
        <pt x="65" y="0" on="1"/>
      </contour>
    </TTGlyph>
    <TTGlyph name="Lcaron.sc" xMin="63" yMin="0" xMax="588" yMax="643">
      <contour>
        <pt x="63" y="577" on="1"/>
        <pt x="286" y="577" on="1"/>
        <pt x="286" y="164" on="1"/>
        <pt x="588" y="164" on="1"/>
        <pt x="588" y="0" on="1"/>
        <pt x="63" y="0" on="1"/>
      </contour>
      <contour>
        <pt x="391" y="643" on="1"/>
        <pt x="560" y="643" on="1"/>
        <pt x="510" y="465" on="1"/>
        <pt x="391" y="465" on="1"/>
      </contour>
    </TTGlyph>
    <TTGlyph name="Lcommaaccent" xMin="65" yMin="-220" xMax="631" yMax="740">
      <contour>
        <pt x="196" y="-70" on="1"/>
        <pt x="432" y="-70" on="1"/>
        <pt x="328" y="-220" on="1"/>
        <pt x="157" y="-220" on="1"/>
      </contour>
      <contour>
        <pt x="65" y="740" on="1"/>
        <pt x="300" y="740" on="1"/>
        <pt x="300" y="175" on="1"/>
        <pt x="631" y="175" on="1"/>
        <pt x="631" y="0" on="1"/>
        <pt x="65" y="0" on="1"/>
      </contour>
    </TTGlyph>
    <TTGlyph name="Lcommaaccent.sc" xMin="63" yMin="-172" xMax="588" yMax="577">
      <contour>
        <pt x="63" y="577" on="1"/>
        <pt x="286" y="577" on="1"/>
        <pt x="286" y="164" on="1"/>
        <pt x="588" y="164" on="1"/>
        <pt x="588" y="0" on="1"/>
        <pt x="63" y="0" on="1"/>
      </contour>
      <contour>
        <pt x="178" y="-55" on="1"/>
        <pt x="402" y="-55" on="1"/>
        <pt x="306" y="-172" on="1"/>
        <pt x="144" y="-172" on="1"/>
      </contour>
    </TTGlyph>
    <TTGlyph name="Ldot" xMin="65" yMin="0" xMax="653" yMax="740">
      <contour>
        <pt x="65" y="740" on="1"/>
        <pt x="300" y="740" on="1"/>
        <pt x="300" y="175" on="1"/>
        <pt x="631" y="175" on="1"/>
        <pt x="631" y="0" on="1"/>
        <pt x="65" y="0" on="1"/>
      </contour>
      <contour>
        <pt x="532" y="286" on="1"/>
        <pt x="466" y="286" on="0"/>
        <pt x="410" y="341" on="0"/>
        <pt x="410" y="404" on="1"/>
        <pt x="410" y="467" on="0"/>
        <pt x="466" y="522" on="0"/>
        <pt x="532" y="522" on="1"/>
        <pt x="600" y="522" on="0"/>
        <pt x="653" y="464" on="0"/>
        <pt x="653" y="404" on="1"/>
        <pt x="653" y="344" on="0"/>
        <pt x="600" y="286" on="0"/>
      </contour>
    </TTGlyph>
    <TTGlyph name="Ldot.sc" xMin="63" yMin="0" xMax="610" yMax="577">
      <contour>
        <pt x="63" y="577" on="1"/>
        <pt x="286" y="577" on="1"/>
        <pt x="286" y="164" on="1"/>
        <pt x="588" y="164" on="1"/>
        <pt x="588" y="0" on="1"/>
        <pt x="63" y="0" on="1"/>
      </contour>
      <contour>
        <pt x="496" y="215" on="1"/>
        <pt x="433" y="215" on="0"/>
        <pt x="381" y="266" on="0"/>
        <pt x="381" y="324" on="1"/>
        <pt x="381" y="381" on="0"/>
        <pt x="433" y="433" on="0"/>
        <pt x="496" y="433" on="1"/>
        <pt x="561" y="433" on="0"/>
        <pt x="610" y="378" on="0"/>
        <pt x="610" y="324" on="1"/>
        <pt x="610" y="269" on="0"/>
        <pt x="561" y="215" on="0"/>
      </contour>
    </TTGlyph>
    <TTGlyph name="Lslash" xMin="11" yMin="0" xMax="649" yMax="740">
      <contour>
        <pt x="11" y="390" on="1"/>
        <pt x="83" y="420" on="1"/>
        <pt x="83" y="740" on="1"/>
        <pt x="318" y="740" on="1"/>
        <pt x="318" y="520" on="1"/>
        <pt x="449" y="576" on="1"/>
        <pt x="449" y="412" on="1"/>
        <pt x="318" y="356" on="1"/>
        <pt x="318" y="175" on="1"/>
        <pt x="649" y="175" on="1"/>
        <pt x="649" y="0" on="1"/>
        <pt x="83" y="0" on="1"/>
        <pt x="83" y="256" on="1"/>
        <pt x="11" y="226" on="1"/>
      </contour>
    </TTGlyph>
    <TTGlyph name="Lslash.sc" xMin="14" yMin="0" xMax="603" yMax="577">
      <contour>
        <pt x="14" y="329" on="1"/>
        <pt x="78" y="351" on="1"/>
        <pt x="78" y="577" on="1"/>
        <pt x="301" y="577" on="1"/>
        <pt x="301" y="427" on="1"/>
        <pt x="417" y="467" on="1"/>
        <pt x="417" y="314" on="1"/>
        <pt x="301" y="274" on="1"/>
        <pt x="301" y="164" on="1"/>
        <pt x="603" y="164" on="1"/>
        <pt x="603" y="0" on="1"/>
        <pt x="78" y="0" on="1"/>
        <pt x="78" y="198" on="1"/>
        <pt x="14" y="176" on="1"/>
      </contour>
    </TTGlyph>
    <TTGlyph name="M" xMin="65" yMin="0" xMax="1019" yMax="740">
      <contour>
        <pt x="65" y="740" on="1"/>
        <pt x="380" y="740" on="1"/>
        <pt x="495" y="445" on="1"/>
        <pt x="539" y="290" on="1"/>
        <pt x="545" y="290" on="1"/>
        <pt x="589" y="445" on="1"/>
        <pt x="704" y="740" on="1"/>
        <pt x="1019" y="740" on="1"/>
        <pt x="1019" y="0" on="1"/>
        <pt x="815" y="0" on="1"/>
        <pt x="815" y="492" on="1"/>
        <pt x="805" y="492" on="1"/>
        <pt x="735" y="269" on="1"/>
        <pt x="634" y="27" on="1"/>
        <pt x="450" y="27" on="1"/>
        <pt x="349" y="269" on="1"/>
        <pt x="279" y="492" on="1"/>
        <pt x="269" y="492" on="1"/>
        <pt x="269" y="0" on="1"/>
        <pt x="65" y="0" on="1"/>
      </contour>
    </TTGlyph>
    <TTGlyph name="M.sc" xMin="63" yMin="0" xMax="942" yMax="577">
      <contour>
        <pt x="63" y="577" on="1"/>
        <pt x="347" y="577" on="1"/>
        <pt x="449" y="385" on="1"/>
        <pt x="498" y="269" on="1"/>
        <pt x="507" y="269" on="1"/>
        <pt x="555" y="385" on="1"/>
        <pt x="658" y="577" on="1"/>
        <pt x="942" y="577" on="1"/>
        <pt x="942" y="0" on="1"/>
        <pt x="746" y="0" on="1"/>
        <pt x="746" y="352" on="1"/>
        <pt x="737" y="352" on="1"/>
        <pt x="663" y="172" on="1"/>
        <pt x="586" y="20" on="1"/>
        <pt x="419" y="20" on="1"/>
        <pt x="342" y="172" on="1"/>
        <pt x="268" y="352" on="1"/>
        <pt x="259" y="352" on="1"/>
        <pt x="259" y="0" on="1"/>
        <pt x="63" y="0" on="1"/>
      </contour>
    </TTGlyph>
    <TTGlyph name="N" xMin="65" yMin="0" xMax="817" yMax="740">
      <contour>
        <pt x="65" y="740" on="1"/>
        <pt x="247" y="740" on="1"/>
        <pt x="536" y="412" on="1"/>
        <pt x="603" y="328" on="1"/>
        <pt x="613" y="328" on="1"/>
        <pt x="613" y="740" on="1"/>
        <pt x="817" y="740" on="1"/>
        <pt x="817" y="0" on="1"/>
        <pt x="635" y="0" on="1"/>
        <pt x="360" y="312" on="1"/>
        <pt x="279" y="412" on="1"/>
        <pt x="269" y="412" on="1"/>
        <pt x="269" y="0" on="1"/>
        <pt x="65" y="0" on="1"/>
      </contour>
    </TTGlyph>
    <TTGlyph name="N.sc" xMin="63" yMin="0" xMax="727" yMax="577">
      <contour>
        <pt x="63" y="577" on="1"/>
        <pt x="230" y="577" on="1"/>
        <pt x="459" y="360" on="1"/>
        <pt x="522" y="295" on="1"/>
        <pt x="531" y="295" on="1"/>
        <pt x="531" y="577" on="1"/>
        <pt x="727" y="577" on="1"/>
        <pt x="727" y="0" on="1"/>
        <pt x="560" y="0" on="1"/>
        <pt x="345" y="199" on="1"/>
        <pt x="268" y="282" on="1"/>
        <pt x="259" y="282" on="1"/>
        <pt x="259" y="0" on="1"/>
        <pt x="63" y="0" on="1"/>
      </contour>
    </TTGlyph>
    <TTGlyph name="Nacute" xMin="65" yMin="0" xMax="817" yMax="1008">
      <contour>
        <pt x="322" y="817" on="1"/>
        <pt x="384" y="1008" on="1"/>
        <pt x="619" y="1008" on="1"/>
        <pt x="487" y="807" on="1"/>
      </contour>
      <contour>
        <pt x="65" y="740" on="1"/>
        <pt x="247" y="740" on="1"/>
        <pt x="536" y="412" on="1"/>
        <pt x="603" y="328" on="1"/>
        <pt x="613" y="328" on="1"/>
        <pt x="613" y="740" on="1"/>
        <pt x="817" y="740" on="1"/>
        <pt x="817" y="0" on="1"/>
        <pt x="635" y="0" on="1"/>
        <pt x="360" y="312" on="1"/>
        <pt x="279" y="412" on="1"/>
        <pt x="269" y="412" on="1"/>
        <pt x="269" y="0" on="1"/>
        <pt x="65" y="0" on="1"/>
      </contour>
    </TTGlyph>
    <TTGlyph name="Nacute.sc" xMin="63" yMin="0" xMax="727" yMax="802">
      <contour>
        <pt x="63" y="577" on="1"/>
        <pt x="230" y="577" on="1"/>
        <pt x="459" y="360" on="1"/>
        <pt x="522" y="295" on="1"/>
        <pt x="531" y="295" on="1"/>
        <pt x="531" y="577" on="1"/>
        <pt x="727" y="577" on="1"/>
        <pt x="727" y="0" on="1"/>
        <pt x="560" y="0" on="1"/>
        <pt x="345" y="199" on="1"/>
        <pt x="268" y="282" on="1"/>
        <pt x="259" y="282" on="1"/>
        <pt x="259" y="0" on="1"/>
        <pt x="63" y="0" on="1"/>
      </contour>
      <contour>
        <pt x="286" y="640" on="1"/>
        <pt x="341" y="802" on="1"/>
        <pt x="564" y="802" on="1"/>
        <pt x="442" y="631" on="1"/>
      </contour>
    </TTGlyph>
</ttFont>
